<?xml version="1.0" standalone="no"?>
<!DOCTYPE svg PUBLIC "-//W3C//DTD SVG 1.1//EN" "http://www.w3.org/Graphics/SVG/1.1/DTD/svg11.dtd" >
<svg>
<metadata>
Created by FontForge 20090914 at Fri Sep  8 23:07:37 2017
 By www-data
Copyright (c) 1988, 1991, 2003 Linotype Library GmbH, www.linotype.com. All rights reserved.
</metadata>
<defs>
<font id="DINAlternate-Bold" horiz-adv-x="1024" >
  <font-face 
    font-family="DIN Alternate"
    font-weight="700"
    font-stretch="normal"
    units-per-em="2048"
    panose-1="2 11 5 0 0 0 0 0 0 0"
    ascent="1638"
    descent="-410"
    x-height="1038"
    cap-height="1458"
    bbox="-1054 -562 2570 2279"
    underline-thickness="102"
    underline-position="-154"
    unicode-range="U+000D-U+FE48"
  />
<missing-glyph horiz-adv-x="1372" 
d="M154 0v1458h1019v-1458h-1019zM1081 101v1256h-836v-1256h836z" />
    <glyph glyph-name=".notdef" horiz-adv-x="1372" 
d="M154 0v1458h1019v-1458h-1019zM1081 101v1256h-836v-1256h836z" />
    <glyph glyph-name=".null" horiz-adv-x="0" 
 />
    <glyph glyph-name=".null" horiz-adv-x="0" 
 />
    <glyph glyph-name="nonmarkingreturn" unicode="&#xd;" horiz-adv-x="491" 
 />
    <glyph glyph-name="space" unicode=" " horiz-adv-x="491" 
 />
    <glyph glyph-name="space" unicode="&#xa0;" horiz-adv-x="491" 
 />
    <glyph glyph-name="exclam" unicode="!" horiz-adv-x="528" 
d="M211 360h104l80 1098h-262zM160 0h209v209h-209v-209z" />
    <glyph glyph-name="quotedbl" unicode="&#x22;" horiz-adv-x="682" 
d="M127 1098h160v360h-160v-360zM395 1098h160v360h-160v-360z" />
    <glyph glyph-name="numbersign" unicode="#" horiz-adv-x="983" 
d="M569 582h-200l45 294h200zM491 0h160l64 446h202v136h-188l45 294h203v136h-189l64 446h-160l-63 -446h-201l63 446h-159l-64 -446h-202v-136h188l-45 -294h-203v-136h189l-64 -446h160l63 446h201z" />
    <glyph glyph-name="dollar" unicode="$" horiz-adv-x="983" 
d="M160 334l-144.002 -152.001c57.333 -56 122.333 -102.333 195 -139c72 -35.333 147.667 -53.666 227 -54.999v-221h105v221c114.667 17.333 205.334 65 272.001 143c66.667 75.333 100.667 170.333 102 285c3.33301 220.667 -121.334 361.334 -374.001 422.001v436
c84.667 -6.66699 160.334 -38.667 227.001 -96v0l119 155c-102.667 90 -218 135.667 -346 137v144h-105v-144c-233.333 -34 -352 -173.667 -356 -419c-5.33301 -212 113.334 -348.667 356.001 -410v-457c-62.667 7.33301 -115.667 24.666 -159 51.999
c-45.333 25.333 -85 58 -119 98v0zM437.998 861.999c-54.667 18 -92.667 43.333 -114 76c-22 31.333 -33 70.333 -33 117c0 36.667 4.66699 68 14 94c8 26 18.333 47.667 31 65c28.667 34.667 62.667 54.667 102 60v-412zM542.998 615.999
c65.333 -13.333 109.668 -37.666 133.001 -72.999c22 -36 33 -77.667 33 -125c0 -58.667 -11.667 -108 -35 -148c-24.667 -40.667 -68.334 -69.334 -131.001 -86.001v432z" />
    <glyph glyph-name="percent" unicode="%" horiz-adv-x="1063" 
d="M690 315c0 67.333 25.333 101 76 101s76 -33.667 76 -101v-110c0 -67.333 -25.333 -101 -76 -101s-76 33.667 -76 101v110zM573 190c1.33301 -70.667 22.001 -121.667 62.001 -153c36.667 -32.667 80.334 -49 131.001 -49c52 0 97 16.333 135 49
c19.333 16 33.666 37 42.999 63c9.33301 24.667 14 54.667 14 90v140c-1.33301 70.667 -20.333 122.334 -57 155.001c-38 31.333 -83 47 -135 47c-50.667 0 -94.334 -15.667 -131.001 -47c-40 -32.667 -60.667 -84.334 -62 -155.001v-140zM104.001 1128
c1.33301 -70.667 22.001 -121.667 62.001 -153c36.667 -32.667 80.334 -49 131.001 -49c52 0 97 16.333 135 49c19.333 16 33.666 37 42.999 63c9.33301 24.667 14 54.667 14 90v140c-1.33301 70.667 -20.333 122.334 -57 155.001c-38 31.333 -83 47 -135 47
c-50.667 0 -94.334 -15.667 -131.001 -47c-40 -32.667 -60.667 -84.334 -62 -155.001v-140zM221.002 1253c0 67.333 25.333 101 76 101s76 -33.667 76 -101v-110c0 -67.333 -25.333 -101 -76 -101s-76 33.667 -76 101v110zM119.002 0h135l690 1458h-135z" />
    <glyph glyph-name="ampersand" unicode="&#x26;" horiz-adv-x="1327" 
d="M422 1147c0 39.333 14.332 72.667 42.999 100c26 26 59.333 39 100 39c42.667 0 77.667 -13 105 -39c26 -27.333 39 -60.666 39 -99.999c0 -36.667 -12.333 -70.334 -37 -101.001c-27.333 -30 -74.666 -58.667 -141.999 -86v0c-31.333 30 -56.333 61.667 -75 95
c-22 31.333 -33 62 -33 92v0zM947.999 147.001l135 -147.003h246l-246 293c41.333 44.667 78.333 95 111 151c32.667 54.667 59.334 109.334 80.001 164.001l-187 74v0c-27.333 -87.333 -69.666 -168.666 -126.999 -243.999v0l-311 375
c165.333 82 246.666 190.667 243.999 326c-1.33301 91.333 -31.333 169 -90 233s-138 96.667 -238 98c-99.333 -1.33301 -178.333 -34 -237 -98c-60 -64 -90 -141.667 -90 -233c0 -49.333 12 -97.333 36 -144c20.667 -47.333 48.667 -91.666 84 -132.999
c-184 -102 -276.667 -244 -278 -426c1.33301 -122.667 44.333 -227 129 -313c82 -87.333 192.667 -132.333 332 -135c77.333 1.33301 149.666 17 216.999 47c68 30 131.333 67.333 190 112v0zM474.999 722.998l352 -422c-100.667 -87.333 -198.334 -130.333 -293.001 -129
c-73.333 0 -136 26 -188 78c-53.333 49.333 -80.666 112 -81.999 188c-1.33301 106.667 69 201.667 211 285v0z" />
    <glyph glyph-name="quotesingle" unicode="'" horiz-adv-x="491" 
d="M166 1098h160v360h-160v-360z" />
    <glyph glyph-name="parenleft" unicode="(" horiz-adv-x="569" 
d="M528 -209c-129.333 258 -194.666 536.001 -195.999 834.001c1.33301 297.333 66.666 575 195.999 833h-82c-215.333 -256.667 -323 -534.334 -323 -833.001c0 -298 107.667 -576 323 -834h82z" />
    <glyph glyph-name="parenright" unicode=")" horiz-adv-x="569" 
d="M41 1458c128 -258 193.667 -535.668 197 -833.001c-3.33301 -298 -69 -576 -197 -834h82c215.333 258 323 536 323 834c0 298.667 -107.667 576.334 -323 833.001h-82z" />
    <glyph glyph-name="asterisk" unicode="*" horiz-adv-x="721" 
d="M299 1051v-199h123v199v0l164 -95v0l61 95l-170 104l170 104l-61 95v0l-164 -95v0v199h-123v-199v0l-164 95v0l-61 -95l170 -104l-170 -104l61 -95v0l164 95v0z" />
    <glyph glyph-name="plus" unicode="+" horiz-adv-x="1229" 
d="M534 598h-438v-160h438v-438h160v438h438v160h-438v438h-160v-438z" />
    <glyph glyph-name="comma" unicode="," horiz-adv-x="491" 
d="M141 -152l209 152v209h-209v-361z" />
    <glyph glyph-name="hyphen" unicode="-" horiz-adv-x="833" 
d="M109 463h616v209h-616v-209z" />
    <glyph glyph-name="period" unicode="." horiz-adv-x="491" 
d="M141 0h209v209h-209v-209z" />
    <glyph glyph-name="slash" unicode="/" horiz-adv-x="682" 
d="M16 -12h160l490 1482h-160z" />
    <glyph glyph-name="zero" unicode="0" horiz-adv-x="983" 
d="M696 420c-4 -147.333 -72.333 -221.666 -205 -222.999c-133.333 1.33301 -201.333 75.666 -204 222.999v618c2.66699 146 70.667 220.333 204 223c132.667 -2.66699 201 -77 205 -223v-618zM78 408c1.33301 -134 44.333 -237.333 129 -310
c79.333 -72 174 -108.667 284 -110c113.333 1.33301 209.666 38 288.999 110c80.667 72.667 122.334 176 125.001 310v643c-2.66699 134.667 -44.334 238.334 -125.001 311.001c-79.333 72 -175.666 108 -288.999 108c-110 0 -204.667 -36 -284 -108
c-84.667 -72.667 -127.667 -176.334 -129 -311.001v-643z" />
    <glyph glyph-name="one" unicode="1" horiz-adv-x="983" 
d="M397 1237v-1237h209v1458h-209l-207 -151v-222v0l207 152v0z" />
    <glyph glyph-name="two" unicode="2" horiz-adv-x="983" 
d="M66 0l831 -0.000976562v209h-557l469 588c58.667 74.667 88 160 88 256c-1.33301 120 -41.666 219 -120.999 297c-78 78.667 -179.667 118.667 -305 120c-112 -1.33301 -206.333 -40.666 -283 -117.999c-76 -79.333 -116.667 -179.666 -122 -300.999h208
c7.33301 66.667 30.666 118.334 69.999 155.001c38 36.667 85.667 55 143 55c64.667 -1.33301 114.667 -22.333 150 -63c34 -40.667 51 -88.334 51 -143.001c0 -20.667 -2.66699 -42.667 -8 -66c-8 -24.667 -23 -51.334 -45 -80.001l-569 -712v-197z" />
    <glyph glyph-name="three" unicode="3" horiz-adv-x="983" 
d="M360 659l87.999 -0.00195312c64.667 0 118 -19.667 160 -59c42.667 -40.667 64.667 -98 66 -172c-1.33301 -72.667 -23.333 -128.667 -66 -168c-42 -42 -93.667 -63 -155 -63c-57.333 0 -103.333 15.667 -138 47c-34 30 -60.333 69.333 -79 118h-209
c22.667 -121.333 72.334 -214 149.001 -278s164.667 -96 264 -96c128.667 1.33301 234 42.333 316 123c83.333 78.667 125.666 186.334 126.999 323.001c0 61.333 -13 120 -39 176c-27.333 56 -71.666 104 -132.999 144c60 40.667 101.667 87 125 139c20 52 30 106 30 162
c-1.33301 110.667 -39.333 206.667 -114 288c-78 83.333 -183.333 125.666 -316 126.999c-104.667 -1.33301 -194.667 -38.666 -270 -111.999c-76.667 -74 -120.334 -165 -131.001 -273h209c13.333 60 39.333 104.333 78 133c36.667 28.667 77.334 43 122.001 43
c62 -1.33301 112.667 -21 152 -59c39.333 -39.333 59.666 -89.666 60.999 -150.999c0 -60.667 -19.667 -110 -59 -148c-39.333 -39.333 -94.666 -59 -165.999 -59h-72v-185z" />
    <glyph glyph-name="four" unicode="4" horiz-adv-x="983" 
d="M25 217h608v-217h209v217h116v197h-116v419h-209v-419h-381l493 1044h-233l-487 -1044v-197z" />
    <glyph glyph-name="five" unicode="5" horiz-adv-x="983" 
d="M102 670l196.999 -0.000976562c24.667 44.667 52.667 76 84 94c31.333 17.333 66 26 104 26c42.667 0 78.334 -6 107.001 -18c28.667 -14.667 50.334 -34.334 65.001 -59.001c27.333 -52 40.333 -119.667 39 -203c0 -34 -0.666992 -69 -2 -105
c-2.66699 -36.667 -10 -70.667 -22 -102c-11.333 -31.333 -31.333 -56.666 -60 -75.999c-30 -20 -70 -30 -120 -30c-116.667 1.33301 -186.334 58 -209.001 170h-209c20 -134 71.667 -231 155 -291c82 -58.667 172.333 -88 271 -88
c73.333 1.33301 136.666 18.333 189.999 51c54.667 31.333 96.334 66 125.001 104c32.667 38.667 56 83 70 133c13.333 50.667 20 123.334 20 218.001c0 61.333 -2 113 -6 155c-4 41.333 -10.667 76.333 -20 105c-18 52.667 -47.333 99 -88 139
c-27.333 30 -63 55.333 -107 76c-46.667 18.667 -98 28.667 -154 30c-87.333 0 -165 -26.667 -233 -80v0v330h580v209h-777v-788z" />
    <glyph glyph-name="six" unicode="6" horiz-adv-x="983" 
d="M78 408c1.33301 -134 44.334 -237.331 129.001 -309.998c79.333 -72 174 -108.667 284 -110c113.333 1.33301 209.666 38 288.999 110c80.667 72.667 122.334 176 125.001 310v133c1.33301 140.667 -30.667 243.667 -96 309c-66.667 64 -148 96 -244 96
c-86 1.33301 -178.667 -13.667 -278 -45v0v137c2.66699 146 70.667 220.333 204 223c94.667 -1.33301 158.334 -42 191.001 -122h215c-20.667 107.333 -68.334 189.666 -143.001 246.999c-76.667 56 -164.334 84 -263.001 84c-110 0 -204.667 -36 -284 -108
c-84.667 -72.667 -127.667 -176.334 -129 -311.001v-643zM287.001 539.002c2.66699 146 70.667 220.333 204 223c132.667 -2.66699 201 -77 205 -223v-119c-4 -147.333 -72.333 -221.666 -205 -222.999c-133.333 1.33301 -201.333 75.666 -204 222.999v119z" />
    <glyph glyph-name="seven" unicode="7" horiz-adv-x="983" 
d="M104 1038h209v211h387l-493 -1249h233l494 1249v209h-830v-420z" />
    <glyph glyph-name="eight" unicode="8" horiz-adv-x="983" 
d="M283 1053c1.33301 69.333 23 121.666 65 156.999c41.333 34 89 51 143 51c56 0 104.667 -17 146 -51c40.667 -35.333 61.667 -87.666 63 -156.999c-1.33301 -67.333 -22.333 -118.666 -63 -153.999c-41.333 -36.667 -90 -55 -146 -55c-54 0 -101.667 18.333 -143 55
c-42 35.333 -63.667 86.666 -65 153.999v0zM47 426c1.33301 -131.333 45.666 -236.333 132.999 -315c83.333 -80.667 187 -121.667 311 -123c124.667 1.33301 230 42.333 316 123c84.667 78.667 127.667 183.667 129 315c-1.33301 140.667 -58.666 250 -171.999 328
c43.333 38 78.666 81.667 105.999 131c26 46 39 100.667 39 164c-1.33301 121.333 -41 221.666 -119 300.999c-77.333 78.667 -177 118.667 -299 120c-120 -1.33301 -218 -41.333 -294 -120c-80.667 -79.333 -121.667 -179.666 -123 -300.999c0 -63.333 14.333 -118 43 -164
c24.667 -49.333 58.667 -93 102 -131c-113.333 -78 -170.666 -187.333 -171.999 -328v0zM256 428c1.33301 68 25.333 123.333 72 166c44.667 42 99 63.667 163 65c66 -1.33301 121.333 -23 166 -65c45.333 -42.667 68.666 -98 69.999 -166
c-1.33301 -66.667 -24.666 -121.334 -69.999 -164.001c-44.667 -44.667 -100 -67 -166 -67c-64 0 -118.333 22.333 -163 67c-46.667 42.667 -70.667 97.334 -72 164.001v0z" />
    <glyph glyph-name="nine" unicode="9" horiz-adv-x="983" 
d="M78 917c-1.33301 -140 31.332 -242.334 97.999 -307.001c66.667 -66.667 147.334 -99.334 242.001 -98.001c86 -1.33301 178.667 13.667 278 45v0v-137c-4 -147.333 -72.333 -221.666 -205 -222.999c-94 0 -157.333 40.667 -190 122h-215c22 -106 71 -187 147 -243
c75.333 -57.333 161.333 -86.666 258 -87.999c113.333 1.33301 209.666 38 288.999 110c80.667 72.667 122.334 176 125.001 310v643c-2.66699 134.667 -44.334 238.334 -125.001 311.001c-79.333 72 -175.666 108 -288.999 108c-110 0 -204.667 -36 -284 -108
c-84.667 -72.667 -127.667 -176.334 -129 -311.001v-134zM286.998 1038c2.66699 146 70.667 220.333 204 223c132.667 -2.66699 201 -77 205 -223v-119c-4 -147.333 -72.333 -221.666 -205 -222.999c-133.333 1.33301 -201.333 75.666 -204 222.999v119z" />
    <glyph glyph-name="colon" unicode=":" horiz-adv-x="491" 
d="M141 465h209v209h-209v-209zM141 0h209v209h-209v-209z" />
    <glyph glyph-name="semicolon" unicode=";" horiz-adv-x="491" 
d="M141 -152l209 152v209h-209v-361zM141 465h209v209h-209v-209z" />
    <glyph glyph-name="less" unicode="&#x3c;" horiz-adv-x="1229" 
d="M96 444l1036 -460v0v172l-851 362l851 363v172v0l-1036 -461v-148z" />
    <glyph glyph-name="equal" unicode="=" horiz-adv-x="1229" 
d="M96 643h1036v160h-1036v-160zM96 233h1036v160h-1036v-160z" />
    <glyph glyph-name="greater" unicode="&#x3e;" horiz-adv-x="1229" 
d="M96 -16l1036 460v148l-1036 461v0v-172l852 -363l-852 -362v-172z" />
    <glyph glyph-name="question" unicode="?" horiz-adv-x="948" 
d="M346 360l208.998 -0.000976562v117c-1.33301 50.667 10.334 93.667 35.001 129l186 256c42.667 57.333 64.667 129 66 215c-1.33301 121.333 -41.666 217.666 -120.999 288.999c-76.667 68 -168.334 102.667 -275.001 104
c-104.667 -1.33301 -194.667 -38.666 -270 -111.999c-76.667 -72.667 -115.667 -165.667 -117 -279v-41h209c0 82 19.333 140 58 174c34 32.667 77.667 49 131 49c43.333 0 83.333 -15.667 120 -47c36 -32.667 54.667 -77.667 56 -135c0 -42 -17 -87 -51 -135l-183 -254
c-21.333 -30 -35.666 -60 -42.999 -90c-6.66699 -31.333 -10 -66.666 -10 -105.999v-134zM345.998 -0.000976562h209v209h-209v-209z" />
    <glyph glyph-name="at" unicode="@" horiz-adv-x="1638" 
d="M537 610c0 91.333 31.333 181.665 94 270.998c28.667 42 63.334 76 104.001 102c40 26 83.667 39 131 39c49.333 -1.33301 89.666 -19.666 120.999 -54.999c30 -36 45 -78.333 45 -127c-1.33301 -87.333 -32 -177 -92 -269c-28.667 -43.333 -62 -78.666 -100 -105.999
c-40 -30 -82.333 -45 -127 -45c-52 0 -93.667 18.333 -125 55c-34 34 -51 79 -51 135v0zM1102 996.999l-4.00098 -0.000976562c-52 108 -129.333 161.333 -232 160c-147.333 -2.66699 -265.333 -62 -354 -178c-88.667 -113.333 -133.667 -241 -135 -383
c0 -86 28 -158.333 84 -217c53.333 -61.333 122.333 -92.666 207 -93.999c68 0 121.667 13.667 161 41c40 26 72.333 56 97 90h4c16 -87.333 70.667 -131 164 -131c96.667 1.33301 197 54.333 301 159c106 104 161 242 165 414c-2.66699 182.667 -72 330 -208 442
c-136.667 112 -306 168.667 -508 170c-221.333 -2.66699 -403 -70.667 -545 -204c-144.667 -132.667 -218.334 -309 -221.001 -529c1.33301 -222.667 74.333 -402 219 -538c140.667 -138 321.667 -208.333 543 -211c300 4 525 120.667 675 350h-135
c-56 -61.333 -125.667 -107.666 -209 -138.999c-83.333 -34.667 -185.666 -52 -306.999 -52c-192.667 1.33301 -344 58.666 -454 171.999c-113.333 108 -170.666 246 -171.999 414c0 158.667 54.333 294 163 406c106.667 112 257.667 169.333 453 172
c165.333 -1.33301 297 -44.333 395 -129c100 -84.667 150.667 -196 152 -334c-2.66699 -104 -33.334 -201.667 -92.001 -293c-27.333 -44 -56.666 -78.667 -87.999 -104c-33.333 -28.667 -65.666 -43 -96.999 -43c-32.667 1.33301 -48.334 21 -47.001 59
c0 31.333 7 66 21 104l163 531h-135z" />
    <glyph glyph-name="A" unicode="A" horiz-adv-x="1249" 
d="M412 522l211 637h4l211 -637h-426zM1014 0h233l-530 1458h-185l-530 -1458h234l112 326h553z" />
    <glyph glyph-name="B" unicode="B" horiz-adv-x="1249" 
d="M154 0h614c114.667 -0 210.334 38.333 287.001 115c77.333 73.333 116.666 173 117.999 299c0 76 -19 146.333 -57 211c-40.667 62.667 -100.667 104.334 -180 125.001v4c42 20 77.333 42.333 106 67c28.667 23.333 50.667 48 66 74c30 54.667 44.333 112 43 172
c0 117.333 -36.333 211.666 -109 282.999c-72 70.667 -179.667 106.667 -323 108h-565v-1458zM715 647c82 -1.33301 142 -23 180 -65c38 -42.667 57 -94 57 -154c0 -58.667 -19 -109.334 -57 -152.001c-38 -43.333 -98 -65.666 -180 -66.999h-340v438h340zM694 1261
c80.667 -1.33301 140 -20.998 178 -58.998c38.667 -40.667 58 -90.334 58 -149.001s-19.333 -107.334 -58 -146.001c-38 -42 -97.333 -63 -178 -63h-319v417h319z" />
    <glyph glyph-name="C" unicode="C" horiz-adv-x="1139" 
d="M903 408c-61.333 -132.667 -154.001 -199.002 -278.001 -199.002c-52 0 -96.667 11 -134 33c-38 18.667 -68.667 43 -92 73c-28.667 31.333 -47.667 72.333 -57 123c-10.667 50.667 -16 147.667 -16 291s5.33301 241 16 293c9.33301 49.333 28.333 89.666 57 120.999
c23.333 30 54 55 92 75c37.333 19.333 82 29.666 134 30.999c70.667 -1.33301 130.667 -21.666 180 -60.999c47.333 -41.333 80 -91.333 98 -150h234c-23.333 122 -79.333 224.333 -168 307c-88.667 82 -203.334 123.667 -344.001 125
c-114.667 -1.33301 -210.334 -28.666 -287.001 -81.999c-78 -52.667 -134.667 -112.667 -170 -180c-22 -35.333 -38.333 -81.666 -49 -138.999c-10 -57.333 -15 -170.666 -15 -339.999c0 -166.667 5 -279.334 15 -338.001c5.33301 -31.333 12 -57.333 20 -78
c8.66699 -20 18.334 -41 29.001 -63c35.333 -67.333 92 -126.666 170 -177.999c76.667 -53.333 172.334 -81.333 287.001 -84c126.667 0 236.334 36 329.001 108c90 72.667 151 176.667 183 312h-234z" />
    <glyph glyph-name="D" unicode="D" horiz-adv-x="1290" 
d="M154 0l495 -0.000976562c109.333 0 201.666 24 276.999 72c76 44.667 135.333 101.334 178 170.001c16 26 29.667 51 41 75c10.667 24.667 18.667 52.667 24 84c11.333 62 17 171.333 17 328c0 147.333 -3.66699 251 -11 311c-9.33301 60 -31.666 117.333 -66.999 172
c-98.667 162.667 -246.667 244.667 -444 246h-510v-1458zM375 1249l264.001 0.000976562c112 2.66699 198.667 -38.333 260 -123c30 -34 49 -78.333 57 -133c6 -54.667 9 -145.334 9 -272.001c0 -130 -3 -218.667 -9 -266c-6.66699 -48 -22.334 -87.667 -47.001 -119
c-56 -84.667 -146 -127 -270 -127h-264v1040z" />
    <glyph glyph-name="E" unicode="E" horiz-adv-x="1139" 
d="M154 0h931v209h-710v428h606v196h-606v416h710v209h-931v-1458z" />
    <glyph glyph-name="F" unicode="F" horiz-adv-x="1100" 
d="M154 0h221v623h606v196h-606v430h710v209h-931v-1458z" />
    <glyph glyph-name="G" unicode="G" horiz-adv-x="1249" 
d="M627 594l297 -0.00195312v-76c-1.33301 -91.333 -30 -165 -86 -221c-56 -58.667 -127 -88 -213 -88c-52 0 -96.667 11 -134 33c-38 18.667 -68.667 43 -92 73c-28.667 31.333 -47.667 72.333 -57 123c-10.667 50.667 -16 147.667 -16 291s5.33301 241 16 293
c9.33301 49.333 28.333 89.666 57 120.999c23.333 30 54 55 92 75c37.333 19.333 82 29.666 134 30.999c70.667 -1.33301 130.667 -21.666 180 -60.999c47.333 -41.333 80 -91.333 98 -150h234c-23.333 122 -79.333 224.333 -168 307
c-88.667 82 -203.334 123.667 -344.001 125c-114.667 -1.33301 -210.334 -28.666 -287.001 -81.999c-78 -52.667 -134.667 -112.667 -170 -180c-22 -35.333 -38.333 -81.666 -49 -138.999c-10 -57.333 -15 -170.666 -15 -339.999c0 -166.667 5 -279.334 15 -338.001
c5.33301 -31.333 12 -57.333 20 -78c8.66699 -20 18.334 -41 29.001 -63c35.333 -67.333 92 -126.666 170 -177.999c76.667 -53.333 172.334 -81.333 287.001 -84c148.667 2.66699 272 53 370 151c97.333 98.667 147.333 221 150 367v297h-518v-209z" />
    <glyph glyph-name="H" unicode="H" horiz-adv-x="1327" 
d="M952 0h221v1458h-221v-625h-577v625h-221v-1458h221v637h577v-637z" />
    <glyph glyph-name="I" unicode="I" horiz-adv-x="528" 
d="M154 0h221v1458h-221v-1458z" />
    <glyph glyph-name="J" unicode="J" horiz-adv-x="985" 
d="M180 307l-177.999 -128.999c83.333 -122.667 209.666 -186 378.999 -190c122.667 1.33301 230.334 43 323.001 125c93.333 80 141.333 193.333 144 340v1005h-221v-983c0 -49.333 -7.66699 -90.333 -23 -123c-14.667 -34 -35 -61.333 -61 -82
c-53.333 -42 -109.333 -62.333 -168 -61c-44 0 -82.333 10.333 -115 31c-32.667 17.333 -59.334 39.666 -80.001 66.999v0z" />
    <glyph glyph-name="K" unicode="K" horiz-adv-x="1290" 
d="M154 0h221v444l256 269v0l397 -713h262l-516 883l467 575h-262l-600 -751h-4v751h-221v-1458z" />
    <glyph glyph-name="L" unicode="L" horiz-adv-x="1139" 
d="M154 0h931v209h-710v1249h-221v-1458z" />
    <glyph glyph-name="M" unicode="M" horiz-adv-x="1552" 
d="M154 0h221v909h4l305 -700h184l305 700h5v-909h221v1458h-209l-410 -950v0l-418 950h-208v-1458z" />
    <glyph glyph-name="N" unicode="N" horiz-adv-x="1401" 
d="M154 0h221v1036h4l659 -1036h209v1458h-221v-1036h-4l-660 1036h-208v-1458z" />
    <glyph glyph-name="O" unicode="O" horiz-adv-x="1249" 
d="M104 729c0 -166.667 4.99902 -279.334 14.999 -338.001c5.33301 -31.333 12 -57.333 20 -78c8.66699 -20 18.334 -41 29.001 -63c35.333 -67.333 92 -126.666 170 -177.999c76.667 -53.333 172.334 -81.333 287.001 -84c116 2.66699 212.667 30.667 290 84
c76.667 51.333 132 110.666 166 177.999c24.667 35.333 41.667 82.333 51 141c8.66699 58.667 13 171.334 13 338.001c0 169.333 -4.33301 282.666 -13 339.999c-9.33301 57.333 -26.333 103.666 -51 138.999c-34 67.333 -89.333 127.333 -166 180
c-77.333 53.333 -174 80.666 -290 81.999c-114.667 -1.33301 -210.334 -28.666 -287.001 -81.999c-78 -52.667 -134.667 -112.667 -170 -180c-22 -35.333 -38.333 -81.666 -49 -138.999c-10 -57.333 -15 -170.666 -15 -339.999v0zM325.999 729c0 143.333 5.33301 241 16 293
c9.33301 49.333 28.333 89.666 57 120.999c23.333 30 54 55 92 75c37.333 19.333 82 29.666 134 30.999c52.667 -1.33301 98.334 -11.666 137.001 -30.999c36.667 -20 66 -45 88 -75c28.667 -31.333 48.334 -71.666 59.001 -120.999c10 -52 15 -149.667 15 -293
s-5 -240.333 -15 -291c-10.667 -50.667 -30.334 -91.667 -59.001 -123c-22 -30 -51.333 -54.333 -88 -73c-38.667 -22 -84.334 -33 -137.001 -33c-52 0 -96.667 11 -134 33c-38 18.667 -68.667 43 -92 73c-28.667 31.333 -47.667 72.333 -57 123
c-10.667 50.667 -16 147.667 -16 291v0z" />
    <glyph glyph-name="P" unicode="P" horiz-adv-x="1214" 
d="M375 1249h319c60 1.33301 112.667 -12.334 158 -41.001c30 -17.333 53.333 -41 70 -71c16 -33.333 24 -74.333 24 -123c0 -58.667 -19.667 -112 -59 -160c-41.333 -49.333 -103 -74.666 -185 -75.999h-327v471zM154 0l220.999 -0.000976562v569h336
c150 2.66699 264 50.667 342 144c76 88.667 114 187 114 295c0 80 -15 149.333 -45 208c-28.667 60.667 -66 107.334 -112 140.001c-54.667 43.333 -108.667 72 -162 86c-53.333 10.667 -108.666 16 -165.999 16h-528v-1458z" />
    <glyph glyph-name="Q" unicode="Q" horiz-adv-x="1249" 
d="M788 260c-40.667 -34 -95.002 -51 -163.002 -51c-52 0 -96.667 11 -134 33c-38 18.667 -68.667 43 -92 73c-28.667 31.333 -47.667 72.333 -57 123c-10.667 50.667 -16 147.667 -16 291s5.33301 241 16 293c9.33301 49.333 28.333 89.666 57 120.999
c23.333 30 54 55 92 75c37.333 19.333 82 29.666 134 30.999c52.667 -1.33301 98.334 -11.666 137.001 -30.999c36.667 -20 66 -45 88 -75c28.667 -31.333 48.334 -71.666 59.001 -120.999c10 -52 15 -149.667 15 -293c0 -154 -7 -255.667 -21 -305v0l-170 135v0l-131 -151z
M968.998 115l183.999 -148v0l131 152l-192 153c20 33.333 34.333 80 43 140c6.66699 60 10 165.667 10 317c0 169.333 -4.33301 282.666 -13 339.999c-9.33301 57.333 -26.333 103.666 -51 138.999c-34 67.333 -89.333 127.333 -166 180
c-77.333 53.333 -174 80.666 -290 81.999c-114.667 -1.33301 -210.334 -28.666 -287.001 -81.999c-78 -52.667 -134.667 -112.667 -170 -180c-22 -35.333 -38.333 -81.666 -49 -138.999c-10 -57.333 -15 -170.666 -15 -339.999c0 -166.667 5 -279.334 15 -338.001
c5.33301 -31.333 12 -57.333 20 -78c8.66699 -20 18.334 -41 29.001 -63c35.333 -67.333 92 -126.666 170 -177.999c76.667 -53.333 172.334 -81.333 287.001 -84c143.333 2.66699 258 45 344 127v0z" />
    <glyph glyph-name="R" unicode="R" horiz-adv-x="1249" 
d="M375 1261l346.001 -0.000976562c70.667 0 124.667 -15 162 -45c47.333 -34 71.666 -89 72.999 -165c0 -63.333 -20.333 -116.666 -61 -159.999c-41.333 -46.667 -103.333 -70.667 -186 -72h-334v442zM154.001 -0.000976562l221 -0.000976562v623h282l301 -623h263
l-338 647c185.333 71.333 279.333 206 282 404c-4 134.667 -52.333 238.334 -145 311.001c-76.667 64 -175.667 96 -297 96h-569v-1458z" />
    <glyph glyph-name="S" unicode="S" horiz-adv-x="1175" 
d="M172 354l-144.997 -166c155.333 -133.333 341 -200 557 -200c334 4 504.667 145.333 512 424c0 103.333 -32.333 194 -97 272c-65.333 79.333 -166.333 128.333 -303 147c-69.333 8.66699 -124 16.334 -164 23.001c-72 13.333 -124.333 37.333 -157 72
c-32.667 34 -49 72 -49 114c1.33301 70 25.666 122.667 72.999 158c45.333 34 102 51 170 51c131.333 -2.66699 251.666 -40 360.999 -112v0l123 182c-134 96.667 -291.667 147 -473 151c-150.667 -1.33301 -267 -40.666 -349 -117.999c-84.667 -78 -127 -180.667 -127 -308
c0 -106 33.667 -196 101 -270c65.333 -72 160.666 -118.333 285.999 -139l193 -27c128 -22 191.333 -87.333 190 -196c-2.66699 -132.667 -98.667 -200.334 -288 -203.001c-160 1.33301 -298 49.666 -414 144.999v0z" />
    <glyph glyph-name="T" unicode="T" 
d="M401 0h222v1261h399v197h-1020v-197h399v-1261z" />
    <glyph glyph-name="U" unicode="U" horiz-adv-x="1290" 
d="M127 494c1.33301 -153.333 51.999 -275 151.999 -365c98 -92.667 220 -139.667 366 -141c148.667 1.33301 271.667 48.333 369 141c96.667 90 146.334 211.667 149.001 365v964h-221v-940c-1.33301 -99.333 -29.333 -175 -84 -227c-56 -54.667 -127 -82 -213 -82
s-156.333 27.333 -211 82c-56 52 -84.667 127.667 -86 227v940h-221v-964z" />
    <glyph glyph-name="V" unicode="V" horiz-adv-x="1139" 
d="M483 0h172l482 1458h-234l-332 -1110h-4l-331 1110h-234z" />
    <glyph glyph-name="W" unicode="W" horiz-adv-x="1704" 
d="M387 0h184l279 1051h4l278 -1051h185l364 1458h-233l-230 -1036h-4l-282 1036h-160l-283 -1036h-4l-229 1036h-233z" />
    <glyph glyph-name="X" unicode="X" horiz-adv-x="1098" 
d="M549 543l319 -543h250l-446 747l417 711h-249l-291 -506v0l-291 506h-250l418 -711l-446 -747h249l320 543v0z" />
    <glyph glyph-name="Y" unicode="Y" 
d="M408 0h208v600l439 858h-234l-309 -647v0l-309 647h-234l439 -858v-600z" />
    <glyph glyph-name="Z" unicode="Z" horiz-adv-x="1063" 
d="M66 0h931v209h-663l663 1083v166h-905v-197h635l-661 -1077v-184z" />
    <glyph glyph-name="bracketleft" unicode="[" horiz-adv-x="569" 
d="M147 -209h379v135h-194v1397h194v135h-379v-1667z" />
    <glyph glyph-name="backslash" unicode="\" horiz-adv-x="682" 
d="M506 -12h160l-490 1482h-160z" />
    <glyph glyph-name="bracketright" unicode="]" horiz-adv-x="569" 
d="M238 -74h-195v-135h379v1667h-379v-135h195v-1397z" />
    <glyph glyph-name="asciicircum" unicode="^" horiz-adv-x="1229" 
d="M102 580h172l340 706v0l340 -706h172l-444 878h-135z" />
    <glyph glyph-name="underscore" unicode="_" 
d="M0 -256h1024v102h-1024v-102z" />
    <glyph glyph-name="grave" unicode="`" horiz-adv-x="491" 
d="M231 1171h172l-188 299h-274z" />
    <glyph glyph-name="a" unicode="a" 
d="M680 0l209 -0.00292969v709c-1.33301 126.667 -41 216 -119 268c-78 50.667 -182.333 75.334 -313 74.001c-154.667 2.66699 -271.667 -48 -351 -152l164 -125v0c18 30 42.667 51.333 74 64c30 10.667 71 16 123 16c143.333 2.66699 214.333 -41.666 213 -132.999v-109
h-289c-110.667 -1.33301 -194.667 -31.333 -252 -90c-57.333 -57.333 -86 -129.666 -86 -216.999c0 -91.333 33 -166.333 99 -225c62.667 -60 152 -90.667 268 -92c70.667 0 126 8.66699 166 26c40.667 16.667 70.667 42.667 90 78h4v-92zM680 364.997
c0 -78 -16.333 -128.001 -49 -150.001c-36 -22 -97.667 -32.333 -185 -31c-69.333 0 -119 13.667 -149 41c-31.333 24.667 -47 54.667 -47 90c-1.33301 80.667 58.667 122.334 180 125.001h250v-75z" />
    <glyph glyph-name="b" unicode="b" horiz-adv-x="1063" 
d="M135 0h209v109v0c69.333 -78 158.666 -118.333 267.999 -121c64.667 1.33301 120 14.333 166 39c46.667 24 84.334 56 113.001 96c28.667 32.667 48.334 77 59.001 133c10 53.333 15 141.333 15 264c0 124.667 -5 213.334 -15 266.001
c-10.667 53.333 -30.334 96.333 -59.001 129c-58.667 87.333 -151.667 132.666 -279 135.999c-53.333 0 -101 -11 -143 -33c-45.333 -23.333 -87 -53.333 -125 -90v0v530h-209v-1458zM549 842c49.333 0 88.333 -8.33398 117 -25.001c28.667 -18 49 -42.667 61 -74
c13.333 -31.333 22.333 -65.333 27 -102c1.33301 -39.333 2 -79.666 2 -120.999c0 -39.333 -0.666992 -77.666 -2 -114.999c-4.66699 -39.333 -13.667 -74.666 -27 -105.999c-12 -30 -32.333 -54.667 -61 -74c-28.667 -18.667 -67.667 -28 -117 -28
c-46.667 0 -83.667 10 -111 30c-28.667 19.333 -49.667 44.666 -63 75.999c-12.667 31.333 -21 66.333 -25 105c-4 38 -6 75.333 -6 112c0 40 2 78.333 6 115s12.333 70.667 25 102c13.333 31.333 34.333 56.666 63 75.999c27.333 19.333 64.333 29 111 29v0z" />
    <glyph glyph-name="c" unicode="c" horiz-adv-x="909" 
d="M745 305c-52.667 -70.667 -123 -106.667 -211 -108c-177.333 -3.33301 -267.333 103.667 -270 321c2.66699 218.667 92.667 326.667 270 324c88 -2.66699 158.333 -39 211 -109v0l154 137c-45.333 54.667 -98.666 98.334 -159.999 131.001
c-61.333 32 -132.333 48.667 -213 50c-122.667 1.33301 -230.334 -39.667 -323.001 -123c-96 -84.667 -145.333 -221.334 -148 -410.001c2.66699 -186.667 52 -321.667 148 -405c92.667 -83.333 200.334 -125 323.001 -125c80.667 1.33301 151.667 19 213 53
c61.333 32.667 114.666 75 159.999 127z" />
    <glyph glyph-name="d" unicode="d" horiz-adv-x="1063" 
d="M756 109l-0.00195312 -109h209v1458h-209v-530v0c-38.667 36.667 -79 66.667 -121 90c-45.333 22 -94.666 33 -147.999 33c-126.667 -3.33301 -219.334 -48.666 -278.001 -135.999c-28.667 -32.667 -47.667 -75.667 -57 -129c-11.333 -52.667 -17 -141.334 -17 -266.001
c0 -122.667 5.66699 -210.667 17 -264c9.33301 -56 28.333 -100.333 57 -133c31.333 -40 70.333 -72 117 -96c44.667 -24.667 98.334 -37.667 161.001 -39c110.667 2.66699 200.334 43 269.001 121v0zM550.998 842c49.333 0 88.333 -9.66602 117 -28.999
s48.334 -44.666 59.001 -75.999c13.333 -31.333 22.333 -65.333 27 -102c1.33301 -36.667 2 -75 2 -115c0 -36.667 -0.666992 -74 -2 -112c-4.66699 -38.667 -13.667 -73.667 -27 -105c-10.667 -31.333 -30.334 -56.666 -59.001 -75.999c-28.667 -20 -67.667 -30 -117 -30
s-87 9.33301 -113 28c-28.667 19.333 -49.667 44 -63 74c-12.667 31.333 -21 66.666 -25 105.999c-4 37.333 -6 75.666 -6 114.999c0 41.333 2 81.666 6 120.999c4 36.667 12.333 70.667 25 102c13.333 31.333 34.333 56 63 74c26 16.667 63.667 25 113 25v0z" />
    <glyph glyph-name="e" unicode="e" 
d="M940 440v172.004c-1.33301 136.667 -43.666 244 -126.999 322c-82 76.667 -182.333 115.667 -301 117c-49.333 0 -99.333 -9 -150 -27c-51.333 -18 -97.666 -47.333 -138.999 -88c-40.667 -40 -74 -94.667 -100 -164c-26 -68 -39 -153.333 -39 -256
c0 -106.667 15 -193.334 45 -260.001c27.333 -69.333 63 -123.333 107 -162c22.667 -18.667 47 -34.334 73 -47.001c24.667 -14.667 50 -26.334 76 -35.001c52 -16 105.333 -24 160 -24c143.333 -1.33301 268 54.667 374 168l-151 129v0
c-66.667 -67.333 -142.334 -101 -227.001 -101c-72.667 0 -131.334 22 -176.001 66c-48 43.333 -72 106.666 -72 189.999h647zM293 612.004c4 80.667 25.666 141.667 64.999 183c40 39.333 91.333 59 154 59s114 -19.667 154 -59
c40.667 -41.333 62.334 -102.333 65.001 -183h-438z" />
    <glyph glyph-name="f" unicode="f" horiz-adv-x="569" 
d="M168 0l209 0.000976562v879h209v159h-209v137c-2.66699 59.333 27.333 88 90 86h119v197h-135c-80.667 0 -147.667 -21.667 -201 -65c-54.667 -46.667 -82 -119.334 -82 -218.001v-137h-105v-159h105v-879z" />
    <glyph glyph-name="g" unicode="g" horiz-adv-x="1063" 
d="M719 109l-0.000976562 -107c-1.33301 -70.667 -23.333 -126 -66 -166c-43.333 -39.333 -100.666 -59 -171.999 -59c-38 1.33301 -74.667 11.666 -110 30.999c-34.667 17.333 -65.334 38.333 -92.001 63v0l-162 -129c99.333 -113.333 219.333 -171.333 360 -174
c122.667 0 228 37.667 316 113c87.333 73.333 132.333 188 135 344v1013h-209v-110v0c-75.333 82 -164.666 123 -267.999 123c-67.333 -1.33301 -123.333 -14.333 -168 -39c-46.667 -26 -82.334 -55.333 -107.001 -88c-27.333 -33.333 -47 -74.333 -59 -123
c-12.667 -49.333 -19 -143.666 -19 -282.999c0 -136.667 6.33301 -229.334 19 -278.001c12 -49.333 31.667 -91 59 -125c24.667 -30 60.334 -58 107.001 -84c44.667 -27.333 100.667 -41.666 168 -42.999c110 2.66699 199.333 43 268 121v0zM306.999 518
c0 80.667 2.66699 136.667 8 168c4.66699 31.333 15.667 56.666 33 75.999c14 18.667 35.333 37 64 55c27.333 15.333 61.333 23.666 102 24.999c40.667 -1.33301 74.667 -9.66602 102 -24.999c27.333 -18 48 -36.333 62 -55c17.333 -19.333 29 -44.666 35 -75.999
c4 -31.333 6 -87.333 6 -168c0 -79.333 -2 -134 -6 -164c-6 -31.333 -17.667 -57.333 -35 -78c-14 -18.667 -34.667 -35.667 -62 -51c-27.333 -18.667 -61.333 -28 -102 -28s-74.667 9.33301 -102 28c-28.667 15.333 -50 32.333 -64 51
c-17.333 20.667 -28.333 46.667 -33 78c-5.33301 30 -8 84.667 -8 164v0z" />
    <glyph glyph-name="h" unicode="h" horiz-adv-x="1100" 
d="M135 0h209v618c0 72.667 19.667 128 59 166c38.667 38.667 88 58 148 58s109 -19.333 147 -58c38.667 -38 58 -93.333 58 -166v-618h209v690c-3.33301 118.667 -40.333 208.667 -111 270c-71.333 60.667 -150 91 -236 91c-111.333 0 -201.333 -41 -270 -123h-4v530h-209
v-1458z" />
    <glyph glyph-name="i" unicode="i" horiz-adv-x="491" 
d="M141 0h209v1038h-209v-1038zM141 1249h209v209h-209v-209z" />
    <glyph glyph-name="j" unicode="j" horiz-adv-x="528" 
d="M162 -113c-1.33301 -73.333 -40.333 -109.999 -117 -109.999h-59v-197h82c90 1.33301 163 28.666 219 81.999c54.667 52 82.667 121.667 84 209v1167h-209v-1151zM162 1249h209v209h-209v-209z" />
    <glyph glyph-name="k" unicode="k" horiz-adv-x="1063" 
d="M135 0h209v299l164 186v0l276 -485h262l-407 633l358 405h-250l-399 -487h-4v907h-209v-1458z" />
    <glyph glyph-name="l" unicode="l" horiz-adv-x="528" 
d="M135 252c0 -91.333 26 -156.333 78 -195c49.333 -38 112 -57 188 -57h93v197h-72c-52 0 -78 23.667 -78 71v1190h-209v-1206z" />
    <glyph glyph-name="m" unicode="m" horiz-adv-x="1745" 
d="M147 0l209.001 0.000976562v618c0 72.667 20 128 60 166c38 38.667 87 58 147 58s109.333 -19.333 148 -58c38 -38 57 -93.333 57 -166v-618h209v618c0 72.667 19.667 128 59 166c38.667 38.667 88 58 148 58s109 -19.333 147 -58c38 -38 57 -93.333 57 -166v-618h209
v690c-2.66699 118.667 -39.334 208.667 -110.001 270c-71.333 60.667 -150 91 -236 91c-136.667 1.33301 -245.667 -44 -327 -136v0c-36 40 -75.667 73 -119 99c-44 23.333 -102 35.666 -174 36.999c-112 0 -202.333 -41 -271 -123h-4v110h-209v-1038z" />
    <glyph glyph-name="n" unicode="n" horiz-adv-x="1100" 
d="M135 0h209v618c0 72.667 19.667 128 59 166c38.667 38.667 88 58 148 58s109 -19.333 147 -58c38.667 -38 58 -93.333 58 -166v-618h209v690c-3.33301 118.667 -40.333 208.667 -111 270c-71.333 60.667 -150 91 -236 91c-111.333 0 -201.333 -41 -270 -123h-4v110h-209
v-1038z" />
    <glyph glyph-name="o" unicode="o" 
d="M84 520c0 -109.333 9.00195 -192.666 27.002 -249.999c18.667 -57.333 47.334 -107 86.001 -149c28.667 -32.667 68.667 -62 120 -88c50.667 -28.667 115.667 -43.667 195 -45c82 1.33301 148.333 16.333 199 45c27.333 12 49.666 26.333 66.999 43
c19.333 14.667 35.666 29.667 48.999 45c41.333 42 70.666 91.667 87.999 149c16.667 57.333 25 140.666 25 249.999s-8.33301 193.333 -25 252c-17.333 57.333 -46.666 105.666 -87.999 144.999c-27.333 34.667 -66 65.667 -116 93c-50.667 26 -117 39.667 -199 41
c-79.333 -1.33301 -144.333 -15 -195 -41c-51.333 -27.333 -91.333 -58.333 -120 -93c-38.667 -39.333 -67.334 -87.666 -86.001 -144.999c-18 -58.667 -27 -142.667 -27 -252v0zM731.002 518c0 -70.667 -3.33301 -122.667 -10 -156c-6.66699 -34 -20.334 -64 -41.001 -90
c-15.333 -20 -38 -37.667 -68 -53c-28.667 -14.667 -62 -22 -100 -22c-35.333 0 -68 7.33301 -98 22c-28.667 15.333 -52 33 -70 53c-18 26 -31 56 -39 90c-8 33.333 -12 86 -12 158c0 72.667 4 126 12 160c8 32.667 21 61.334 39 86.001c18 23.333 41.333 41.666 70 54.999
c30 14 62.667 21 98 21c38 0 71.333 -7 100 -21c30 -13.333 52.667 -31.666 68 -54.999c20.667 -24.667 34.334 -53.334 41.001 -86.001c6.66699 -34 10 -88 10 -162v0z" />
    <glyph glyph-name="p" unicode="p" horiz-adv-x="1063" 
d="M135 -420l208.998 -0.000976562v531v0c38 -37.333 79.667 -66.666 125 -87.999c42 -23.333 89.667 -35 143 -35c64.667 1.33301 120 14.333 166 39c46.667 24 84.334 56 113.001 96c28.667 34 48.334 77.667 59.001 131c10 53.333 15 141.333 15 264
c0 126 -5 215.333 -15 268c-10.667 53.333 -30.334 96.333 -59.001 129c-58.667 87.333 -151.667 132.666 -279 135.999c-109.333 -3.33301 -198.666 -43.666 -267.999 -120.999v0v108h-209v-1458zM548.998 196.999c-46.667 0 -83.667 9.99902 -111 29.999
c-28.667 19.333 -49.667 44.666 -63 75.999c-12.667 31.333 -21 66.333 -25 105c-4 36.667 -6 73.334 -6 110.001c0 39.333 2 78.333 6 117c4 36.667 12.333 70.667 25 102c13.333 31.333 34.333 56.666 63 75.999c27.333 19.333 64.333 29 111 29
c49.333 0 88.333 -8.33301 117 -25c28.667 -18 49 -42.667 61 -74c13.333 -30 22.333 -64.667 27 -104c1.33301 -39.333 2 -79.666 2 -120.999c0 -39.333 -0.666992 -77.666 -2 -114.999c-4.66699 -38 -13.667 -72.667 -27 -104c-12 -30 -32.333 -54.667 -61 -74
c-28.667 -18.667 -67.667 -28 -117 -28v0z" />
    <glyph glyph-name="q" unicode="q" horiz-adv-x="1063" 
d="M719 111v-530.999h209v1458h-209v-108v0c-68.667 77.333 -158 117.666 -268 120.999c-127.333 -3.33301 -220.333 -48.666 -279 -135.999c-28.667 -32.667 -47.667 -75.667 -57 -129c-11.333 -52.667 -17 -142 -17 -268c0 -122.667 5.66699 -210.667 17 -264
c9.33301 -53.333 28.333 -97 57 -131c31.333 -40 70.333 -72 117 -96c44.667 -24.667 98.667 -37.667 162 -39c52.667 0 101.667 11.667 147 35c42 21.333 82.333 50.666 121 87.999v0zM514 197.001c-49.333 0 -87 9.33398 -113 28.001c-28.667 19.333 -49.667 44 -63 74
c-12.667 31.333 -21 66 -25 104c-4 37.333 -6 75.666 -6 114.999c0 41.333 2 81.666 6 120.999s12.333 74 25 104c13.333 31.333 34.333 56 63 74c26 16.667 63.667 25 113 25s88.333 -9.66699 117 -29s48.334 -44.666 59.001 -75.999c14 -31.333 23 -65.333 27 -102
c1.33301 -38.667 2 -77.667 2 -117c0 -36.667 -0.666992 -73.334 -2 -110.001c-4 -38.667 -13 -73.667 -27 -105c-10.667 -31.333 -30.334 -56.666 -59.001 -75.999c-28.667 -20 -67.667 -30 -117 -30v0z" />
    <glyph glyph-name="r" unicode="r" horiz-adv-x="797" 
d="M135 0h209v625c1.33301 76 23.333 131 66 165c38 34.667 83.667 52 137 52c47.333 0 93 -17.333 137 -52v0l152 181c-62 52 -134.667 78.667 -218 80c-111.333 0 -201.333 -41 -270 -123h-4v110h-209v-1038z" />
    <glyph glyph-name="s" unicode="s" horiz-adv-x="983" 
d="M166 317l-145.999 -142.999c135.333 -124 287.666 -186 456.999 -186c124.667 1.33301 227 30 307 86c80.667 54.667 121.667 132.334 123 233.001c0 86 -22.333 157 -67 213c-48 57.333 -126 90 -234 98l-172 13c-50.667 5.33301 -86 17.666 -106 36.999
c-22 17.333 -32.333 37.666 -31 60.999c0 36.667 13.667 66.667 41 90c26 23.333 71.667 35 137 35c57.333 0 108 -8.33301 152 -25c44.667 -18.667 87 -42.334 127 -71.001v0l129 151c-50.667 44 -108 79 -172 105c-33.333 12 -69 21.333 -107 28c-38 6 -81 9 -129 9
c-110.667 0 -202 -26.667 -274 -80c-74 -53.333 -111.667 -133.333 -113 -240c1.33301 -88.667 30 -157.667 86 -207c54.667 -50.667 125.667 -80 213 -88l184 -16c38.667 -1.33301 69.667 -9.66602 93 -24.999c22.667 -14.667 34 -40.667 34 -78c0 -42 -19 -74.667 -57 -98
s-87 -35 -147 -35c-134 0 -243.333 44.333 -328 133v0z" />
    <glyph glyph-name="t" unicode="t" horiz-adv-x="569" 
d="M147 1038l-103.999 -0.000976562v-159h104v-623c0 -82 24 -144.667 72 -188c46.667 -45.333 106.667 -68 180 -68h109v197h-78c-50.667 -1.33301 -75.334 24.334 -74.001 77.001v605h152v159h-152v316h-209v-316z" />
    <glyph glyph-name="u" unicode="u" horiz-adv-x="1100" 
d="M135 348c1.33301 -117.333 39.666 -206.001 114.999 -266.001c69.333 -61.333 147 -92.666 233 -93.999c110.667 0 200.334 41 269.001 123h4v-111h209v1038h-209v-618c0 -70 -19.333 -124.667 -58 -164c-38 -39.333 -87 -59 -147 -59s-109.333 19.667 -148 59
c-39.333 39.333 -59 94 -59 164v618h-209v-690z" />
    <glyph glyph-name="v" unicode="v" horiz-adv-x="909" 
d="M369 0h172l381 1038h-222l-243 -727h-4l-244 727h-221z" />
    <glyph glyph-name="w" unicode="w" horiz-adv-x="1479" 
d="M958 0h185l331 1038h-221l-198 -727h-4l-236 727h-151l-236 -727h-4l-199 727h-221l332 -1038h184l217 727h4z" />
    <glyph glyph-name="x" unicode="x" horiz-adv-x="983" 
d="M375 530l-355 -530h250l221 346v0l222 -346h249l-354 530l340 508h-250l-207 -336v0l-206 336h-250z" />
    <glyph glyph-name="y" unicode="y" horiz-adv-x="909" 
d="M358 41l-57.0029 -174c-9.33301 -30 -25.666 -52.667 -48.999 -68c-23.333 -14.667 -48.666 -22 -75.999 -22h-61v-197h69c64.667 0 122.667 14.333 174 43c50.667 30 90.334 84 119.001 162l447 1253h-222l-245 -727h-4l-246 727h-221z" />
    <glyph glyph-name="z" unicode="z" horiz-adv-x="909" 
d="M68 0h774v197h-520l520 675v166h-746v-184h492l-520 -688v-166z" />
    <glyph glyph-name="braceleft" unicode="{" horiz-adv-x="569" 
d="M29 557c53.333 -1.33301 93.334 -26.0029 120.001 -74.0029c26 -46 39 -104.667 39 -176v-289c1.33301 -70.667 22 -125.667 62 -165c38 -40 84.333 -60.667 139 -62h174v135h-100c-32.667 1.33301 -56 20 -70 56c-13.333 32.667 -20 70.667 -20 114v262
c0 48 -6.33301 88.333 -19 121c-12 32.667 -27.667 59.334 -47 80.001c-16 20.667 -33 36.334 -51 47.001c-18 9.33301 -32.333 15 -43 17v4c23.333 5.33301 54.666 28.333 93.999 69c19.333 20.667 35 47.334 47 80.001c12.667 30 19 67.667 19 113v264
c0 45.333 6.66699 85 20 119c14 32.667 37.333 49.667 70 51h100v135h-174c-54.667 0 -101 -19.667 -139 -59c-40 -40 -60.667 -96 -62 -168v-293c0 -66.667 -13 -124 -39 -172c-12 -23.333 -28.333 -41 -49 -53c-20 -14 -43.667 -21 -71 -21v-135z" />
    <glyph glyph-name="bar" unicode="|" horiz-adv-x="455" 
d="M147 -12h160v1482h-160v-1482z" />
    <glyph glyph-name="braceright" unicode="}" horiz-adv-x="569" 
d="M6 -209l174 0.00292969c57.333 1.33301 105.333 22 144 62c36.667 39.333 55.667 94.333 57 165v293c0 70 14.333 128 43 174c27.333 46.667 66.333 70.667 117 72v135c-50.667 4 -89.667 29.333 -117 76c-28.667 46.667 -43 104.667 -43 174v289
c-1.33301 72 -20.333 128 -57 168c-38.667 39.333 -86.667 59 -144 59h-174v-135h100c33.333 -1.33301 56.666 -18.333 69.999 -51c14 -34 21 -73.667 21 -119v-262c0 -46.667 7.33301 -86.334 22 -119.001c12.667 -32.667 28.334 -59.334 47.001 -80.001
c19.333 -20.667 37 -35.667 53 -45c16.667 -9.33301 29 -16 37 -20v-4c-20 -3.33301 -50 -25.333 -90 -66c-18.667 -20.667 -34.334 -47.334 -47.001 -80.001c-14.667 -32.667 -22 -71.667 -22 -117v-264c0 -43.333 -7 -81.333 -21 -114
c-13.333 -36 -36.666 -54.667 -69.999 -56h-100v-135z" />
    <glyph glyph-name="asciitilde" unicode="~" horiz-adv-x="1229" 
d="M215 362c24.667 37.333 50.668 70.999 78.001 100.999c28.667 28.667 62.667 43.667 102 45c28.667 -1.33301 61.667 -9.66602 99 -24.999c35.333 -14.667 72 -31 110 -49l119 -45c36.667 -14.667 72.667 -22 108 -22c70 1.33301 124.667 21 164 59
c40 34 70.667 73.667 92 119l-73 129v0c-22 -37.333 -47.333 -70.333 -76 -99c-28.667 -31.333 -63.667 -47.666 -105 -48.999c-26.667 0 -58.667 8.33301 -96 25c-36.667 14.667 -74 31 -112 49c-40 19.333 -78.333 35.666 -115 48.999c-39.333 12.667 -77 19 -113 19
c-66.667 -1.33301 -120.334 -20 -161.001 -56c-41.333 -36.667 -73 -77.667 -95 -123z" />
    <glyph glyph-name="exclamdown" unicode="&#xa1;" horiz-adv-x="528" 
d="M133 -420h262l-78 1098h-104zM160 829h209v209h-209v-209z" />
    <glyph glyph-name="cent" unicode="&#xa2;" horiz-adv-x="983" 
d="M498 197c-144.667 16 -217.667 123 -219 321c1.33301 200.667 74.333 308.667 219 324v-645zM498 -199l82 0.000976562v187c144.667 21.333 255.667 81.333 333 180l-153 137v0c-41.333 -54.667 -101.333 -90.667 -180 -108v645c78.667 -18 138.667 -54.333 180 -109v0
l153 137c-77.333 100 -188.333 160.333 -333 181v186h-82v-186c-114.667 -7.33301 -213 -53.333 -295 -138c-87.333 -84.667 -131.666 -216.334 -132.999 -395.001c1.33301 -176 45.666 -306.333 132.999 -391c82 -84.667 180.333 -131 295 -139v-187z" />
    <glyph glyph-name="sterling" unicode="&#xa3;" horiz-adv-x="983" 
d="M59 614l164 -0.00195312c12.667 -39.333 24.334 -77.333 35.001 -114c9.33301 -37.333 14 -71 14 -101c-1.33301 -56 -13.333 -114 -36 -174c-53.333 -1.33301 -103.333 -15 -150 -41v-196c65.333 27.333 125.333 41 180 41c53.333 -1.33301 122.333 -8.33301 207 -21
c83.333 -12 147.666 -18.667 192.999 -20c46 0 95 7.33301 147 22c52 15.333 101.667 42 149 80l-129 162v0c-31.333 -24.667 -64 -41.667 -98 -51c-35.333 -11.333 -68.666 -17 -99.999 -17c-34 0 -73 5 -117 15c-44.667 6.66699 -82.334 11.334 -113.001 14.001
c41.333 72.667 62.666 146.334 63.999 221.001c-1.33301 57.333 -13.666 117.333 -36.999 180h279v136h-330c-46.667 91.333 -70.667 192.333 -72 303c2.66699 144.667 65 218.334 187 221.001c113.333 0 174 -74.333 182 -223h209c0 125.333 -33 226.333 -99 303
c-66.667 76 -169 114.667 -307 116c-110.667 -1.33301 -200.667 -37.333 -270 -108c-72.667 -72.667 -109.667 -174.334 -111 -305.001c-1.33301 -96 22.667 -198.333 72 -307h-113v-136z" />
    <glyph glyph-name="currency" unicode="&#xa4;" horiz-adv-x="983" 
d="M31 375l108.001 -107v0l101 101v0c30 -22 67.333 -40.667 112 -56c44 -16 91.333 -24 142 -24c103.333 1.33301 187 28 251 80v0l101 -101v0l106 107l-98 100c50.667 62.667 77.334 147.334 80.001 254.001c-2.66699 105.333 -29.334 190 -80.001 254l98 100l-106 107v0
l-101 -98v0c-64 50 -147.667 75.667 -251 77c-106.667 -2.66699 -191.334 -29.334 -254.001 -80.001v0l-101 101v0l-108 -107l100 -100c-50.667 -64 -76.667 -148.667 -78 -254c1.33301 -106.667 27.333 -190.667 78 -252zM213.001 729c4 191.333 97.6689 289 281.002 293
c181.333 -4 274.666 -101.667 279.999 -293c0 -90 -25.333 -161 -76 -213c-50 -53.333 -118 -80 -204 -80c-84.667 0 -152.334 26.667 -203.001 80c-52 52 -78 123 -78 213v0z" />
    <glyph glyph-name="yen" unicode="&#xa5;" horiz-adv-x="983" 
d="M393 0h197v328h307v135h-307v137l28 55h279v135h-213l328 668h-222l-299 -647v0l-299 647h-221l328 -668h-213v-135h279l28 -55v-137h-307v-135h307v-328z" />
    <glyph glyph-name="brokenbar" unicode="&#xa6;" horiz-adv-x="455" 
d="M147 -12h160v555h-160v-555zM147 915h160v555h-160v-555z" />
    <glyph glyph-name="logicalnot.001" unicode="&#xa7;" horiz-adv-x="983" 
d="M135 -20c1.33301 -116.667 36.332 -206.998 104.999 -270.998c66.667 -66.667 147 -100.667 241 -102c105.333 1.33301 193.333 34.666 264 99.999c71.333 65.333 107.666 154.666 108.999 267.999c0 58.667 -10.333 110.667 -31 156
c-23.333 46.667 -65.666 82.334 -126.999 107.001c83.333 43.333 137.333 90.333 162 141c22 52 32.333 117.333 31 196c0 134 -27.333 228.333 -82 283c-54.667 56 -138.667 99 -252 129c-78 24.667 -132.667 48.667 -164 72c-31.333 20 -47 52 -47 96
c0 32.667 12.333 62 37 88c23.333 26 60 39.667 110 41c52 0 91 -15 117 -45c26 -31.333 39 -72.333 39 -123h184c-1.33301 120 -34.666 209.333 -99.999 268c-64 56 -144 84 -240 84c-94 -1.33301 -171.667 -31.333 -233 -90c-64 -61.333 -96.667 -141 -98 -239
c-2.66699 -108 42.333 -189.333 135 -244c-82 -34 -136 -77 -162 -129c-27.333 -53.333 -40.333 -125 -39 -215c-1.33301 -102.667 17 -181.334 55 -236.001c38.667 -57.333 113.334 -104.333 224.001 -141l78 -27c86 -25.333 142.333 -49.666 169 -72.999
c26 -24.667 38.333 -61.667 37 -111c0 -50.667 -15 -89.667 -45 -117c-30 -28.667 -68.667 -43 -116 -43c-54.667 1.33301 -96.334 18.666 -125.001 51.999c-30 31.333 -47.333 73 -52 125h-184zM490.999 334.002c-38 0 -69.3301 8 -93.9971 24
c-27.333 15.333 -47 32 -59 50c-24.667 35.333 -36.334 88.333 -35.001 159c0 48 3.33301 83.667 10 107c6 23.333 17 43.666 33 60.999c27.333 38.667 75.666 59.334 144.999 62.001c36 0 66.333 -5.66699 91 -17c24 -12 42.333 -27 55 -45
c16 -17.333 27.667 -37.666 35 -60.999c5.33301 -23.333 8 -59 8 -107c1.33301 -70.667 -10.334 -123.667 -35.001 -159c-24.667 -46.667 -76 -71.334 -154 -74.001v0z" />
    <glyph glyph-name="dieresis" unicode="&#xa8;" horiz-adv-x="491" 
d="M315 1200h222v221h-222v-221zM-45 1200h221v221h-221v-221z" />
    <glyph glyph-name="copyright" unicode="&#xa9;" horiz-adv-x="1638" 
d="M1073 600c-9.33301 -58.667 -34 -105.666 -74 -140.999c-42 -37.333 -93 -56 -153 -56c-88.667 1.33301 -159 35.666 -211 102.999c-53.333 64 -80 139.667 -80 227c0 91.333 25.333 167.666 76 228.999c50.667 60.667 121 91.667 211 93c60 0 111 -17.333 153 -52
c41.333 -34 67.333 -79 78 -135h148c-14 113.333 -55.667 197.333 -125 252c-68.667 54.667 -154 82 -256 82c-142 -1.33301 -251.333 -45 -328 -131c-78 -86 -117 -200 -117 -342c0 -138 40.333 -250 121 -336c79.333 -90 189.333 -135.667 330 -137
c203.333 2.66699 328.333 117.334 375 344.001h-148zM78 729.001c2.66699 -210 75.667 -384 219 -522c138 -143.333 312 -216.333 522 -219c210.667 2.66699 386 75.667 526 219c140.667 138 212.334 312 215.001 522c-2.66699 210 -74.334 385.333 -215.001 526
c-140 140.667 -315.333 212.334 -526 215.001c-210 -2.66699 -384 -74.334 -522 -215.001c-143.333 -140.667 -216.333 -316 -219 -526v0zM238 729.001c1.33301 177.333 57 320 167 428c106.667 109.333 244.667 164.666 414 165.999
c170.667 -1.33301 310 -56.666 418 -165.999c108 -108 162.667 -250.667 164 -428c-1.33301 -174.667 -56 -316 -164 -424c-108 -112 -247.333 -168.667 -418 -170c-169.333 1.33301 -307.333 58 -414 170c-110 108 -165.667 249.333 -167 424v0z" />
    <glyph glyph-name="ordfeminine" unicode="&#xaa;" horiz-adv-x="666" 
d="M453 840h158.997v426c-4 140.667 -105.667 208.667 -305 204c-61.333 0 -111 -5.33301 -149 -16c-40 -14 -74.333 -39.333 -103 -76l107 -90v0c10.667 18 26.334 31 47.001 39c20.667 5.33301 55.334 8 104.001 8c34.667 0 66.334 -3.33301 95.001 -10
c28.667 -8 43.667 -31.333 45 -70v-37h-230c-66.667 0 -117.667 -19 -153 -57c-38.667 -38 -58 -86.333 -58 -145c0 -48 21.333 -90.333 64 -127c42 -38.667 111.667 -58 209 -58c82 0 136.333 22.667 163 68h5v-59zM452.997 1059c1.33301 -34 -7 -58.001 -25 -72.001
c-20.667 -13.333 -63.667 -20 -129 -20c-30 0 -58 4.66699 -84 14c-12 5.33301 -21.667 12 -29 20c-9.33301 8.66699 -14 17.667 -14 27c1.33301 46.667 40.333 69.334 117 68.001h164v-37z" />
    <glyph glyph-name="Acircumflex.001" unicode="&#xab;" horiz-adv-x="983" 
d="M514 981l-418 -414l418 -413v0v208l-209 205l209 205v209v0zM887 981l-418 -414l418 -413v0v208l-209 205l209 205v209v0z" />
    <glyph glyph-name="logicalnot" unicode="&#xac;" horiz-adv-x="1229" 
d="M973 221h159v582h-1036v-160h877v-422z" />
    <glyph glyph-name="uni00AD" unicode="&#xad;" horiz-adv-x="833" 
d="M109 463h616v209h-616v-209z" />
    <glyph glyph-name="registered" unicode="&#xae;" horiz-adv-x="1638" 
d="M686 1046l135 -0.000976562c52 0 97 -7.33301 135 -22c38.667 -16.667 58.667 -50 60 -100c-1.33301 -53.333 -24 -87.666 -68 -102.999c-44.667 -13.333 -98 -19.333 -160 -18h-102v243zM539 316.999l146.999 -0.000976562v351h84l248 -351h172l-248 355
c62.667 6.66699 115.334 29 158.001 67c40.667 38.667 61.667 100.334 63 185.001c0 173.333 -99 259.333 -297 258h-327v-865zM77.999 728.998c2.66699 -210 75.667 -384 219 -522c138 -143.333 312 -216.333 522 -219c210.667 2.66699 386 75.667 526 219
c140.667 138 212.334 312 215.001 522c-2.66699 210 -74.334 385.333 -215.001 526c-140 140.667 -315.333 212.334 -526 215.001c-210 -2.66699 -384 -74.334 -522 -215.001c-143.333 -140.667 -216.333 -316 -219 -526v0zM237.999 728.998c1.33301 177.333 57 320 167 428
c106.667 109.333 244.667 164.666 414 165.999c170.667 -1.33301 310 -56.666 418 -165.999c108 -108 162.667 -250.667 164 -428c-1.33301 -174.667 -56 -316 -164 -424c-108 -112 -247.333 -168.667 -418 -170c-169.333 1.33301 -307.333 58 -414 170
c-110 108 -165.667 249.333 -167 424v0z" />
    <glyph glyph-name="macron" unicode="&#xaf;" horiz-adv-x="491" 
d="M-49 1243h590v135h-590v-135z" />
    <glyph glyph-name="degree" unicode="&#xb0;" horiz-adv-x="819" 
d="M117 1178c1.33301 -82 30 -151 86 -207s125 -84.667 207 -86c84.667 1.33301 154 30 208 86c54.667 56 82.667 125 84 207c-1.33301 84 -29.333 153.333 -84 208c-54 54.667 -123.333 82.667 -208 84c-82 -1.33301 -151 -29.333 -207 -84s-84.667 -124 -86 -208v0z
M221 1178c0 54 19.333 99 58 135c34 34 77.667 51.667 131 53c54 -1.33301 99 -19 135 -53c34 -36 51.667 -81 53 -135c-1.33301 -53.333 -19 -97.333 -53 -132c-36 -38 -81 -57 -135 -57c-53.333 0 -97 19 -131 57c-38.667 34.667 -58 78.667 -58 132v0z" />
    <glyph glyph-name="oe.001" unicode="&#xb1;" horiz-adv-x="1229" 
d="M534 283h160v297h438v159h-438v297h-160v-297h-438v-159h438v-297zM96 0h1036v160h-1036v-160z" />
    <glyph glyph-name="twosuperior" unicode="&#xb2;" horiz-adv-x="639" 
d="M31 588l576.999 0.00195312v147h-368l303 320c26 28.667 43.667 56 53 82c8 25.333 12 52.333 12 81c-1.33301 71.333 -28 131.666 -80 180.999c-53.333 46 -123.666 69.667 -210.999 71c-81.333 -1.33301 -147.333 -25.666 -198 -72.999
c-54.667 -50.667 -82 -117.667 -82 -201h172c6.66699 83.333 45 125.666 115 126.999c35.333 0 63.333 -9.66699 84 -29c18.667 -18.667 28 -44 28 -76c0 -36.667 -15 -69.334 -45 -98.001l-360 -385v-147z" />
    <glyph glyph-name="threesuperior.001" unicode="&#xb3;" horiz-adv-x="639" 
d="M233 971l76 0.000976562c42.667 0 77.667 -11 105 -33c27.333 -23.333 41.666 -54.666 42.999 -93.999c-1.33301 -36 -13.666 -64 -36.999 -84c-26 -22 -58.667 -33 -98 -33c-72.667 1.33301 -119.334 34 -140.001 98h-172c34 -165.333 134.333 -247 301 -245
c98.667 0 176 24.333 232 73c56 49.333 84.667 114.333 86 195c0 38 -8.33301 73.333 -25 106c-18 34 -48 62.667 -90 86c40.667 24.667 68.667 52.667 84 84c13.333 31.333 20 63.666 20 96.999c0 66.667 -26.333 124.667 -79 174
c-53.333 48.667 -130.666 73.667 -231.999 75c-83.333 -1.33301 -150.333 -25 -201 -71c-51.333 -46.667 -81.333 -107.667 -90 -183h172c10 37.333 27.333 64.666 52 81.999c26 16.667 54.667 25 86 25c35.333 0 64.666 -9.66699 87.999 -29c21.333 -20 32 -45.333 32 -76
c0 -34 -12.667 -60.333 -38 -79c-27.333 -22 -63.666 -33 -108.999 -33h-66v-135z" />
    <glyph glyph-name="acute" unicode="&#xb4;" horiz-adv-x="491" 
d="M88 1171h172l291 299h-275z" />
    <glyph glyph-name="mu" unicode="&#xb5;" horiz-adv-x="1100" 
d="M135 -420h209v438c45.333 -20 91.666 -30 138.999 -30c110.667 0 200.334 41 269.001 123h4v-111h209v1038h-209v-618c0 -70 -19.333 -124.667 -58 -164c-38 -39.333 -87 -59 -147 -59s-109.333 19.667 -148 59c-39.333 39.333 -59 94 -59 164v618h-209v-1458z" />
    <glyph glyph-name="florin.001" unicode="&#xb6;" horiz-adv-x="1229" 
d="M528 -379l160 -0.000976562v1702h148v-1702h159v1837h-430c-306 1.33301 -461.667 -129.667 -467 -393c1.33301 -109.333 42.333 -198.666 123 -267.999c78 -74 180.333 -111.667 307 -113v-1063z" />
    <glyph glyph-name="cedilla" unicode="&#xb8;" horiz-adv-x="491" 
d="M215 0l-128.999 -180.001l45 -39c26 16 52 23.333 78 22c28.667 0 52.667 -6 72 -18c18.667 -12 28 -31 28 -57c-2.66699 -57.333 -42.334 -86 -119.001 -86c-48.667 1.33301 -96.334 11.333 -143.001 30l-37 -86c71.333 -31.333 140.333 -47.666 207 -48.999
c70 0 129.333 16.333 178 49c48 30 72.667 78 74 144c0 43.333 -15.667 80 -47 110s-75.666 45 -132.999 45c-22 0 -40.667 -2.66699 -56 -8h-4l90 123h-104z" />
    <glyph glyph-name="onesuperior" unicode="&#xb9;" horiz-adv-x="639" 
d="M240 1290v-702h172v874h-172l-136 -90v-172v0l136 90v0z" />
    <glyph glyph-name="ordmasculine" unicode="&#xba;" horiz-adv-x="666" 
d="M31 1151c0 -61.333 4.66602 -107.666 13.999 -138.999c8 -33.333 25 -63.333 51 -90c58.667 -60.667 137.334 -91 236.001 -91c99.333 0 178.333 30.333 237 91c26 26.667 44 56.667 54 90c8 31.333 12 77.666 12 138.999s-4 108.333 -12 141c-10 32.667 -28 62 -54 88
c-58.667 60 -137 90 -235 90c-100 0 -179.333 -30 -238 -90c-26 -26 -43 -55.333 -51 -88c-9.33301 -32.667 -14 -79.667 -14 -141v0zM189.999 1151c0 36.667 2.33105 64.666 6.99805 83.999c2.66699 19.333 10.667 36.333 24 51
c24.667 31.333 62.334 47.666 113.001 48.999c49.333 -1.33301 86 -17.666 110 -48.999c22 -26 32.333 -71 31 -135c0 -35.333 -1.33301 -62 -4 -80c-4 -19.333 -13 -37.666 -27 -54.999c-24 -32.667 -61.333 -49 -112 -49c-49.333 0 -86.333 16.333 -111 49
c-23.333 26 -33.666 71 -30.999 135v0z" />
    <glyph glyph-name="Ecircumflex.001" unicode="&#xbb;" horiz-adv-x="983" 
d="M469 154l418 413l-418 414v0v-209l209 -205l-209 -205v-208zM96 154l418 413l-418 414v0v-209l209 -205l-209 -205v-208z" />
    <glyph glyph-name="onequarter" unicode="&#xbc;" horiz-adv-x="1477" 
d="M199 -35h135l882 1528h-135zM770 127h401v-127h172v127h68v147h-68v226h-172v-226h-223l311 596h-172l-317 -596v-147zM240 1290v-702h172v874h-172l-136 -90v-172v0l136 90v0z" />
    <glyph glyph-name="onehalf" unicode="&#xbd;" horiz-adv-x="1477" 
d="M147 -35h136l882 1528h-135zM833 0h577.999v147h-369l303 320c26 28.667 44 56 54 82c8 26 12 53.333 12 82c-1.33301 70.667 -28 130.667 -80 180c-53.333 46.667 -123.666 70.667 -210.999 72c-82 -1.33301 -148 -26 -198 -74c-54.667 -50.667 -82 -117.667 -82 -201
h172c6.66699 83.333 44.667 125.666 114 126.999c36 0 64 -9.33301 84 -28c19.333 -19.333 29 -44.666 29 -75.999c0 -37.333 -15 -70.333 -45 -99l-361 -385v-147zM239.999 1290v-702h172v874h-172l-136 -90v-172v0l136 90v0z" />
    <glyph glyph-name="threequarters" unicode="&#xbe;" horiz-adv-x="1477" 
d="M260 -35h135l883 1528h-135zM770 127h401v-127h172v127h68v147h-68v226h-172v-226h-223l311 596h-172l-317 -596v-147zM233 971l76 0.000976562c42.667 0 77.667 -11 105 -33c27.333 -23.333 41.666 -54.666 42.999 -93.999c-1.33301 -36 -13.666 -64 -36.999 -84
c-26 -22 -58.667 -33 -98 -33c-72.667 1.33301 -119.334 34 -140.001 98h-172c34 -165.333 134.333 -247 301 -245c98.667 0 176 24.333 232 73c56 49.333 84.667 114.333 86 195c0 38 -8.33301 73.333 -25 106c-18 34 -48 62.667 -90 86c40.667 24.667 68.667 52.667 84 84
c13.333 31.333 20 63.666 20 96.999c0 66.667 -26.333 124.667 -79 174c-53.333 48.667 -130.666 73.667 -231.999 75c-83.333 -1.33301 -150.333 -25 -201 -71c-51.333 -46.667 -81.333 -107.667 -90 -183h172c10 37.333 27.333 64.666 52 81.999
c26 16.667 54.667 25 86 25c35.333 0 64.666 -9.66699 87.999 -29c21.333 -20 32 -45.333 32 -76c0 -34 -12.667 -60.333 -38 -79c-27.333 -22 -63.666 -33 -108.999 -33h-66v-135z" />
    <glyph glyph-name="questiondown" unicode="&#xbf;" horiz-adv-x="948" 
d="M393 561c1.33301 -50.667 -10.332 -93.665 -34.999 -128.998l-186 -256c-44 -57.333 -66 -129 -66 -215c2 -120 43 -215 123 -285c78 -70.667 169 -106.667 273 -108c108 1.33301 198.667 39.666 272 114.999c75.333 72 113.666 164 114.999 276v41h-209
c-1.33301 -80.667 -19.666 -138 -54.999 -172c-36 -34 -80.667 -51 -134 -51c-40.667 1.33301 -79.334 18.333 -116.001 51c-38.667 31.333 -58.667 75 -60 131c0 44 17.333 89 52 135l182 254c22 31.333 37 62.666 45 93.999c5.33301 30 8 64.333 8 103v133h-209v-117z
M393.002 829.002h209v209h-209v-209z" />
    <glyph glyph-name="Agrave" unicode="&#xc0;" horiz-adv-x="1249" 
d="M412 522l211 637h4l211 -637h-426zM1014 0h233l-530 1458h-185l-530 -1458h234l112 326h553zM618 1529h172l-188 299h-274z" />
    <glyph glyph-name="Aacute" unicode="&#xc1;" horiz-adv-x="1249" 
d="M412 522l211 637h4l211 -637h-426zM1014 0h233l-530 1458h-185l-530 -1458h234l112 326h553zM482 1529h172l291 299h-275z" />
    <glyph glyph-name="Acircumflex" unicode="&#xc2;" horiz-adv-x="1249" 
d="M412 522l211 637h4l211 -637h-426zM1014 0h233l-530 1458h-185l-530 -1458h234l112 326h553zM634 1705l137 -176h197l-218 299h-233l-217 -299h197l137 176v0z" />
    <glyph glyph-name="Atilde" unicode="&#xc3;" horiz-adv-x="1249" 
d="M412 522l211 637h4l211 -637h-426zM1014 0h233l-530 1458h-185l-530 -1458h234l112 326h553zM391 1550c0 34 10.999 57.9961 32.999 71.9961c20.667 10.667 38.334 16 53.001 16c42.667 -1.33301 89.667 -13.666 141 -36.999c24.667 -9.33301 50.667 -17.666 78 -24.999
c26 -9.33301 51.333 -14 76 -14c69.333 1.33301 122 26 158 74c35.333 44.667 57.666 99.334 66.999 164.001h-123c-6.66699 -36 -18.667 -60 -36 -72c-19.333 -13.333 -39.333 -19.333 -60 -18c-20.667 0 -41 4.66699 -61 14c-22 6.66699 -45.333 15.667 -70 27
c-23.333 10.667 -47.333 19.334 -72 26.001c-24 6.66699 -49 10 -75 10c-63.333 0 -114.666 -21 -153.999 -63c-40.667 -44 -66.667 -102 -78 -174h123z" />
    <glyph glyph-name="Adieresis" unicode="&#xc4;" horiz-adv-x="1249" 
d="M412 522l211 637h4l211 -637h-426zM1014 0h233l-530 1458h-185l-530 -1458h234l112 326h553zM705 1558h222v221h-222v-221zM345 1558h221v221h-221v-221z" />
    <glyph glyph-name="Aring" unicode="&#xc5;" horiz-adv-x="1249" 
d="M412 522l211 637h4l211 -637h-426zM1014 0h233l-530 1458h-185l-530 -1458h234l112 326h553zM427 1710c0 -58.667 21 -108 63 -148c40 -42 89.333 -63 148 -63c61.333 0 111.666 21 150.999 63c38.667 40 58.667 89.333 60 148
c-1.33301 61.333 -21.333 111.666 -60 150.999c-39.333 38 -89.666 58 -150.999 60c-58.667 -2 -108 -22 -148 -60c-42 -39.333 -63 -89.666 -63 -150.999v0zM509 1710c0 38 13 68.667 39 92c24 23.333 54 35.666 90 36.999c38 -1.33301 68.667 -13.666 92 -36.999
s35.666 -54 36.999 -92c-1.33301 -36 -13.666 -66.333 -36.999 -91c-23.333 -25.333 -54 -38 -92 -38c-36 0 -66 12.667 -90 38c-26 24.667 -39 55 -39 91v0z" />
    <glyph glyph-name="Atilde.001" unicode="&#xc6;" horiz-adv-x="1857" 
d="M872 0h932v209h-710v428h606v196h-606v416h710v209h-1034l-793 -1458h234l176 326h485v-326zM491 522l377 739h4v-739h-381z" />
    <glyph glyph-name="Ccedilla" unicode="&#xc7;" horiz-adv-x="1139" 
d="M471 -180l45.002 -39.002c26 16 52 23.333 78 22c28.667 0 52.667 -6 72 -18c18.667 -12 28 -31 28 -57c-2.66699 -57.333 -42.334 -86 -119.001 -86c-48.667 1.33301 -96.334 11.333 -143.001 30l-37 -86c71.333 -31.333 140.333 -47.666 207 -48.999
c70 0 129.333 16.333 178 49c48 30 72.667 78 74 144c0 43.333 -15.667 80 -47 110s-75.666 45 -132.999 45c-22 0 -40.667 -2.66699 -56 -8h-4l86 115c228 31.333 373.667 170 437 416h-234c-61.333 -132.667 -154 -199 -278 -199c-52 0 -96.667 11 -134 33
c-38 18.667 -68.667 43 -92 73c-28.667 31.333 -47.667 72.333 -57 123c-10.667 50.667 -16 147.667 -16 291s5.33301 241 16 293c9.33301 49.333 28.333 89.666 57 120.999c23.333 30 54 55 92 75c37.333 19.333 82 29.666 134 30.999
c70.667 -1.33301 130.667 -21.666 180 -60.999c47.333 -41.333 80 -91.333 98 -150h234c-23.333 122 -79.333 224.333 -168 307c-88.667 82 -203.334 123.667 -344.001 125c-114.667 -1.33301 -210.334 -28.666 -287.001 -81.999c-78 -52.667 -134.667 -112.667 -170 -180
c-22 -35.333 -38.333 -81.666 -49 -138.999c-10 -57.333 -15 -170.666 -15 -339.999c0 -166.667 5 -279.334 15 -338.001c5.33301 -31.333 12 -57.333 20 -78c8.66699 -20 18.334 -41 29.001 -63c35.333 -61.333 88.666 -118 159.999 -170
c70.667 -52 159.334 -82.667 266.001 -92z" />
    <glyph glyph-name="Egrave" unicode="&#xc8;" horiz-adv-x="1139" 
d="M154 0h931v209h-710v428h606v196h-606v416h710v209h-931v-1458zM621 1529h172l-188 299h-274z" />
    <glyph glyph-name="Eacute" unicode="&#xc9;" horiz-adv-x="1139" 
d="M154 0h931v209h-710v428h606v196h-606v416h710v209h-931v-1458zM482 1529h172l291 299h-275z" />
    <glyph glyph-name="Ecircumflex" unicode="&#xca;" horiz-adv-x="1139" 
d="M154 0h931v209h-710v428h606v196h-606v416h710v209h-931v-1458zM635 1705l137 -176h197l-218 299h-233l-217 -299h197l137 176v0z" />
    <glyph glyph-name="Edieresis" unicode="&#xcb;" horiz-adv-x="1139" 
d="M154 0h931v209h-710v428h606v196h-606v416h710v209h-931v-1458zM705 1558h222v221h-222v-221zM345 1558h221v221h-221v-221z" />
    <glyph glyph-name="Igrave" unicode="&#xcc;" horiz-adv-x="528" 
d="M154 0h221v1458h-221v-1458zM243 1529h172l-188 299h-274z" />
    <glyph glyph-name="Iacute" unicode="&#xcd;" horiz-adv-x="528" 
d="M154 0h221v1458h-221v-1458zM106 1529h172l291 299h-275z" />
    <glyph glyph-name="Icircumflex" unicode="&#xce;" horiz-adv-x="528" 
d="M154 0h221v1458h-221v-1458zM258 1705l137 -176h197l-218 299h-233l-217 -299h197l137 176v0z" />
    <glyph glyph-name="Idieresis" unicode="&#xcf;" horiz-adv-x="528" 
d="M154 0h221v1458h-221v-1458zM329 1558h222v221h-222v-221zM-31 1558h221v221h-221v-221z" />
    <glyph glyph-name="Eth" unicode="&#xd0;" horiz-adv-x="1290" 
d="M154 0l495 -0.000976562c109.333 0 201.666 24 276.999 72c76 44.667 135.333 101.334 178 170.001c16 26 29.667 51 41 75c10.667 24.667 18.667 52.667 24 84c11.333 62 17 171.333 17 328c0 147.333 -3.66699 251 -11 311c-9.33301 60 -31.666 117.333 -66.999 172
c-98.667 162.667 -246.667 244.667 -444 246h-510v-625h-154v-196h154v-637zM375 832.999l0.000976562 416.001h264c112 2.66699 198.667 -38.333 260 -123c30 -34 49 -78.333 57 -133c6 -54.667 9 -145.334 9 -272.001c0 -130 -3 -218.667 -9 -266
c-6.66699 -48 -22.334 -87.667 -47.001 -119c-56 -84.667 -146 -127 -270 -127h-264v428h278v196h-278z" />
    <glyph glyph-name="Ntilde" unicode="&#xd1;" horiz-adv-x="1401" 
d="M154 0h221v1036h4l659 -1036h209v1458h-221v-1036h-4l-660 1036h-208v-1458zM464 1550c0 34 10.999 57.9961 32.999 71.9961c20.667 10.667 38.334 16 53.001 16c42.667 -1.33301 89.667 -13.666 141 -36.999c24.667 -9.33301 50.667 -17.666 78 -24.999
c26 -9.33301 51.333 -14 76 -14c69.333 1.33301 122 26 158 74c35.333 44.667 57.666 99.334 66.999 164.001h-123c-6.66699 -36 -18.667 -60 -36 -72c-19.333 -13.333 -39.333 -19.333 -60 -18c-20.667 0 -41 4.66699 -61 14c-22 6.66699 -45.333 15.667 -70 27
c-23.333 10.667 -47.333 19.334 -72 26.001c-24 6.66699 -49 10 -75 10c-63.333 0 -114.666 -21 -153.999 -63c-40.667 -44 -66.667 -102 -78 -174h123z" />
    <glyph glyph-name="Ograve" unicode="&#xd2;" horiz-adv-x="1249" 
d="M104 729c0 -166.667 4.99902 -279.334 14.999 -338.001c5.33301 -31.333 12 -57.333 20 -78c8.66699 -20 18.334 -41 29.001 -63c35.333 -67.333 92 -126.666 170 -177.999c76.667 -53.333 172.334 -81.333 287.001 -84c116 2.66699 212.667 30.667 290 84
c76.667 51.333 132 110.666 166 177.999c24.667 35.333 41.667 82.333 51 141c8.66699 58.667 13 171.334 13 338.001c0 169.333 -4.33301 282.666 -13 339.999c-9.33301 57.333 -26.333 103.666 -51 138.999c-34 67.333 -89.333 127.333 -166 180
c-77.333 53.333 -174 80.666 -290 81.999c-114.667 -1.33301 -210.334 -28.666 -287.001 -81.999c-78 -52.667 -134.667 -112.667 -170 -180c-22 -35.333 -38.333 -81.666 -49 -138.999c-10 -57.333 -15 -170.666 -15 -339.999v0zM325.999 729c0 143.333 5.33301 241 16 293
c9.33301 49.333 28.333 89.666 57 120.999c23.333 30 54 55 92 75c37.333 19.333 82 29.666 134 30.999c52.667 -1.33301 98.334 -11.666 137.001 -30.999c36.667 -20 66 -45 88 -75c28.667 -31.333 48.334 -71.666 59.001 -120.999c10 -52 15 -149.667 15 -293
s-5 -240.333 -15 -291c-10.667 -50.667 -30.334 -91.667 -59.001 -123c-22 -30 -51.333 -54.333 -88 -73c-38.667 -22 -84.334 -33 -137.001 -33c-52 0 -96.667 11 -134 33c-38 18.667 -68.667 43 -92 73c-28.667 31.333 -47.667 72.333 -57 123
c-10.667 50.667 -16 147.667 -16 291v0zM615.999 1529h172l-188 299h-274z" />
    <glyph glyph-name="Oacute" unicode="&#xd3;" horiz-adv-x="1249" 
d="M104 729c0 -166.667 4.99902 -279.334 14.999 -338.001c5.33301 -31.333 12 -57.333 20 -78c8.66699 -20 18.334 -41 29.001 -63c35.333 -67.333 92 -126.666 170 -177.999c76.667 -53.333 172.334 -81.333 287.001 -84c116 2.66699 212.667 30.667 290 84
c76.667 51.333 132 110.666 166 177.999c24.667 35.333 41.667 82.333 51 141c8.66699 58.667 13 171.334 13 338.001c0 169.333 -4.33301 282.666 -13 339.999c-9.33301 57.333 -26.333 103.666 -51 138.999c-34 67.333 -89.333 127.333 -166 180
c-77.333 53.333 -174 80.666 -290 81.999c-114.667 -1.33301 -210.334 -28.666 -287.001 -81.999c-78 -52.667 -134.667 -112.667 -170 -180c-22 -35.333 -38.333 -81.666 -49 -138.999c-10 -57.333 -15 -170.666 -15 -339.999v0zM325.999 729c0 143.333 5.33301 241 16 293
c9.33301 49.333 28.333 89.666 57 120.999c23.333 30 54 55 92 75c37.333 19.333 82 29.666 134 30.999c52.667 -1.33301 98.334 -11.666 137.001 -30.999c36.667 -20 66 -45 88 -75c28.667 -31.333 48.334 -71.666 59.001 -120.999c10 -52 15 -149.667 15 -293
s-5 -240.333 -15 -291c-10.667 -50.667 -30.334 -91.667 -59.001 -123c-22 -30 -51.333 -54.333 -88 -73c-38.667 -22 -84.334 -33 -137.001 -33c-52 0 -96.667 11 -134 33c-38 18.667 -68.667 43 -92 73c-28.667 31.333 -47.667 72.333 -57 123
c-10.667 50.667 -16 147.667 -16 291v0zM476.999 1529h172l291 299h-275z" />
    <glyph glyph-name="Ocircumflex" unicode="&#xd4;" horiz-adv-x="1249" 
d="M104 729c0 -166.667 4.99902 -279.334 14.999 -338.001c5.33301 -31.333 12 -57.333 20 -78c8.66699 -20 18.334 -41 29.001 -63c35.333 -67.333 92 -126.666 170 -177.999c76.667 -53.333 172.334 -81.333 287.001 -84c116 2.66699 212.667 30.667 290 84
c76.667 51.333 132 110.666 166 177.999c24.667 35.333 41.667 82.333 51 141c8.66699 58.667 13 171.334 13 338.001c0 169.333 -4.33301 282.666 -13 339.999c-9.33301 57.333 -26.333 103.666 -51 138.999c-34 67.333 -89.333 127.333 -166 180
c-77.333 53.333 -174 80.666 -290 81.999c-114.667 -1.33301 -210.334 -28.666 -287.001 -81.999c-78 -52.667 -134.667 -112.667 -170 -180c-22 -35.333 -38.333 -81.666 -49 -138.999c-10 -57.333 -15 -170.666 -15 -339.999v0zM325.999 729c0 143.333 5.33301 241 16 293
c9.33301 49.333 28.333 89.666 57 120.999c23.333 30 54 55 92 75c37.333 19.333 82 29.666 134 30.999c52.667 -1.33301 98.334 -11.666 137.001 -30.999c36.667 -20 66 -45 88 -75c28.667 -31.333 48.334 -71.666 59.001 -120.999c10 -52 15 -149.667 15 -293
s-5 -240.333 -15 -291c-10.667 -50.667 -30.334 -91.667 -59.001 -123c-22 -30 -51.333 -54.333 -88 -73c-38.667 -22 -84.334 -33 -137.001 -33c-52 0 -96.667 11 -134 33c-38 18.667 -68.667 43 -92 73c-28.667 31.333 -47.667 72.333 -57 123
c-10.667 50.667 -16 147.667 -16 291v0zM628.999 1705l137 -176h197l-218 299h-233l-217 -299h197l137 176v0z" />
    <glyph glyph-name="Otilde" unicode="&#xd5;" horiz-adv-x="1249" 
d="M104 729c0 -166.667 4.99902 -279.334 14.999 -338.001c5.33301 -31.333 12 -57.333 20 -78c8.66699 -20 18.334 -41 29.001 -63c35.333 -67.333 92 -126.666 170 -177.999c76.667 -53.333 172.334 -81.333 287.001 -84c116 2.66699 212.667 30.667 290 84
c76.667 51.333 132 110.666 166 177.999c24.667 35.333 41.667 82.333 51 141c8.66699 58.667 13 171.334 13 338.001c0 169.333 -4.33301 282.666 -13 339.999c-9.33301 57.333 -26.333 103.666 -51 138.999c-34 67.333 -89.333 127.333 -166 180
c-77.333 53.333 -174 80.666 -290 81.999c-114.667 -1.33301 -210.334 -28.666 -287.001 -81.999c-78 -52.667 -134.667 -112.667 -170 -180c-22 -35.333 -38.333 -81.666 -49 -138.999c-10 -57.333 -15 -170.666 -15 -339.999v0zM325.999 729c0 143.333 5.33301 241 16 293
c9.33301 49.333 28.333 89.666 57 120.999c23.333 30 54 55 92 75c37.333 19.333 82 29.666 134 30.999c52.667 -1.33301 98.334 -11.666 137.001 -30.999c36.667 -20 66 -45 88 -75c28.667 -31.333 48.334 -71.666 59.001 -120.999c10 -52 15 -149.667 15 -293
s-5 -240.333 -15 -291c-10.667 -50.667 -30.334 -91.667 -59.001 -123c-22 -30 -51.333 -54.333 -88 -73c-38.667 -22 -84.334 -33 -137.001 -33c-52 0 -96.667 11 -134 33c-38 18.667 -68.667 43 -92 73c-28.667 31.333 -47.667 72.333 -57 123
c-10.667 50.667 -16 147.667 -16 291v0zM387.999 1550c0 34 10.999 57.9961 32.999 71.9961c20.667 10.667 38.334 16 53.001 16c42.667 -1.33301 89.667 -13.666 141 -36.999c24.667 -9.33301 50.667 -17.666 78 -24.999c26 -9.33301 51.333 -14 76 -14
c69.333 1.33301 122 26 158 74c35.333 44.667 57.666 99.334 66.999 164.001h-123c-6.66699 -36 -18.667 -60 -36 -72c-19.333 -13.333 -39.333 -19.333 -60 -18c-20.667 0 -41 4.66699 -61 14c-22 6.66699 -45.333 15.667 -70 27c-23.333 10.667 -47.333 19.334 -72 26.001
c-24 6.66699 -49 10 -75 10c-63.333 0 -114.666 -21 -153.999 -63c-40.667 -44 -66.667 -102 -78 -174h123z" />
    <glyph glyph-name="Odieresis" unicode="&#xd6;" horiz-adv-x="1249" 
d="M104 729c0 -166.667 4.99902 -279.334 14.999 -338.001c5.33301 -31.333 12 -57.333 20 -78c8.66699 -20 18.334 -41 29.001 -63c35.333 -67.333 92 -126.666 170 -177.999c76.667 -53.333 172.334 -81.333 287.001 -84c116 2.66699 212.667 30.667 290 84
c76.667 51.333 132 110.666 166 177.999c24.667 35.333 41.667 82.333 51 141c8.66699 58.667 13 171.334 13 338.001c0 169.333 -4.33301 282.666 -13 339.999c-9.33301 57.333 -26.333 103.666 -51 138.999c-34 67.333 -89.333 127.333 -166 180
c-77.333 53.333 -174 80.666 -290 81.999c-114.667 -1.33301 -210.334 -28.666 -287.001 -81.999c-78 -52.667 -134.667 -112.667 -170 -180c-22 -35.333 -38.333 -81.666 -49 -138.999c-10 -57.333 -15 -170.666 -15 -339.999v0zM325.999 729c0 143.333 5.33301 241 16 293
c9.33301 49.333 28.333 89.666 57 120.999c23.333 30 54 55 92 75c37.333 19.333 82 29.666 134 30.999c52.667 -1.33301 98.334 -11.666 137.001 -30.999c36.667 -20 66 -45 88 -75c28.667 -31.333 48.334 -71.666 59.001 -120.999c10 -52 15 -149.667 15 -293
s-5 -240.333 -15 -291c-10.667 -50.667 -30.334 -91.667 -59.001 -123c-22 -30 -51.333 -54.333 -88 -73c-38.667 -22 -84.334 -33 -137.001 -33c-52 0 -96.667 11 -134 33c-38 18.667 -68.667 43 -92 73c-28.667 31.333 -47.667 72.333 -57 123
c-10.667 50.667 -16 147.667 -16 291v0zM699.999 1558h222v221h-222v-221zM339.999 1558h221v221h-221v-221z" />
    <glyph glyph-name="multiply" unicode="&#xd7;" horiz-adv-x="1229" 
d="M137 156l113 -113v0l364 367v0l363 -367v0l115 113l-367 362l367 365l-115 114v0l-363 -366v0l-364 366v0l-113 -114l367 -365z" />
    <glyph glyph-name="Oslash" unicode="&#xd8;" horiz-adv-x="1249" 
d="M127 -51l94 -51.001v0l103 184v0c80 -61.333 180.333 -92.666 301 -93.999c116 2.66699 212.667 30.667 290 84c76.667 51.333 132 110.666 166 177.999c24.667 35.333 41.667 82.333 51 141c8.66699 58.667 13 171.334 13 338.001
c0 169.333 -4.33301 282.666 -13 339.999c-9.33301 57.333 -26.333 103.666 -51 138.999c-17.333 34 -41.666 67.667 -72.999 101l110 200l-94 51v0l-100 -180v0c-80.667 58.667 -180.334 88.667 -299.001 90c-114.667 -1.33301 -210.334 -28.666 -287.001 -81.999
c-78 -52.667 -134.667 -112.667 -170 -180c-22 -35.333 -38.333 -81.666 -49 -138.999c-10 -57.333 -15 -170.666 -15 -339.999c0 -166.667 5 -279.334 15 -338.001c5.33301 -31.333 12 -57.333 20 -78c8.66699 -20 18.334 -41 29.001 -63c18 -30 42 -62.667 72 -98z
M362 372.999c-13.333 26 -22.667 65.334 -28 118.001c-5.33301 52 -8 131.333 -8 238c0 143.333 5.33301 241 16 293c9.33301 49.333 28.333 89.666 57 120.999c23.333 30 54 55 92 75c37.333 19.333 82 29.666 134 30.999c77.333 -1.33301 140 -23.666 188 -66.999z
M884.999 1089c16 -25.333 26.6689 -64 32.002 -116c4.66699 -52 7 -133.333 7 -244c0 -143.333 -5 -240.333 -15 -291c-10.667 -50.667 -30.334 -91.667 -59.001 -123c-22 -30 -51.333 -54.333 -88 -73c-38.667 -22 -84.334 -33 -137.001 -33
c-82 1.33301 -145.667 25.333 -191 72z" />
    <glyph glyph-name="Ugrave" unicode="&#xd9;" horiz-adv-x="1290" 
d="M127 494c1.33301 -153.333 51.999 -275 151.999 -365c98 -92.667 220 -139.667 366 -141c148.667 1.33301 271.667 48.333 369 141c96.667 90 146.334 211.667 149.001 365v964h-221v-940c-1.33301 -99.333 -29.333 -175 -84 -227c-56 -54.667 -127 -82 -213 -82
s-156.333 27.333 -211 82c-56 52 -84.667 127.667 -86 227v940h-221v-964zM636.999 1529h172l-188 299h-274z" />
    <glyph glyph-name="Uacute" unicode="&#xda;" horiz-adv-x="1290" 
d="M127 494c1.33301 -153.333 51.999 -275 151.999 -365c98 -92.667 220 -139.667 366 -141c148.667 1.33301 271.667 48.333 369 141c96.667 90 146.334 211.667 149.001 365v964h-221v-940c-1.33301 -99.333 -29.333 -175 -84 -227c-56 -54.667 -127 -82 -213 -82
s-156.333 27.333 -211 82c-56 52 -84.667 127.667 -86 227v940h-221v-964zM497.999 1529h172l291 299h-275z" />
    <glyph glyph-name="Ucircumflex" unicode="&#xdb;" horiz-adv-x="1290" 
d="M127 494c1.33301 -153.333 51.999 -275 151.999 -365c98 -92.667 220 -139.667 366 -141c148.667 1.33301 271.667 48.333 369 141c96.667 90 146.334 211.667 149.001 365v964h-221v-940c-1.33301 -99.333 -29.333 -175 -84 -227c-56 -54.667 -127 -82 -213 -82
s-156.333 27.333 -211 82c-56 52 -84.667 127.667 -86 227v940h-221v-964zM649.999 1705l137 -176h197l-218 299h-233l-217 -299h197l137 176v0z" />
    <glyph glyph-name="Udieresis" unicode="&#xdc;" horiz-adv-x="1290" 
d="M127 494c1.33301 -153.333 51.999 -275 151.999 -365c98 -92.667 220 -139.667 366 -141c148.667 1.33301 271.667 48.333 369 141c96.667 90 146.334 211.667 149.001 365v964h-221v-940c-1.33301 -99.333 -29.333 -175 -84 -227c-56 -54.667 -127 -82 -213 -82
s-156.333 27.333 -211 82c-56 52 -84.667 127.667 -86 227v940h-221v-964zM720.999 1558h222v221h-222v-221zM360.999 1558h221v221h-221v-221z" />
    <glyph glyph-name="Yacute" unicode="&#xdd;" 
d="M408 0h208v600l439 858h-234l-309 -647v0l-309 647h-234l439 -858v-600zM366 1529h172l291 299h-275z" />
    <glyph glyph-name="Thorn" unicode="&#xde;" horiz-adv-x="1214" 
d="M375 995l329 -0.000976562c76.667 -1.33301 136.334 -26.666 179.001 -75.999c42 -47.333 63 -100.333 63 -159c0 -57.333 -21 -110 -63 -158c-20.667 -22 -45.334 -40.333 -74.001 -55c-28.667 -15.333 -62.667 -23 -102 -23h-332v471zM154 -0.000976562h221v315h336
c150 2.66699 264 50.667 342 144c76 88.667 114 189 114 301s-38 213 -114 303c-78 91.333 -192 138.333 -342 141h-336v254h-221v-1458z" />
    <glyph glyph-name="germandbls" unicode="&#xdf;" horiz-adv-x="1100" 
d="M524 987l124.998 0.00195312c32.667 0 59.334 8.83301 80.001 26.5s31 49.167 31 94.5c0 58 -15.5 98 -46.5 120s-79.5 33 -145.5 33c-42 0 -77.333 -2.5 -106 -7.5s-52 -12.833 -70 -23.5s-31 -24.334 -39 -41.001s-12.333 -36.334 -13 -59.001v-1130h-209v1130
c0.666992 57.333 11.834 107.333 33.501 150s51.834 78 90.501 106s84.5 49 137.5 63s111.167 21 174.5 21c59.333 -0.666992 113.5 -8.83398 162.5 -24.501s91.167 -38.167 126.5 -67.5s62.833 -65.333 82.5 -108s29.834 -91.334 30.501 -146.001
c-1.33301 -113.333 -51.333 -190.333 -150 -231c100 -41.333 150 -117 150 -227v-371c-0.666992 -41.333 -7.83398 -79.833 -21.501 -115.5s-33 -66.667 -58 -93s-55.167 -47.166 -90.5 -62.499s-75 -23.333 -119 -24h-129v197h74c49.333 0 84.166 7.83301 104.499 23.5
s30.5 43.834 30.5 84.501v365c0 40 -9.16699 70 -27.5 90s-47.5 30 -87.5 30h-121v197z" />
    <glyph glyph-name="agrave" unicode="&#xe0;" 
d="M680 0l209 -0.00292969v709c-1.33301 126.667 -41 216 -119 268c-78 50.667 -182.333 75.334 -313 74.001c-154.667 2.66699 -271.667 -48 -351 -152l164 -125v0c18 30 42.667 51.333 74 64c30 10.667 71 16 123 16c143.333 2.66699 214.333 -41.666 213 -132.999v-109
h-289c-110.667 -1.33301 -194.667 -31.333 -252 -90c-57.333 -57.333 -86 -129.666 -86 -216.999c0 -91.333 33 -166.333 99 -225c62.667 -60 152 -90.667 268 -92c70.667 0 126 8.66699 166 26c40.667 16.667 70.667 42.667 90 78h4v-92zM680 364.997
c0 -78 -16.333 -128.001 -49 -150.001c-36 -22 -97.667 -32.333 -185 -31c-69.333 0 -119 13.667 -149 41c-31.333 24.667 -47 54.667 -47 90c-1.33301 80.667 58.667 122.334 180 125.001h250v-75zM502 1171h172l-188 299h-274z" />
    <glyph glyph-name="aacute" unicode="&#xe1;" 
d="M680 0l209 -0.00292969v709c-1.33301 126.667 -41 216 -119 268c-78 50.667 -182.333 75.334 -313 74.001c-154.667 2.66699 -271.667 -48 -351 -152l164 -125v0c18 30 42.667 51.333 74 64c30 10.667 71 16 123 16c143.333 2.66699 214.333 -41.666 213 -132.999v-109
h-289c-110.667 -1.33301 -194.667 -31.333 -252 -90c-57.333 -57.333 -86 -129.666 -86 -216.999c0 -91.333 33 -166.333 99 -225c62.667 -60 152 -90.667 268 -92c70.667 0 126 8.66699 166 26c40.667 16.667 70.667 42.667 90 78h4v-92zM680 364.997
c0 -78 -16.333 -128.001 -49 -150.001c-36 -22 -97.667 -32.333 -185 -31c-69.333 0 -119 13.667 -149 41c-31.333 24.667 -47 54.667 -47 90c-1.33301 80.667 58.667 122.334 180 125.001h250v-75zM363 1171h172l291 299h-275z" />
    <glyph glyph-name="acircumflex" unicode="&#xe2;" 
d="M680 0l209 -0.00292969v709c-1.33301 126.667 -41 216 -119 268c-78 50.667 -182.333 75.334 -313 74.001c-154.667 2.66699 -271.667 -48 -351 -152l164 -125v0c18 30 42.667 51.333 74 64c30 10.667 71 16 123 16c143.333 2.66699 214.333 -41.666 213 -132.999v-109
h-289c-110.667 -1.33301 -194.667 -31.333 -252 -90c-57.333 -57.333 -86 -129.666 -86 -216.999c0 -91.333 33 -166.333 99 -225c62.667 -60 152 -90.667 268 -92c70.667 0 126 8.66699 166 26c40.667 16.667 70.667 42.667 90 78h4v-92zM680 364.997
c0 -78 -16.333 -128.001 -49 -150.001c-36 -22 -97.667 -32.333 -185 -31c-69.333 0 -119 13.667 -149 41c-31.333 24.667 -47 54.667 -47 90c-1.33301 80.667 58.667 122.334 180 125.001h250v-75zM516 1347l137 -176h197l-218 299h-233l-217 -299h197l137 176v0z" />
    <glyph glyph-name="atilde" unicode="&#xe3;" 
d="M680 0l209 -0.00292969v709c-1.33301 126.667 -41 216 -119 268c-78 50.667 -182.333 75.334 -313 74.001c-154.667 2.66699 -271.667 -48 -351 -152l164 -125v0c18 30 42.667 51.333 74 64c30 10.667 71 16 123 16c143.333 2.66699 214.333 -41.666 213 -132.999v-109
h-289c-110.667 -1.33301 -194.667 -31.333 -252 -90c-57.333 -57.333 -86 -129.666 -86 -216.999c0 -91.333 33 -166.333 99 -225c62.667 -60 152 -90.667 268 -92c70.667 0 126 8.66699 166 26c40.667 16.667 70.667 42.667 90 78h4v-92zM680 364.997
c0 -78 -16.333 -128.001 -49 -150.001c-36 -22 -97.667 -32.333 -185 -31c-69.333 0 -119 13.667 -149 41c-31.333 24.667 -47 54.667 -47 90c-1.33301 80.667 58.667 122.334 180 125.001h250v-75zM273 1192c0 34 10.999 57.9961 32.999 71.9961
c20.667 10.667 38.334 16 53.001 16c42.667 -1.33301 89.667 -13.666 141 -36.999c24.667 -9.33301 50.667 -17.666 78 -24.999c26 -9.33301 51.333 -14 76 -14c69.333 1.33301 122 26 158 74c35.333 44.667 57.666 99.334 66.999 164.001h-123
c-6.66699 -36 -18.667 -60 -36 -72c-19.333 -13.333 -39.333 -19.333 -60 -18c-20.667 0 -41 4.66699 -61 14c-22 6.66699 -45.333 15.667 -70 27c-23.333 10.667 -47.333 19.334 -72 26.001c-24 6.66699 -49 10 -75 10c-63.333 0 -114.666 -21 -153.999 -63
c-40.667 -44 -66.667 -102 -78 -174h123z" />
    <glyph glyph-name="adieresis" unicode="&#xe4;" 
d="M680 0l209 -0.00292969v709c-1.33301 126.667 -41 216 -119 268c-78 50.667 -182.333 75.334 -313 74.001c-154.667 2.66699 -271.667 -48 -351 -152l164 -125v0c18 30 42.667 51.333 74 64c30 10.667 71 16 123 16c143.333 2.66699 214.333 -41.666 213 -132.999v-109
h-289c-110.667 -1.33301 -194.667 -31.333 -252 -90c-57.333 -57.333 -86 -129.666 -86 -216.999c0 -91.333 33 -166.333 99 -225c62.667 -60 152 -90.667 268 -92c70.667 0 126 8.66699 166 26c40.667 16.667 70.667 42.667 90 78h4v-92zM680 364.997
c0 -78 -16.333 -128.001 -49 -150.001c-36 -22 -97.667 -32.333 -185 -31c-69.333 0 -119 13.667 -149 41c-31.333 24.667 -47 54.667 -47 90c-1.33301 80.667 58.667 122.334 180 125.001h250v-75zM586 1200h222v221h-222v-221zM226 1200h221v221h-221v-221z" />
    <glyph glyph-name="aring" unicode="&#xe5;" 
d="M680 0l209 -0.00292969v709c-1.33301 126.667 -41 216 -119 268c-78 50.667 -182.333 75.334 -313 74.001c-154.667 2.66699 -271.667 -48 -351 -152l164 -125v0c18 30 42.667 51.333 74 64c30 10.667 71 16 123 16c143.333 2.66699 214.333 -41.666 213 -132.999v-109
h-289c-110.667 -1.33301 -194.667 -31.333 -252 -90c-57.333 -57.333 -86 -129.666 -86 -216.999c0 -91.333 33 -166.333 99 -225c62.667 -60 152 -90.667 268 -92c70.667 0 126 8.66699 166 26c40.667 16.667 70.667 42.667 90 78h4v-92zM680 364.997
c0 -78 -16.333 -128.001 -49 -150.001c-36 -22 -97.667 -32.333 -185 -31c-69.333 0 -119 13.667 -149 41c-31.333 24.667 -47 54.667 -47 90c-1.33301 80.667 58.667 122.334 180 125.001h250v-75zM309 1352c0 -58.667 21 -108 63 -148c40 -42 89.333 -63 148 -63
c61.333 0 111.666 21 150.999 63c38.667 40 58.667 89.333 60 148c-1.33301 61.333 -21.333 111.666 -60 150.999c-39.333 38 -89.666 58 -150.999 60c-58.667 -2 -108 -22 -148 -60c-42 -39.333 -63 -89.666 -63 -150.999v0zM391 1352c0 38 13 68.667 39 92
c24 23.333 54 35.666 90 36.999c38 -1.33301 68.667 -13.666 92 -36.999s35.666 -54 36.999 -92c-1.33301 -36 -13.666 -66.333 -36.999 -91c-23.333 -25.333 -54 -38 -92 -38c-36 0 -66 12.667 -90 38c-26 24.667 -39 55 -39 91v0z" />
    <glyph glyph-name="ae" unicode="&#xe6;" horiz-adv-x="1593" 
d="M256 774c18 30 42.6689 51.3291 74.002 63.9961c30 10.667 71 16 123 16c143.333 2.66699 214.333 -41.666 213 -132.999v-109h-316c-100.667 -1.33301 -177 -32.666 -229 -93.999c-54.667 -60 -82 -131 -82 -213c1.33301 -102 38 -180.333 110 -235
c71.333 -53.333 162.333 -80.666 273 -81.999c61.333 0 122 12.333 182 37c58.667 22.667 108 63.334 148 122.001v0c48.667 -60 103 -101.333 163 -124c58.667 -23.333 125 -35 199 -35c143.333 -1.33301 268.333 54.667 375 168l-152 129v0
c-66.667 -67.333 -142.334 -101 -227.001 -101c-72.667 0 -131.334 22 -176.001 66c-48 43.333 -72 106.666 -72 189.999h647v172c-1.33301 136.667 -43.666 244 -126.999 322c-82 76.667 -182.333 115.667 -301 117c-57.333 0 -113.333 -11.667 -168 -35
c-56 -23.333 -100.333 -55.666 -133 -96.999v0c-62.667 89.333 -175.334 133.333 -338.001 132c-154 2.66699 -270.667 -48 -350 -152zM666.002 439.996l-0.000976562 -75.001c0 -78 -16.667 -128 -50 -150c-35.333 -22 -96.666 -32.333 -183.999 -31
c-69.333 0 -119 13.667 -149 41c-31.333 24.667 -47 54.667 -47 90c-2 80.667 58 122.334 180 125.001h250zM862.001 611.995c4 80.667 25.999 141.667 65.999 183c39.333 39.333 90.333 59 153 59s114 -19.667 154 -59c40.667 -41.333 62.334 -102.333 65.001 -183h-438z
" />
    <glyph glyph-name="ccedilla" unicode="&#xe7;" horiz-adv-x="909" 
d="M367 -180l45.001 -39c26 16 51.667 23.333 77 22c28.667 0 52.667 -6 72 -18s29 -31 29 -57c-2.66699 -57.333 -42.334 -86 -119.001 -86c-49.333 1.33301 -97 11.333 -143 30l-37 -86c70.667 -31.333 139.667 -47.666 207 -48.999c69.333 0 128.666 16.333 177.999 49
c47.333 30 72 78 74 144c0 43.333 -16 80 -48 110c-31.333 30 -75.666 45 -132.999 45c-21.333 0 -39.666 -2.66699 -54.999 -8h-4l86 113c125.333 26 226.333 85.333 303 178l-154 137v0c-52.667 -70.667 -123 -106.667 -211 -108
c-177.333 -3.33301 -267.333 103.667 -270 321c2.66699 218.667 92.667 326.667 270 324c88 -2.66699 158.333 -39 211 -109v0l154 137c-45.333 54.667 -98.666 98.334 -159.999 131.001c-61.333 32 -132.333 48.667 -213 50
c-122.667 1.33301 -230.334 -39.667 -323.001 -123c-96 -84.667 -145.333 -221.334 -148 -410.001c1.33301 -177.333 45.666 -308.333 132.999 -393c84.667 -84.667 185 -130.334 301 -137.001z" />
    <glyph glyph-name="egrave" unicode="&#xe8;" 
d="M940 440v172.004c-1.33301 136.667 -43.666 244 -126.999 322c-82 76.667 -182.333 115.667 -301 117c-49.333 0 -99.333 -9 -150 -27c-51.333 -18 -97.666 -47.333 -138.999 -88c-40.667 -40 -74 -94.667 -100 -164c-26 -68 -39 -153.333 -39 -256
c0 -106.667 15 -193.334 45 -260.001c27.333 -69.333 63 -123.333 107 -162c22.667 -18.667 47 -34.334 73 -47.001c24.667 -14.667 50 -26.334 76 -35.001c52 -16 105.333 -24 160 -24c143.333 -1.33301 268 54.667 374 168l-151 129v0
c-66.667 -67.333 -142.334 -101 -227.001 -101c-72.667 0 -131.334 22 -176.001 66c-48 43.333 -72 106.666 -72 189.999h647zM293 612.004c4 80.667 25.666 141.667 64.999 183c40 39.333 91.333 59 154 59s114 -19.667 154 -59
c40.667 -41.333 62.334 -102.333 65.001 -183h-438zM500.999 1171h172l-188 299h-274z" />
    <glyph glyph-name="eacute" unicode="&#xe9;" 
d="M940 440v172.004c-1.33301 136.667 -43.666 244 -126.999 322c-82 76.667 -182.333 115.667 -301 117c-49.333 0 -99.333 -9 -150 -27c-51.333 -18 -97.666 -47.333 -138.999 -88c-40.667 -40 -74 -94.667 -100 -164c-26 -68 -39 -153.333 -39 -256
c0 -106.667 15 -193.334 45 -260.001c27.333 -69.333 63 -123.333 107 -162c22.667 -18.667 47 -34.334 73 -47.001c24.667 -14.667 50 -26.334 76 -35.001c52 -16 105.333 -24 160 -24c143.333 -1.33301 268 54.667 374 168l-151 129v0
c-66.667 -67.333 -142.334 -101 -227.001 -101c-72.667 0 -131.334 22 -176.001 66c-48 43.333 -72 106.666 -72 189.999h647zM293 612.004c4 80.667 25.666 141.667 64.999 183c40 39.333 91.333 59 154 59s114 -19.667 154 -59
c40.667 -41.333 62.334 -102.333 65.001 -183h-438zM361.999 1171h172l291 299h-275z" />
    <glyph glyph-name="ecircumflex" unicode="&#xea;" 
d="M940 440v172.004c-1.33301 136.667 -43.666 244 -126.999 322c-82 76.667 -182.333 115.667 -301 117c-49.333 0 -99.333 -9 -150 -27c-51.333 -18 -97.666 -47.333 -138.999 -88c-40.667 -40 -74 -94.667 -100 -164c-26 -68 -39 -153.333 -39 -256
c0 -106.667 15 -193.334 45 -260.001c27.333 -69.333 63 -123.333 107 -162c22.667 -18.667 47 -34.334 73 -47.001c24.667 -14.667 50 -26.334 76 -35.001c52 -16 105.333 -24 160 -24c143.333 -1.33301 268 54.667 374 168l-151 129v0
c-66.667 -67.333 -142.334 -101 -227.001 -101c-72.667 0 -131.334 22 -176.001 66c-48 43.333 -72 106.666 -72 189.999h647zM293 612.004c4 80.667 25.666 141.667 64.999 183c40 39.333 91.333 59 154 59s114 -19.667 154 -59
c40.667 -41.333 62.334 -102.333 65.001 -183h-438zM514.999 1347l137 -176h197l-218 299h-233l-217 -299h197l137 176v0z" />
    <glyph glyph-name="edieresis" unicode="&#xeb;" 
d="M940 440v172.004c-1.33301 136.667 -43.666 244 -126.999 322c-82 76.667 -182.333 115.667 -301 117c-49.333 0 -99.333 -9 -150 -27c-51.333 -18 -97.666 -47.333 -138.999 -88c-40.667 -40 -74 -94.667 -100 -164c-26 -68 -39 -153.333 -39 -256
c0 -106.667 15 -193.334 45 -260.001c27.333 -69.333 63 -123.333 107 -162c22.667 -18.667 47 -34.334 73 -47.001c24.667 -14.667 50 -26.334 76 -35.001c52 -16 105.333 -24 160 -24c143.333 -1.33301 268 54.667 374 168l-151 129v0
c-66.667 -67.333 -142.334 -101 -227.001 -101c-72.667 0 -131.334 22 -176.001 66c-48 43.333 -72 106.666 -72 189.999h647zM293 612.004c4 80.667 25.666 141.667 64.999 183c40 39.333 91.333 59 154 59s114 -19.667 154 -59
c40.667 -41.333 62.334 -102.333 65.001 -183h-438zM584.999 1200h222v221h-222v-221zM224.999 1200h221v221h-221v-221z" />
    <glyph glyph-name="igrave" unicode="&#xec;" horiz-adv-x="491" 
d="M141 0h209v1038h-209v-1038zM224 1171h172l-188 299h-274z" />
    <glyph glyph-name="iacute" unicode="&#xed;" horiz-adv-x="491" 
d="M141 0h209v1038h-209v-1038zM88 1171h172l291 299h-275z" />
    <glyph glyph-name="icircumflex" unicode="&#xee;" horiz-adv-x="491" 
d="M141 0h209v1038h-209v-1038zM240 1347l137 -176h197l-218 299h-233l-217 -299h197l137 176v0z" />
    <glyph glyph-name="idieresis" unicode="&#xef;" horiz-adv-x="491" 
d="M141 0h209v1038h-209v-1038zM311 1200h222v221h-222v-221zM-49 1200h221v221h-221v-221z" />
    <glyph glyph-name="eth" unicode="&#xf0;" 
d="M731 518c0 -70.667 -3.33301 -122.667 -10 -156c-6.66699 -34 -20.334 -64 -41.001 -90c-15.333 -20 -38 -37.667 -68 -53c-28.667 -14.667 -62 -22 -100 -22c-35.333 0 -68 7.33301 -98 22c-28.667 15.333 -52 33 -70 53c-18 26 -31 56 -39 90c-8 33.333 -12 86 -12 158
c0 72.667 4 126 12 160c8 32.667 21 61.334 39 86.001c18 23.333 41.333 41.666 70 54.999c30 14 62.667 21 98 21c38 0 71.333 -7 100 -21c30 -13.333 52.667 -31.666 68 -54.999c20.667 -24.667 34.334 -53.334 41.001 -86.001c6.66699 -34 10 -88 10 -162v0zM385 1106
l207 105.998v0c64 -62.667 107 -146 129 -250l-4 -4c-31.333 36 -65.666 60.667 -102.999 74c-39.333 12.667 -79.333 19 -120 19c-71.333 -1.33301 -131.666 -15 -180.999 -41c-48.667 -27.333 -87.334 -58.333 -116.001 -93
c-38.667 -39.333 -67.334 -87.666 -86.001 -144.999c-18 -58.667 -27 -142.667 -27 -252s9 -192.666 27 -249.999c18.667 -57.333 47.334 -107 86.001 -149c28.667 -32.667 68.667 -62 120 -88c50.667 -28.667 115.667 -43.667 195 -45c82 1.33301 148.333 16.333 199 45
c27.333 12 49.666 26.333 66.999 43c19.333 14.667 35.666 29.667 48.999 45c48 50.667 79.667 105.334 95 164.001c13.333 57.333 19.333 146.666 18 267.999c1.33301 203.333 -7 357 -25 461c-21.333 103.333 -71 199.333 -149 288l184 97l-78 112v0l-213 -110v0
c-76 58.667 -175.667 106.334 -299 143.001v0l-65 -154c70.667 -22.667 131.334 -50.334 182.001 -83.001l-170 -89z" />
    <glyph glyph-name="ntilde" unicode="&#xf1;" horiz-adv-x="1100" 
d="M135 0h209v618c0 72.667 19.667 128 59 166c38.667 38.667 88 58 148 58s109 -19.333 147 -58c38.667 -38 58 -93.333 58 -166v-618h209v690c-3.33301 118.667 -40.333 208.667 -111 270c-71.333 60.667 -150 91 -236 91c-111.333 0 -201.333 -41 -270 -123h-4v110h-209
v-1038zM310 1192c0 34 10.999 57.9961 32.999 71.9961c20.667 10.667 38.334 16 53.001 16c42.667 -1.33301 89.667 -13.666 141 -36.999c24.667 -9.33301 50.667 -17.666 78 -24.999c26 -9.33301 51.333 -14 76 -14c69.333 1.33301 122 26 158 74
c35.333 44.667 57.666 99.334 66.999 164.001h-123c-6.66699 -36 -18.667 -60 -36 -72c-19.333 -13.333 -39.333 -19.333 -60 -18c-20.667 0 -41 4.66699 -61 14c-22 6.66699 -45.333 15.667 -70 27c-23.333 10.667 -47.333 19.334 -72 26.001c-24 6.66699 -49 10 -75 10
c-63.333 0 -114.666 -21 -153.999 -63c-40.667 -44 -66.667 -102 -78 -174h123z" />
    <glyph glyph-name="ograve" unicode="&#xf2;" 
d="M84 520c0 -109.333 9.00195 -192.666 27.002 -249.999c18.667 -57.333 47.334 -107 86.001 -149c28.667 -32.667 68.667 -62 120 -88c50.667 -28.667 115.667 -43.667 195 -45c82 1.33301 148.333 16.333 199 45c27.333 12 49.666 26.333 66.999 43
c19.333 14.667 35.666 29.667 48.999 45c41.333 42 70.666 91.667 87.999 149c16.667 57.333 25 140.666 25 249.999s-8.33301 193.333 -25 252c-17.333 57.333 -46.666 105.666 -87.999 144.999c-27.333 34.667 -66 65.667 -116 93c-50.667 26 -117 39.667 -199 41
c-79.333 -1.33301 -144.333 -15 -195 -41c-51.333 -27.333 -91.333 -58.333 -120 -93c-38.667 -39.333 -67.334 -87.666 -86.001 -144.999c-18 -58.667 -27 -142.667 -27 -252v0zM731.002 518c0 -70.667 -3.33301 -122.667 -10 -156c-6.66699 -34 -20.334 -64 -41.001 -90
c-15.333 -20 -38 -37.667 -68 -53c-28.667 -14.667 -62 -22 -100 -22c-35.333 0 -68 7.33301 -98 22c-28.667 15.333 -52 33 -70 53c-18 26 -31 56 -39 90c-8 33.333 -12 86 -12 158c0 72.667 4 126 12 160c8 32.667 21 61.334 39 86.001c18 23.333 41.333 41.666 70 54.999
c30 14 62.667 21 98 21c38 0 71.333 -7 100 -21c30 -13.333 52.667 -31.666 68 -54.999c20.667 -24.667 34.334 -53.334 41.001 -86.001c6.66699 -34 10 -88 10 -162v0zM501.002 1171h172l-188 299h-274z" />
    <glyph glyph-name="oacute" unicode="&#xf3;" 
d="M84 520c0 -109.333 9.00195 -192.666 27.002 -249.999c18.667 -57.333 47.334 -107 86.001 -149c28.667 -32.667 68.667 -62 120 -88c50.667 -28.667 115.667 -43.667 195 -45c82 1.33301 148.333 16.333 199 45c27.333 12 49.666 26.333 66.999 43
c19.333 14.667 35.666 29.667 48.999 45c41.333 42 70.666 91.667 87.999 149c16.667 57.333 25 140.666 25 249.999s-8.33301 193.333 -25 252c-17.333 57.333 -46.666 105.666 -87.999 144.999c-27.333 34.667 -66 65.667 -116 93c-50.667 26 -117 39.667 -199 41
c-79.333 -1.33301 -144.333 -15 -195 -41c-51.333 -27.333 -91.333 -58.333 -120 -93c-38.667 -39.333 -67.334 -87.666 -86.001 -144.999c-18 -58.667 -27 -142.667 -27 -252v0zM731.002 518c0 -70.667 -3.33301 -122.667 -10 -156c-6.66699 -34 -20.334 -64 -41.001 -90
c-15.333 -20 -38 -37.667 -68 -53c-28.667 -14.667 -62 -22 -100 -22c-35.333 0 -68 7.33301 -98 22c-28.667 15.333 -52 33 -70 53c-18 26 -31 56 -39 90c-8 33.333 -12 86 -12 158c0 72.667 4 126 12 160c8 32.667 21 61.334 39 86.001c18 23.333 41.333 41.666 70 54.999
c30 14 62.667 21 98 21c38 0 71.333 -7 100 -21c30 -13.333 52.667 -31.666 68 -54.999c20.667 -24.667 34.334 -53.334 41.001 -86.001c6.66699 -34 10 -88 10 -162v0zM362.002 1171h172l291 299h-275z" />
    <glyph glyph-name="ocircumflex" unicode="&#xf4;" 
d="M84 520c0 -109.333 9.00195 -192.666 27.002 -249.999c18.667 -57.333 47.334 -107 86.001 -149c28.667 -32.667 68.667 -62 120 -88c50.667 -28.667 115.667 -43.667 195 -45c82 1.33301 148.333 16.333 199 45c27.333 12 49.666 26.333 66.999 43
c19.333 14.667 35.666 29.667 48.999 45c41.333 42 70.666 91.667 87.999 149c16.667 57.333 25 140.666 25 249.999s-8.33301 193.333 -25 252c-17.333 57.333 -46.666 105.666 -87.999 144.999c-27.333 34.667 -66 65.667 -116 93c-50.667 26 -117 39.667 -199 41
c-79.333 -1.33301 -144.333 -15 -195 -41c-51.333 -27.333 -91.333 -58.333 -120 -93c-38.667 -39.333 -67.334 -87.666 -86.001 -144.999c-18 -58.667 -27 -142.667 -27 -252v0zM731.002 518c0 -70.667 -3.33301 -122.667 -10 -156c-6.66699 -34 -20.334 -64 -41.001 -90
c-15.333 -20 -38 -37.667 -68 -53c-28.667 -14.667 -62 -22 -100 -22c-35.333 0 -68 7.33301 -98 22c-28.667 15.333 -52 33 -70 53c-18 26 -31 56 -39 90c-8 33.333 -12 86 -12 158c0 72.667 4 126 12 160c8 32.667 21 61.334 39 86.001c18 23.333 41.333 41.666 70 54.999
c30 14 62.667 21 98 21c38 0 71.333 -7 100 -21c30 -13.333 52.667 -31.666 68 -54.999c20.667 -24.667 34.334 -53.334 41.001 -86.001c6.66699 -34 10 -88 10 -162v0zM515.002 1347l137 -176h197l-218 299h-233l-217 -299h197l137 176v0z" />
    <glyph glyph-name="otilde" unicode="&#xf5;" 
d="M84 520c0 -109.333 9.00195 -192.666 27.002 -249.999c18.667 -57.333 47.334 -107 86.001 -149c28.667 -32.667 68.667 -62 120 -88c50.667 -28.667 115.667 -43.667 195 -45c82 1.33301 148.333 16.333 199 45c27.333 12 49.666 26.333 66.999 43
c19.333 14.667 35.666 29.667 48.999 45c41.333 42 70.666 91.667 87.999 149c16.667 57.333 25 140.666 25 249.999s-8.33301 193.333 -25 252c-17.333 57.333 -46.666 105.666 -87.999 144.999c-27.333 34.667 -66 65.667 -116 93c-50.667 26 -117 39.667 -199 41
c-79.333 -1.33301 -144.333 -15 -195 -41c-51.333 -27.333 -91.333 -58.333 -120 -93c-38.667 -39.333 -67.334 -87.666 -86.001 -144.999c-18 -58.667 -27 -142.667 -27 -252v0zM731.002 518c0 -70.667 -3.33301 -122.667 -10 -156c-6.66699 -34 -20.334 -64 -41.001 -90
c-15.333 -20 -38 -37.667 -68 -53c-28.667 -14.667 -62 -22 -100 -22c-35.333 0 -68 7.33301 -98 22c-28.667 15.333 -52 33 -70 53c-18 26 -31 56 -39 90c-8 33.333 -12 86 -12 158c0 72.667 4 126 12 160c8 32.667 21 61.334 39 86.001c18 23.333 41.333 41.666 70 54.999
c30 14 62.667 21 98 21c38 0 71.333 -7 100 -21c30 -13.333 52.667 -31.666 68 -54.999c20.667 -24.667 34.334 -53.334 41.001 -86.001c6.66699 -34 10 -88 10 -162v0zM271.002 1192c0 34 10.999 57.9961 32.999 71.9961c20.667 10.667 38.334 16 53.001 16
c42.667 -1.33301 89.667 -13.666 141 -36.999c24.667 -9.33301 50.667 -17.666 78 -24.999c26 -9.33301 51.333 -14 76 -14c69.333 1.33301 122 26 158 74c35.333 44.667 57.666 99.334 66.999 164.001h-123c-6.66699 -36 -18.667 -60 -36 -72
c-19.333 -13.333 -39.333 -19.333 -60 -18c-20.667 0 -41 4.66699 -61 14c-22 6.66699 -45.333 15.667 -70 27c-23.333 10.667 -47.333 19.334 -72 26.001c-24 6.66699 -49 10 -75 10c-63.333 0 -114.666 -21 -153.999 -63c-40.667 -44 -66.667 -102 -78 -174h123z" />
    <glyph glyph-name="odieresis" unicode="&#xf6;" 
d="M84 520c0 -109.333 9.00195 -192.666 27.002 -249.999c18.667 -57.333 47.334 -107 86.001 -149c28.667 -32.667 68.667 -62 120 -88c50.667 -28.667 115.667 -43.667 195 -45c82 1.33301 148.333 16.333 199 45c27.333 12 49.666 26.333 66.999 43
c19.333 14.667 35.666 29.667 48.999 45c41.333 42 70.666 91.667 87.999 149c16.667 57.333 25 140.666 25 249.999s-8.33301 193.333 -25 252c-17.333 57.333 -46.666 105.666 -87.999 144.999c-27.333 34.667 -66 65.667 -116 93c-50.667 26 -117 39.667 -199 41
c-79.333 -1.33301 -144.333 -15 -195 -41c-51.333 -27.333 -91.333 -58.333 -120 -93c-38.667 -39.333 -67.334 -87.666 -86.001 -144.999c-18 -58.667 -27 -142.667 -27 -252v0zM731.002 518c0 -70.667 -3.33301 -122.667 -10 -156c-6.66699 -34 -20.334 -64 -41.001 -90
c-15.333 -20 -38 -37.667 -68 -53c-28.667 -14.667 -62 -22 -100 -22c-35.333 0 -68 7.33301 -98 22c-28.667 15.333 -52 33 -70 53c-18 26 -31 56 -39 90c-8 33.333 -12 86 -12 158c0 72.667 4 126 12 160c8 32.667 21 61.334 39 86.001c18 23.333 41.333 41.666 70 54.999
c30 14 62.667 21 98 21c38 0 71.333 -7 100 -21c30 -13.333 52.667 -31.666 68 -54.999c20.667 -24.667 34.334 -53.334 41.001 -86.001c6.66699 -34 10 -88 10 -162v0zM585.002 1200h222v221h-222v-221zM225.002 1200h221v221h-221v-221z" />
    <glyph glyph-name="divide" unicode="&#xf7;" horiz-adv-x="1229" 
d="M96 438h1036v160h-1036v-160zM477 942c0 -38 13.667 -70 41 -96c26 -27.333 58 -41 96 -41c40 0 73 13.667 99 41c26 26 39 58 39 96c0 39.333 -13 72 -39 98s-59 39 -99 39c-38 0 -70 -13 -96 -39c-27.333 -26 -41 -58.667 -41 -98v0zM477 94c0 -38 13.667 -70 41 -96
c26 -26 58 -39.667 96 -41c40 1.33301 73 15 99 41s39 58 39 96c0 40 -13 72.667 -39 98c-26 26 -59 39 -99 39c-38 0 -70 -13 -96 -39c-27.333 -25.333 -41 -58 -41 -98v0z" />
    <glyph glyph-name="oslash" unicode="&#xf8;" 
d="M326 303c-12.667 20.667 -21 47.333 -25 80c-5.33301 31.333 -8 77 -8 137c0 72.667 4 126 12 160c8 32.667 21 61.334 39 86.001c18 23.333 41.333 41.666 70 54.999c30 14 62.667 21 98 21c40.667 0 76.667 -9 108 -27zM117 -61.001l90.0049 -54.0029v0l92 158v0
c53.333 -35.333 124.333 -53.666 213 -54.999c82 1.33301 148.333 16.333 199 45c27.333 12 49.666 26.333 66.999 43c19.333 14.667 35.666 29.667 48.999 45c41.333 42 70.666 91.667 87.999 149c16.667 57.333 25 140.666 25 249.999c0 58.667 -2 109.334 -6 152.001
c-4 43.333 -11.667 80 -23 110c-20 58.667 -53.333 109.334 -100 152.001l96 166l-90 53v0l-90 -156c-54.667 34.667 -126.334 52.667 -215.001 54c-79.333 -1.33301 -144.333 -15 -195 -41c-51.333 -27.333 -91.333 -58.333 -120 -93
c-38.667 -39.333 -67.334 -87.666 -86.001 -144.999c-18 -58.667 -27 -142.667 -27 -252c-1.33301 -94 7 -174.333 25 -241c17.333 -67.333 52 -125 104 -173zM698.005 736.996c12.667 -20 21.667 -46 27 -78c4 -32.667 6 -79.667 6 -141
c0 -70.667 -3.33301 -122.667 -10 -156c-6.66699 -34 -20.334 -64 -41.001 -90c-15.333 -20 -38 -37.667 -68 -53c-28.667 -14.667 -62 -22 -100 -22c-39.333 0 -75.666 9.33301 -108.999 28z" />
    <glyph glyph-name="ugrave" unicode="&#xf9;" horiz-adv-x="1100" 
d="M135 348c1.33301 -117.333 39.666 -206.001 114.999 -266.001c69.333 -61.333 147 -92.666 233 -93.999c110.667 0 200.334 41 269.001 123h4v-111h209v1038h-209v-618c0 -70 -19.333 -124.667 -58 -164c-38 -39.333 -87 -59 -147 -59s-109.333 19.667 -148 59
c-39.333 39.333 -59 94 -59 164v618h-209v-690zM526 1171h172l-188 299h-274z" />
    <glyph glyph-name="uacute" unicode="&#xfa;" horiz-adv-x="1100" 
d="M135 348c1.33301 -117.333 39.666 -206.001 114.999 -266.001c69.333 -61.333 147 -92.666 233 -93.999c110.667 0 200.334 41 269.001 123h4v-111h209v1038h-209v-618c0 -70 -19.333 -124.667 -58 -164c-38 -39.333 -87 -59 -147 -59s-109.333 19.667 -148 59
c-39.333 39.333 -59 94 -59 164v618h-209v-690zM389 1171h172l291 299h-275z" />
    <glyph glyph-name="ucircumflex" unicode="&#xfb;" horiz-adv-x="1100" 
d="M135 348c1.33301 -117.333 39.666 -206.001 114.999 -266.001c69.333 -61.333 147 -92.666 233 -93.999c110.667 0 200.334 41 269.001 123h4v-111h209v1038h-209v-618c0 -70 -19.333 -124.667 -58 -164c-38 -39.333 -87 -59 -147 -59s-109.333 19.667 -148 59
c-39.333 39.333 -59 94 -59 164v618h-209v-690zM542 1347l137 -176h197l-218 299h-233l-217 -299h197l137 176v0z" />
    <glyph glyph-name="udieresis" unicode="&#xfc;" horiz-adv-x="1100" 
d="M135 348c1.33301 -117.333 39.666 -206.001 114.999 -266.001c69.333 -61.333 147 -92.666 233 -93.999c110.667 0 200.334 41 269.001 123h4v-111h209v1038h-209v-618c0 -70 -19.333 -124.667 -58 -164c-38 -39.333 -87 -59 -147 -59s-109.333 19.667 -148 59
c-39.333 39.333 -59 94 -59 164v618h-209v-690zM612 1200h222v221h-222v-221zM252 1200h221v221h-221v-221z" />
    <glyph glyph-name="yacute.001" unicode="&#xfd;" horiz-adv-x="909" 
d="M358 41l-57.0029 -174c-9.33301 -30 -25.666 -52.667 -48.999 -68c-23.333 -14.667 -48.666 -22 -75.999 -22h-61v-197h69c64.667 0 122.667 14.333 174 43c50.667 30 90.334 84 119.001 162l447 1253h-222l-245 -727h-4l-246 727h-221zM305.997 1171h172l291 299h-275z
" />
    <glyph glyph-name="thorn" unicode="&#xfe;" horiz-adv-x="1063" 
d="M135 -420l208.998 -0.000976562v531v0c38 -37.333 79.667 -66.666 125 -87.999c42 -23.333 89.667 -35 143 -35c64.667 1.33301 120 14.333 166 39c46.667 24 84.334 56 113.001 96c28.667 34 48.334 77.667 59.001 131c10 53.333 15 141.333 15 264
c0 126 -5 215.333 -15 268c-10.667 53.333 -30.334 96.333 -59.001 129c-58.667 87.333 -151.667 132.666 -279 135.999c-109.333 -3.33301 -198.666 -43.666 -267.999 -120.999v0v528h-209v-1878zM548.998 196.999c-46.667 0 -83.667 9.99902 -111 29.999
c-28.667 19.333 -49.667 44.666 -63 75.999c-12.667 31.333 -21 66.333 -25 105c-4 36.667 -6 73.334 -6 110.001c0 39.333 2 78.333 6 117c4 36.667 12.333 70.667 25 102c13.333 31.333 34.333 56.666 63 75.999c27.333 19.333 64.333 29 111 29
c49.333 0 88.333 -8.33301 117 -25c28.667 -18 49 -42.667 61 -74c13.333 -30 22.333 -64.667 27 -104c1.33301 -39.333 2 -79.666 2 -120.999c0 -39.333 -0.666992 -77.666 -2 -114.999c-4.66699 -38 -13.667 -72.667 -27 -104c-12 -30 -32.333 -54.667 -61 -74
c-28.667 -18.667 -67.667 -28 -117 -28v0z" />
    <glyph glyph-name="ydieresis" unicode="&#xff;" horiz-adv-x="909" 
d="M358 41l-57.0029 -174c-9.33301 -30 -25.666 -52.667 -48.999 -68c-23.333 -14.667 -48.666 -22 -75.999 -22h-61v-197h69c64.667 0 122.667 14.333 174 43c50.667 30 90.334 84 119.001 162l447 1253h-222l-245 -727h-4l-246 727h-221zM528.997 1200h222v221h-222v-221z
M168.997 1200h221v221h-221v-221z" />
    <glyph glyph-name="Amacron" unicode="&#x100;" horiz-adv-x="1249" 
d="M412 522l211 637h4l211 -637h-426zM1014 0h233l-530 1458h-185l-530 -1458h234l112 326h553zM328 1736h590v-135h-590v135z" />
    <glyph glyph-name="amacron" unicode="&#x101;" 
d="M680 0l209 -0.00292969v709c-1.33301 126.667 -41 216 -119 268c-78 50.667 -182.333 75.334 -313 74.001c-154.667 2.66699 -271.667 -48 -351 -152l164 -125v0c18 30 42.667 51.333 74 64c30 10.667 71 16 123 16c143.333 2.66699 214.333 -41.666 213 -132.999v-109
h-289c-110.667 -1.33301 -194.667 -31.333 -252 -90c-57.333 -57.333 -86 -129.666 -86 -216.999c0 -91.333 33 -166.333 99 -225c62.667 -60 152 -90.667 268 -92c70.667 0 126 8.66699 166 26c40.667 16.667 70.667 42.667 90 78h4v-92zM680 364.997
c0 -78 -16.333 -128.001 -49 -150.001c-36 -22 -97.667 -32.333 -185 -31c-69.333 0 -119 13.667 -149 41c-31.333 24.667 -47 54.667 -47 90c-1.33301 80.667 58.667 122.334 180 125.001h250v-75zM222 1378h590v-135h-590v135z" />
    <glyph glyph-name="Abreve" unicode="&#x102;" horiz-adv-x="1249" 
d="M412 522l211 637h4l211 -637h-426zM1014 0h233l-530 1458h-185l-530 -1458h234l112 326h553zM416 1828c14 -54.667 37.999 -93.332 71.999 -115.999c35.333 -23.333 80.333 -35 135 -35c50.667 -1.33301 94.334 9.66699 131.001 33c38 21.333 63.333 60.666 76 117.999
h123c-7.33301 -86 -39 -154 -95 -204c-56 -54.667 -134.333 -82 -235 -82c-98.667 0 -175.667 27.333 -231 82c-57.333 50 -90.333 118 -99 204h123z" />
    <glyph glyph-name="abreve" unicode="&#x103;" 
d="M680 0l209 -0.00292969v709c-1.33301 126.667 -41 216 -119 268c-78 50.667 -182.333 75.334 -313 74.001c-154.667 2.66699 -271.667 -48 -351 -152l164 -125v0c18 30 42.667 51.333 74 64c30 10.667 71 16 123 16c143.333 2.66699 214.333 -41.666 213 -132.999v-109
h-289c-110.667 -1.33301 -194.667 -31.333 -252 -90c-57.333 -57.333 -86 -129.666 -86 -216.999c0 -91.333 33 -166.333 99 -225c62.667 -60 152 -90.667 268 -92c70.667 0 126 8.66699 166 26c40.667 16.667 70.667 42.667 90 78h4v-92zM680 364.997
c0 -78 -16.333 -128.001 -49 -150.001c-36 -22 -97.667 -32.333 -185 -31c-69.333 0 -119 13.667 -149 41c-31.333 24.667 -47 54.667 -47 90c-1.33301 80.667 58.667 122.334 180 125.001h250v-75zM310 1470c14 -54.667 37.999 -93.332 71.999 -115.999
c35.333 -23.333 80.333 -35 135 -35c50.667 -1.33301 94.334 9.66699 131.001 33c38 21.333 63.333 60.666 76 117.999h123c-7.33301 -86 -39 -154 -95 -204c-56 -54.667 -134.333 -82 -235 -82c-98.667 0 -175.667 27.333 -231 82c-57.333 50 -90.333 118 -99 204h123z" />
    <glyph glyph-name="Aogonek" unicode="&#x104;" horiz-adv-x="1249" 
d="M1225 -414c-18 -10.667 -44.665 -21.333 -79.998 -32c-35.333 -11.333 -75 -17 -119 -17c-57.333 2.66699 -103.666 19.667 -138.999 51c-40 33.333 -60 80 -60 140c0 31.333 5.66699 61.333 17 90c9.33301 23.333 23 46.333 41 69
c17.333 19.333 36.666 38.5 57.999 57.5s45 37.5 71 55.5l-113 326h-553l-112 -326h-234l530 1458h185l530 -1458h-129c-84.667 -83.333 -128.334 -169.333 -131.001 -258c0 -30 10.333 -54 31 -72c19.333 -18.667 42.333 -28 69 -28c45.333 0 81.666 10 108.999 30z
M838.002 522.001l-211 637h-4l-211 -637h426z" />
    <glyph glyph-name="aogonek" unicode="&#x105;" 
d="M891 -414c-18 -10.667 -44.668 -21.3301 -80.001 -31.9971c-35.333 -11.333 -75 -17 -119 -17c-57.333 2.66699 -103.666 19.667 -138.999 51c-39.333 33.333 -59 80 -59 140c0 31.333 5.33301 61.333 16 90c9.33301 23.333 23 46.333 41 69
c18 19.333 37.5 38.5 58.5 57.5s44.5 37.5 70.5 55.5v92h-4c-19.333 -35.333 -49.333 -61.333 -90 -78c-37.333 -17.333 -92.666 -26 -165.999 -26c-114.667 1.33301 -204 32 -268 92c-66 58.667 -99 133.667 -99 225c0 87.333 28.667 159.666 86 216.999
c56 57.333 140 87.333 252 90h289v109c1.33301 91.333 -69.667 135.666 -213 132.999c-49.333 0 -90.333 -5.33301 -123 -16c-31.333 -12.667 -56 -34 -74 -64l-164 125c79.333 104 196.333 154.667 351 152c130.667 1.33301 235 -23.334 313 -74.001
c76.667 -50.667 116.334 -140 119.001 -268v-709h-105c-84.667 -83.333 -128.334 -169.333 -131.001 -258c0 -30 10.333 -54 31 -72c19.333 -18.667 42.666 -28 69.999 -28c44.667 0 80.667 10 108 30zM679.999 440.004l-250 0.00195312
c-122.667 -2.66699 -182.667 -44.334 -180 -125.001c0 -35.333 15.667 -65.333 47 -90c31.333 -27.333 81 -41 149 -41c88 -2.66699 149.667 7.66602 185 30.999c32.667 22 49 72 49 150v75z" />
    <glyph glyph-name="Cacute" unicode="&#x106;" horiz-adv-x="1139" 
d="M903 408c-61.333 -132.667 -154.001 -199.002 -278.001 -199.002c-52 0 -96.667 11 -134 33c-38 18.667 -68.667 43 -92 73c-28.667 31.333 -47.667 72.333 -57 123c-10.667 50.667 -16 147.667 -16 291s5.33301 241 16 293c9.33301 49.333 28.333 89.666 57 120.999
c23.333 30 54 55 92 75c37.333 19.333 82 29.666 134 30.999c70.667 -1.33301 130.667 -21.666 180 -60.999c47.333 -41.333 80 -91.333 98 -150h234c-23.333 122 -79.333 224.333 -168 307c-88.667 82 -203.334 123.667 -344.001 125
c-114.667 -1.33301 -210.334 -28.666 -287.001 -81.999c-78 -52.667 -134.667 -112.667 -170 -180c-22 -35.333 -38.333 -81.666 -49 -138.999c-10 -57.333 -15 -170.666 -15 -339.999c0 -166.667 5 -279.334 15 -338.001c5.33301 -31.333 12 -57.333 20 -78
c8.66699 -20 18.334 -41 29.001 -63c35.333 -67.333 92 -126.666 170 -177.999c76.667 -53.333 172.334 -81.333 287.001 -84c126.667 0 236.334 36 329.001 108c90 72.667 151 176.667 183 312h-234zM671.999 1828h275l-291 -299h-172z" />
    <glyph glyph-name="cacute" unicode="&#x107;" horiz-adv-x="909" 
d="M745 305c-52.667 -70.667 -123 -106.667 -211 -108c-177.333 -3.33301 -267.333 103.667 -270 321c2.66699 218.667 92.667 326.667 270 324c88 -2.66699 158.333 -39 211 -109v0l154 137c-45.333 54.667 -98.666 98.334 -159.999 131.001
c-61.333 32 -132.333 48.667 -213 50c-122.667 1.33301 -230.334 -39.667 -323.001 -123c-96 -84.667 -145.333 -221.334 -148 -410.001c2.66699 -186.667 52 -321.667 148 -405c92.667 -83.333 200.334 -125 323.001 -125c80.667 1.33301 151.667 19 213 53
c61.333 32.667 114.666 75 159.999 127zM553 1470h275l-291 -299h-172z" />
    <glyph glyph-name="Ccircumflex" unicode="&#x108;" horiz-adv-x="1139" 
d="M903 408c-61.333 -132.667 -154.001 -199.002 -278.001 -199.002c-52 0 -96.667 11 -134 33c-38 18.667 -68.667 43 -92 73c-28.667 31.333 -47.667 72.333 -57 123c-10.667 50.667 -16 147.667 -16 291s5.33301 241 16 293c9.33301 49.333 28.333 89.666 57 120.999
c23.333 30 54 55 92 75c37.333 19.333 82 29.666 134 30.999c70.667 -1.33301 130.667 -21.666 180 -60.999c47.333 -41.333 80 -91.333 98 -150h234c-23.333 122 -79.333 224.333 -168 307c-88.667 82 -203.334 123.667 -344.001 125
c-114.667 -1.33301 -210.334 -28.666 -287.001 -81.999c-78 -52.667 -134.667 -112.667 -170 -180c-22 -35.333 -38.333 -81.666 -49 -138.999c-10 -57.333 -15 -170.666 -15 -339.999c0 -166.667 5 -279.334 15 -338.001c5.33301 -31.333 12 -57.333 20 -78
c8.66699 -20 18.334 -41 29.001 -63c35.333 -67.333 92 -126.666 170 -177.999c76.667 -53.333 172.334 -81.333 287.001 -84c126.667 0 236.334 36 329.001 108c90 72.667 151 176.667 183 312h-234zM481.999 1529h-197l217 299h233l218 -299h-197l-137 176z" />
    <glyph glyph-name="ccircumflex" unicode="&#x109;" horiz-adv-x="909" 
d="M745 305c-52.667 -70.667 -123 -106.667 -211 -108c-177.333 -3.33301 -267.333 103.667 -270 321c2.66699 218.667 92.667 326.667 270 324c88 -2.66699 158.333 -39 211 -109v0l154 137c-45.333 54.667 -98.666 98.334 -159.999 131.001
c-61.333 32 -132.333 48.667 -213 50c-122.667 1.33301 -230.334 -39.667 -323.001 -123c-96 -84.667 -145.333 -221.334 -148 -410.001c2.66699 -186.667 52 -321.667 148 -405c92.667 -83.333 200.334 -125 323.001 -125c80.667 1.33301 151.667 19 213 53
c61.333 32.667 114.666 75 159.999 127zM388 1171h-197l217 299h233l218 -299h-197l-137 176z" />
    <glyph glyph-name="Cdotaccent" unicode="&#x10a;" horiz-adv-x="1139" 
d="M903 408c-61.333 -132.667 -154.001 -199.002 -278.001 -199.002c-52 0 -96.667 11 -134 33c-38 18.667 -68.667 43 -92 73c-28.667 31.333 -47.667 72.333 -57 123c-10.667 50.667 -16 147.667 -16 291s5.33301 241 16 293c9.33301 49.333 28.333 89.666 57 120.999
c23.333 30 54 55 92 75c37.333 19.333 82 29.666 134 30.999c70.667 -1.33301 130.667 -21.666 180 -60.999c47.333 -41.333 80 -91.333 98 -150h234c-23.333 122 -79.333 224.333 -168 307c-88.667 82 -203.334 123.667 -344.001 125
c-114.667 -1.33301 -210.334 -28.666 -287.001 -81.999c-78 -52.667 -134.667 -112.667 -170 -180c-22 -35.333 -38.333 -81.666 -49 -138.999c-10 -57.333 -15 -170.666 -15 -339.999c0 -166.667 5 -279.334 15 -338.001c5.33301 -31.333 12 -57.333 20 -78
c8.66699 -20 18.334 -41 29.001 -63c35.333 -67.333 92 -126.666 170 -177.999c76.667 -53.333 172.334 -81.333 287.001 -84c126.667 0 236.334 36 329.001 108c90 72.667 151 176.667 183 312h-234zM507.999 1779h221v-221h-221v221z" />
    <glyph glyph-name="cdotaccent" unicode="&#x10b;" horiz-adv-x="909" 
d="M745 305c-52.667 -70.667 -123 -106.667 -211 -108c-177.333 -3.33301 -267.333 103.667 -270 321c2.66699 218.667 92.667 326.667 270 324c88 -2.66699 158.333 -39 211 -109v0l154 137c-45.333 54.667 -98.666 98.334 -159.999 131.001
c-61.333 32 -132.333 48.667 -213 50c-122.667 1.33301 -230.334 -39.667 -323.001 -123c-96 -84.667 -145.333 -221.334 -148 -410.001c2.66699 -186.667 52 -321.667 148 -405c92.667 -83.333 200.334 -125 323.001 -125c80.667 1.33301 151.667 19 213 53
c61.333 32.667 114.666 75 159.999 127zM414 1421h221v-221h-221v221z" />
    <glyph glyph-name="Ccaron" unicode="&#x10c;" horiz-adv-x="1139" 
d="M903 408c-61.333 -132.667 -154.001 -199.002 -278.001 -199.002c-52 0 -96.667 11 -134 33c-38 18.667 -68.667 43 -92 73c-28.667 31.333 -47.667 72.333 -57 123c-10.667 50.667 -16 147.667 -16 291s5.33301 241 16 293c9.33301 49.333 28.333 89.666 57 120.999
c23.333 30 54 55 92 75c37.333 19.333 82 29.666 134 30.999c70.667 -1.33301 130.667 -21.666 180 -60.999c47.333 -41.333 80 -91.333 98 -150h234c-23.333 122 -79.333 224.333 -168 307c-88.667 82 -203.334 123.667 -344.001 125
c-114.667 -1.33301 -210.334 -28.666 -287.001 -81.999c-78 -52.667 -134.667 -112.667 -170 -180c-22 -35.333 -38.333 -81.666 -49 -138.999c-10 -57.333 -15 -170.666 -15 -339.999c0 -166.667 5 -279.334 15 -338.001c5.33301 -31.333 12 -57.333 20 -78
c8.66699 -20 18.334 -41 29.001 -63c35.333 -67.333 92 -126.666 170 -177.999c76.667 -53.333 172.334 -81.333 287.001 -84c126.667 0 236.334 36 329.001 108c90 72.667 151 176.667 183 312h-234zM284.999 1828h197l137 -176v0l137 176h197l-218 -299h-233z" />
    <glyph glyph-name="ccaron" unicode="&#x10d;" horiz-adv-x="909" 
d="M745 305c-52.667 -70.667 -123 -106.667 -211 -108c-177.333 -3.33301 -267.333 103.667 -270 321c2.66699 218.667 92.667 326.667 270 324c88 -2.66699 158.333 -39 211 -109v0l154 137c-45.333 54.667 -98.666 98.334 -159.999 131.001
c-61.333 32 -132.333 48.667 -213 50c-122.667 1.33301 -230.334 -39.667 -323.001 -123c-96 -84.667 -145.333 -221.334 -148 -410.001c2.66699 -186.667 52 -321.667 148 -405c92.667 -83.333 200.334 -125 323.001 -125c80.667 1.33301 151.667 19 213 53
c61.333 32.667 114.666 75 159.999 127zM191 1470h197l137 -176v0l137 176h197l-218 -299h-233z" />
    <glyph glyph-name="Dcaron" unicode="&#x10e;" horiz-adv-x="1290" 
d="M154 0l495 -0.000976562c109.333 0 201.666 24 276.999 72c76 44.667 135.333 101.334 178 170.001c16 26 29.667 51 41 75c10.667 24.667 18.667 52.667 24 84c11.333 62 17 171.333 17 328c0 147.333 -3.66699 251 -11 311c-9.33301 60 -31.666 117.333 -66.999 172
c-98.667 162.667 -246.667 244.667 -444 246h-510v-1458zM375 1249l264.001 0.000976562c112 2.66699 198.667 -38.333 260 -123c30 -34 49 -78.333 57 -133c6 -54.667 9 -145.334 9 -272.001c0 -130 -3 -218.667 -9 -266c-6.66699 -48 -22.334 -87.667 -47.001 -119
c-56 -84.667 -146 -127 -270 -127h-264v1040zM285.001 1828h197l137 -176v0l137 176h197l-218 -299h-233z" />
    <glyph glyph-name="dcaron" unicode="&#x10f;" horiz-adv-x="1372" 
d="M756 109l-0.00195312 -109h209v1458h-209v-530v0c-38.667 36.667 -79 66.667 -121 90c-45.333 22 -94.666 33 -147.999 33c-126.667 -3.33301 -219.334 -48.666 -278.001 -135.999c-28.667 -32.667 -47.667 -75.667 -57 -129c-11.333 -52.667 -17 -141.334 -17 -266.001
c0 -122.667 5.66699 -210.667 17 -264c9.33301 -56 28.333 -100.333 57 -133c31.333 -40 70.333 -72 117 -96c44.667 -24.667 98.334 -37.667 161.001 -39c110.667 2.66699 200.334 43 269.001 121v0zM550.998 842c49.333 0 88.333 -9.66602 117 -28.999
s48.334 -44.666 59.001 -75.999c13.333 -31.333 22.333 -65.333 27 -102c1.33301 -36.667 2 -75 2 -115c0 -36.667 -0.666992 -74 -2 -112c-4.66699 -38.667 -13.667 -73.667 -27 -105c-10.667 -31.333 -30.334 -56.666 -59.001 -75.999c-28.667 -20 -67.667 -30 -117 -30
s-87 9.33301 -113 28c-28.667 19.333 -49.667 44 -63 74c-12.667 31.333 -21 66.666 -25 105.999c-4 37.333 -6 75.666 -6 114.999c0 41.333 2 81.666 6 120.999c4 36.667 12.333 70.667 25 102c13.333 31.333 34.333 56 63 74c26 16.667 63.667 25 113 25v0zM1163 1098
l209 151v209h-209v-360z" />
    <glyph glyph-name="Dcroat" unicode="&#x110;" horiz-adv-x="1290" 
d="M154 0l495 -0.000976562c109.333 0 201.666 24 276.999 72c76 44.667 135.333 101.334 178 170.001c16 26 29.667 51 41 75c10.667 24.667 18.667 52.667 24 84c11.333 62 17 171.333 17 328c0 147.333 -3.66699 251 -11 311c-9.33301 60 -31.666 117.333 -66.999 172
c-98.667 162.667 -246.667 244.667 -444 246h-510v-625h-154v-196h154v-637zM375 832.999l0.000976562 416.001h264c112 2.66699 198.667 -38.333 260 -123c30 -34 49 -78.333 57 -133c6 -54.667 9 -145.334 9 -272.001c0 -130 -3 -218.667 -9 -266
c-6.66699 -48 -22.334 -87.667 -47.001 -119c-56 -84.667 -146 -127 -270 -127h-264v428h278v196h-278z" />
    <glyph glyph-name="Emacron" unicode="&#x112;" horiz-adv-x="1139" 
d="M154 0h931v209h-710v428h606v196h-606v416h710v209h-931v-1458zM340 1736h590v-135h-590v135z" />
    <glyph glyph-name="emacron" unicode="&#x113;" 
d="M940 440v172.004c-1.33301 136.667 -43.666 244 -126.999 322c-82 76.667 -182.333 115.667 -301 117c-49.333 0 -99.333 -9 -150 -27c-51.333 -18 -97.666 -47.333 -138.999 -88c-40.667 -40 -74 -94.667 -100 -164c-26 -68 -39 -153.333 -39 -256
c0 -106.667 15 -193.334 45 -260.001c27.333 -69.333 63 -123.333 107 -162c22.667 -18.667 47 -34.334 73 -47.001c24.667 -14.667 50 -26.334 76 -35.001c52 -16 105.333 -24 160 -24c143.333 -1.33301 268 54.667 374 168l-151 129v0
c-66.667 -67.333 -142.334 -101 -227.001 -101c-72.667 0 -131.334 22 -176.001 66c-48 43.333 -72 106.666 -72 189.999h647zM293 612.004c4 80.667 25.666 141.667 64.999 183c40 39.333 91.333 59 154 59s114 -19.667 154 -59
c40.667 -41.333 62.334 -102.333 65.001 -183h-438zM217.999 1378h590v-135h-590v135z" />
    <glyph glyph-name="Ebreve" unicode="&#x114;" horiz-adv-x="1139" 
d="M154 0h931v209h-710v428h606v196h-606v416h710v209h-931v-1458zM429 1828c14 -54.667 37.999 -93.332 71.999 -115.999c35.333 -23.333 80.333 -35 135 -35c50.667 -1.33301 94.334 9.66699 131.001 33c38 21.333 63.333 60.666 76 117.999h123
c-7.33301 -86 -39 -154 -95 -204c-56 -54.667 -134.333 -82 -235 -82c-98.667 0 -175.667 27.333 -231 82c-57.333 50 -90.333 118 -99 204h123z" />
    <glyph glyph-name="ebreve" unicode="&#x115;" 
d="M940 440v172.004c-1.33301 136.667 -43.666 244 -126.999 322c-82 76.667 -182.333 115.667 -301 117c-49.333 0 -99.333 -9 -150 -27c-51.333 -18 -97.666 -47.333 -138.999 -88c-40.667 -40 -74 -94.667 -100 -164c-26 -68 -39 -153.333 -39 -256
c0 -106.667 15 -193.334 45 -260.001c27.333 -69.333 63 -123.333 107 -162c22.667 -18.667 47 -34.334 73 -47.001c24.667 -14.667 50 -26.334 76 -35.001c52 -16 105.333 -24 160 -24c143.333 -1.33301 268 54.667 374 168l-151 129v0
c-66.667 -67.333 -142.334 -101 -227.001 -101c-72.667 0 -131.334 22 -176.001 66c-48 43.333 -72 106.666 -72 189.999h647zM293 612.004c4 80.667 25.666 141.667 64.999 183c40 39.333 91.333 59 154 59s114 -19.667 154 -59
c40.667 -41.333 62.334 -102.333 65.001 -183h-438zM305.999 1470c14 -54.667 37.999 -93.332 71.999 -115.999c35.333 -23.333 80.333 -35 135 -35c50.667 -1.33301 94.334 9.66699 131.001 33c38 21.333 63.333 60.666 76 117.999h123c-7.33301 -86 -39 -154 -95 -204
c-56 -54.667 -134.333 -82 -235 -82c-98.667 0 -175.667 27.333 -231 82c-57.333 50 -90.333 118 -99 204h123z" />
    <glyph glyph-name="Edotaccent" unicode="&#x116;" horiz-adv-x="1139" 
d="M154 0h931v209h-710v428h606v196h-606v416h710v209h-931v-1458zM525 1781h221v-221h-221v221z" />
    <glyph glyph-name="edotaccent" unicode="&#x117;" 
d="M940 440v172.004c-1.33301 136.667 -43.666 244 -126.999 322c-82 76.667 -182.333 115.667 -301 117c-49.333 0 -99.333 -9 -150 -27c-51.333 -18 -97.666 -47.333 -138.999 -88c-40.667 -40 -74 -94.667 -100 -164c-26 -68 -39 -153.333 -39 -256
c0 -106.667 15 -193.334 45 -260.001c27.333 -69.333 63 -123.333 107 -162c22.667 -18.667 47 -34.334 73 -47.001c24.667 -14.667 50 -26.334 76 -35.001c52 -16 105.333 -24 160 -24c143.333 -1.33301 268 54.667 374 168l-151 129v0
c-66.667 -67.333 -142.334 -101 -227.001 -101c-72.667 0 -131.334 22 -176.001 66c-48 43.333 -72 106.666 -72 189.999h647zM293 612.004c4 80.667 25.666 141.667 64.999 183c40 39.333 91.333 59 154 59s114 -19.667 154 -59
c40.667 -41.333 62.334 -102.333 65.001 -183h-438zM403.999 1421h221v-221h-221v221z" />
    <glyph glyph-name="Eogonek" unicode="&#x118;" horiz-adv-x="1139" 
d="M154 1458l931.001 0.000976562v-209h-710v-415h606v-197h-606v-428h710v-209c-84.667 -83.333 -128.334 -169.333 -131.001 -258c0 -30 10.333 -54 31 -72c19.333 -18.667 42.666 -28 69.999 -28c44.667 0 80.667 10 108 30l29 -86
c-18 -10.667 -44.667 -21.334 -80 -32.001c-35.333 -11.333 -75 -17 -119 -17c-57.333 2.66699 -103.666 19.667 -138.999 51c-39.333 33.333 -59 80 -59 140c0 31.333 5.33301 61.333 16 90c9.33301 23.333 23 46.333 41 69c18 19.333 37.5 38.5 58.5 57.5
s44.5 37.5 70.5 55.5h-827v1458z" />
    <glyph glyph-name="eogonek" unicode="&#x119;" 
d="M752 -414c-18 -10.667 -44.666 -21.334 -79.999 -32.001c-36 -11.333 -75.667 -17 -119 -17c-57.333 2.66699 -103.666 19.667 -138.999 51c-40 33.333 -60 80 -60 140c0 31.333 5.66699 61.333 17 90c9.33301 23.333 23 46.333 41 69c14.667 18 31.167 35.5 49.5 52.5
s38.5 33.167 60.5 48.5c-48.667 2.66699 -94.334 10.667 -137.001 24c-23.333 7.33301 -48.666 19 -75.999 35c-24.667 10.667 -49 26.334 -73 47.001c-45.333 41.333 -81 95.333 -107 162c-30 65.333 -45 152 -45 260c0 105.333 13 190.666 39 255.999
c27.333 72.667 60.666 127.334 99.999 164.001c40 39.333 86.333 68.666 139 87.999c49.333 18 99.333 27 150 27c118.667 -2.66699 219 -41.667 301 -117c82 -76.667 124.333 -184 127 -322v-172h-647c0 -83.333 24 -146.666 72 -189.999c46 -44 104.667 -66 176 -66
c84.667 0 160.334 33.667 227.001 101l152 -129c-82 -87.333 -175.667 -140.666 -281 -159.999c-80.667 -80.667 -122.334 -165.334 -125.001 -254.001c0 -30 10.333 -54 31 -72c18.667 -18.667 41.667 -28 69 -28c45.333 0 81.666 10 108.999 30zM731.001 612
c-2.66699 79.333 -24.333 140.333 -65 183c-40 39.333 -91.333 59 -154 59s-114 -19.667 -154 -59c-39.333 -42.667 -61 -103.667 -65 -183h438z" />
    <glyph glyph-name="Ecaron" unicode="&#x11a;" horiz-adv-x="1139" 
d="M154 0h931v209h-710v428h606v196h-606v416h710v209h-931v-1458zM302 1828h197l137 -176v0l137 176h197l-218 -299h-233z" />
    <glyph glyph-name="ecaron" unicode="&#x11b;" 
d="M940 440v172.004c-1.33301 136.667 -43.666 244 -126.999 322c-82 76.667 -182.333 115.667 -301 117c-49.333 0 -99.333 -9 -150 -27c-51.333 -18 -97.666 -47.333 -138.999 -88c-40.667 -40 -74 -94.667 -100 -164c-26 -68 -39 -153.333 -39 -256
c0 -106.667 15 -193.334 45 -260.001c27.333 -69.333 63 -123.333 107 -162c22.667 -18.667 47 -34.334 73 -47.001c24.667 -14.667 50 -26.334 76 -35.001c52 -16 105.333 -24 160 -24c143.333 -1.33301 268 54.667 374 168l-151 129v0
c-66.667 -67.333 -142.334 -101 -227.001 -101c-72.667 0 -131.334 22 -176.001 66c-48 43.333 -72 106.666 -72 189.999h647zM293 612.004c4 80.667 25.666 141.667 64.999 183c40 39.333 91.333 59 154 59s114 -19.667 154 -59
c40.667 -41.333 62.334 -102.333 65.001 -183h-438zM178.999 1470h197l137 -176v0l137 176h197l-218 -299h-233z" />
    <glyph glyph-name="Gcircumflex" unicode="&#x11c;" horiz-adv-x="1249" 
d="M627 594l297 -0.00195312v-76c-1.33301 -91.333 -30 -165 -86 -221c-56 -58.667 -127 -88 -213 -88c-52 0 -96.667 11 -134 33c-38 18.667 -68.667 43 -92 73c-28.667 31.333 -47.667 72.333 -57 123c-10.667 50.667 -16 147.667 -16 291s5.33301 241 16 293
c9.33301 49.333 28.333 89.666 57 120.999c23.333 30 54 55 92 75c37.333 19.333 82 29.666 134 30.999c70.667 -1.33301 130.667 -21.666 180 -60.999c47.333 -41.333 80 -91.333 98 -150h234c-23.333 122 -79.333 224.333 -168 307
c-88.667 82 -203.334 123.667 -344.001 125c-114.667 -1.33301 -210.334 -28.666 -287.001 -81.999c-78 -52.667 -134.667 -112.667 -170 -180c-22 -35.333 -38.333 -81.666 -49 -138.999c-10 -57.333 -15 -170.666 -15 -339.999c0 -166.667 5 -279.334 15 -338.001
c5.33301 -31.333 12 -57.333 20 -78c8.66699 -20 18.334 -41 29.001 -63c35.333 -67.333 92 -126.666 170 -177.999c76.667 -53.333 172.334 -81.333 287.001 -84c148.667 2.66699 272 53 370 151c97.333 98.667 147.333 221 150 367v297h-518v-209zM486 1529h-197l217 299
h233l218 -299h-197l-137 176z" />
    <glyph glyph-name="gcircumflex" unicode="&#x11d;" horiz-adv-x="1063" 
d="M719 109l-0.000976562 -107c-1.33301 -70.667 -23.333 -126 -66 -166c-43.333 -39.333 -100.666 -59 -171.999 -59c-38 1.33301 -74.667 11.666 -110 30.999c-34.667 17.333 -65.334 38.333 -92.001 63v0l-162 -129c99.333 -113.333 219.333 -171.333 360 -174
c122.667 0 228 37.667 316 113c87.333 73.333 132.333 188 135 344v1013h-209v-110v0c-75.333 82 -164.666 123 -267.999 123c-67.333 -1.33301 -123.333 -14.333 -168 -39c-46.667 -26 -82.334 -55.333 -107.001 -88c-27.333 -33.333 -47 -74.333 -59 -123
c-12.667 -49.333 -19 -143.666 -19 -282.999c0 -136.667 6.33301 -229.334 19 -278.001c12 -49.333 31.667 -91 59 -125c24.667 -30 60.334 -58 107.001 -84c44.667 -27.333 100.667 -41.666 168 -42.999c110 2.66699 199.333 43 268 121v0zM306.999 518
c0 80.667 2.66699 136.667 8 168c4.66699 31.333 15.667 56.666 33 75.999c14 18.667 35.333 37 64 55c27.333 15.333 61.333 23.666 102 24.999c40.667 -1.33301 74.667 -9.66602 102 -24.999c27.333 -18 48 -36.333 62 -55c17.333 -19.333 29 -44.666 35 -75.999
c4 -31.333 6 -87.333 6 -168c0 -79.333 -2 -134 -6 -164c-6 -31.333 -17.667 -57.333 -35 -78c-14 -18.667 -34.667 -35.667 -62 -51c-27.333 -18.667 -61.333 -28 -102 -28s-74.667 9.33301 -102 28c-28.667 15.333 -50 32.333 -64 51
c-17.333 20.667 -28.333 46.667 -33 78c-5.33301 30 -8 84.667 -8 164v0zM375.999 1171h-197l217 299h233l218 -299h-197l-137 176z" />
    <glyph glyph-name="Gbreve" unicode="&#x11e;" horiz-adv-x="1249" 
d="M627 594l297 -0.00195312v-76c-1.33301 -91.333 -30 -165 -86 -221c-56 -58.667 -127 -88 -213 -88c-52 0 -96.667 11 -134 33c-38 18.667 -68.667 43 -92 73c-28.667 31.333 -47.667 72.333 -57 123c-10.667 50.667 -16 147.667 -16 291s5.33301 241 16 293
c9.33301 49.333 28.333 89.666 57 120.999c23.333 30 54 55 92 75c37.333 19.333 82 29.666 134 30.999c70.667 -1.33301 130.667 -21.666 180 -60.999c47.333 -41.333 80 -91.333 98 -150h234c-23.333 122 -79.333 224.333 -168 307
c-88.667 82 -203.334 123.667 -344.001 125c-114.667 -1.33301 -210.334 -28.666 -287.001 -81.999c-78 -52.667 -134.667 -112.667 -170 -180c-22 -35.333 -38.333 -81.666 -49 -138.999c-10 -57.333 -15 -170.666 -15 -339.999c0 -166.667 5 -279.334 15 -338.001
c5.33301 -31.333 12 -57.333 20 -78c8.66699 -20 18.334 -41 29.001 -63c35.333 -67.333 92 -126.666 170 -177.999c76.667 -53.333 172.334 -81.333 287.001 -84c148.667 2.66699 272 53 370 151c97.333 98.667 147.333 221 150 367v297h-518v-209zM416 1828
c14 -54.667 37.999 -93.332 71.999 -115.999c35.333 -23.333 80.333 -35 135 -35c50.667 -1.33301 94.334 9.66699 131.001 33c38 21.333 63.333 60.666 76 117.999h123c-7.33301 -86 -39 -154 -95 -204c-56 -54.667 -134.333 -82 -235 -82
c-98.667 0 -175.667 27.333 -231 82c-57.333 50 -90.333 118 -99 204h123z" />
    <glyph glyph-name="gbreve" unicode="&#x11f;" horiz-adv-x="1063" 
d="M719 109l-0.000976562 -107c-1.33301 -70.667 -23.333 -126 -66 -166c-43.333 -39.333 -100.666 -59 -171.999 -59c-38 1.33301 -74.667 11.666 -110 30.999c-34.667 17.333 -65.334 38.333 -92.001 63v0l-162 -129c99.333 -113.333 219.333 -171.333 360 -174
c122.667 0 228 37.667 316 113c87.333 73.333 132.333 188 135 344v1013h-209v-110v0c-75.333 82 -164.666 123 -267.999 123c-67.333 -1.33301 -123.333 -14.333 -168 -39c-46.667 -26 -82.334 -55.333 -107.001 -88c-27.333 -33.333 -47 -74.333 -59 -123
c-12.667 -49.333 -19 -143.666 -19 -282.999c0 -136.667 6.33301 -229.334 19 -278.001c12 -49.333 31.667 -91 59 -125c24.667 -30 60.334 -58 107.001 -84c44.667 -27.333 100.667 -41.666 168 -42.999c110 2.66699 199.333 43 268 121v0zM306.999 518
c0 80.667 2.66699 136.667 8 168c4.66699 31.333 15.667 56.666 33 75.999c14 18.667 35.333 37 64 55c27.333 15.333 61.333 23.666 102 24.999c40.667 -1.33301 74.667 -9.66602 102 -24.999c27.333 -18 48 -36.333 62 -55c17.333 -19.333 29 -44.666 35 -75.999
c4 -31.333 6 -87.333 6 -168c0 -79.333 -2 -134 -6 -164c-6 -31.333 -17.667 -57.333 -35 -78c-14 -18.667 -34.667 -35.667 -62 -51c-27.333 -18.667 -61.333 -28 -102 -28s-74.667 9.33301 -102 28c-28.667 15.333 -50 32.333 -64 51
c-17.333 20.667 -28.333 46.667 -33 78c-5.33301 30 -8 84.667 -8 164v0zM305.999 1470c14 -54.667 37.999 -93.332 71.999 -115.999c35.333 -23.333 80.333 -35 135 -35c50.667 -1.33301 94.334 9.66699 131.001 33c38 21.333 63.333 60.666 76 117.999h123
c-7.33301 -86 -39 -154 -95 -204c-56 -54.667 -134.333 -82 -235 -82c-98.667 0 -175.667 27.333 -231 82c-57.333 50 -90.333 118 -99 204h123z" />
    <glyph glyph-name="Gdotaccent" unicode="&#x120;" horiz-adv-x="1249" 
d="M627 594l297 -0.00195312v-76c-1.33301 -91.333 -30 -165 -86 -221c-56 -58.667 -127 -88 -213 -88c-52 0 -96.667 11 -134 33c-38 18.667 -68.667 43 -92 73c-28.667 31.333 -47.667 72.333 -57 123c-10.667 50.667 -16 147.667 -16 291s5.33301 241 16 293
c9.33301 49.333 28.333 89.666 57 120.999c23.333 30 54 55 92 75c37.333 19.333 82 29.666 134 30.999c70.667 -1.33301 130.667 -21.666 180 -60.999c47.333 -41.333 80 -91.333 98 -150h234c-23.333 122 -79.333 224.333 -168 307
c-88.667 82 -203.334 123.667 -344.001 125c-114.667 -1.33301 -210.334 -28.666 -287.001 -81.999c-78 -52.667 -134.667 -112.667 -170 -180c-22 -35.333 -38.333 -81.666 -49 -138.999c-10 -57.333 -15 -170.666 -15 -339.999c0 -166.667 5 -279.334 15 -338.001
c5.33301 -31.333 12 -57.333 20 -78c8.66699 -20 18.334 -41 29.001 -63c35.333 -67.333 92 -126.666 170 -177.999c76.667 -53.333 172.334 -81.333 287.001 -84c148.667 2.66699 272 53 370 151c97.333 98.667 147.333 221 150 367v297h-518v-209zM515 1779h221v-221h-221
v221z" />
    <glyph glyph-name="gdotaccent" unicode="&#x121;" horiz-adv-x="1063" 
d="M719 109l-0.000976562 -107c-1.33301 -70.667 -23.333 -126 -66 -166c-43.333 -39.333 -100.666 -59 -171.999 -59c-38 1.33301 -74.667 11.666 -110 30.999c-34.667 17.333 -65.334 38.333 -92.001 63v0l-162 -129c99.333 -113.333 219.333 -171.333 360 -174
c122.667 0 228 37.667 316 113c87.333 73.333 132.333 188 135 344v1013h-209v-110v0c-75.333 82 -164.666 123 -267.999 123c-67.333 -1.33301 -123.333 -14.333 -168 -39c-46.667 -26 -82.334 -55.333 -107.001 -88c-27.333 -33.333 -47 -74.333 -59 -123
c-12.667 -49.333 -19 -143.666 -19 -282.999c0 -136.667 6.33301 -229.334 19 -278.001c12 -49.333 31.667 -91 59 -125c24.667 -30 60.334 -58 107.001 -84c44.667 -27.333 100.667 -41.666 168 -42.999c110 2.66699 199.333 43 268 121v0zM306.999 518
c0 80.667 2.66699 136.667 8 168c4.66699 31.333 15.667 56.666 33 75.999c14 18.667 35.333 37 64 55c27.333 15.333 61.333 23.666 102 24.999c40.667 -1.33301 74.667 -9.66602 102 -24.999c27.333 -18 48 -36.333 62 -55c17.333 -19.333 29 -44.666 35 -75.999
c4 -31.333 6 -87.333 6 -168c0 -79.333 -2 -134 -6 -164c-6 -31.333 -17.667 -57.333 -35 -78c-14 -18.667 -34.667 -35.667 -62 -51c-27.333 -18.667 -61.333 -28 -102 -28s-74.667 9.33301 -102 28c-28.667 15.333 -50 32.333 -64 51
c-17.333 20.667 -28.333 46.667 -33 78c-5.33301 30 -8 84.667 -8 164v0zM403.999 1421h221v-221h-221v221z" />
    <glyph glyph-name="Gcedilla" unicode="&#x122;" horiz-adv-x="1249" 
d="M627 594l297 -0.00195312v-76c-1.33301 -91.333 -30 -165 -86 -221c-56 -58.667 -127 -88 -213 -88c-52 0 -96.667 11 -134 33c-38 18.667 -68.667 43 -92 73c-28.667 31.333 -47.667 72.333 -57 123c-10.667 50.667 -16 147.667 -16 291s5.33301 241 16 293
c9.33301 49.333 28.333 89.666 57 120.999c23.333 30 54 55 92 75c37.333 19.333 82 29.666 134 30.999c70.667 -1.33301 130.667 -21.666 180 -60.999c47.333 -41.333 80 -91.333 98 -150h234c-23.333 122 -79.333 224.333 -168 307
c-88.667 82 -203.334 123.667 -344.001 125c-114.667 -1.33301 -210.334 -28.666 -287.001 -81.999c-78 -52.667 -134.667 -112.667 -170 -180c-22 -35.333 -38.333 -81.666 -49 -138.999c-10 -57.333 -15 -170.666 -15 -339.999c0 -166.667 5 -279.334 15 -338.001
c5.33301 -31.333 12 -57.333 20 -78c8.66699 -20 18.334 -41 29.001 -63c35.333 -67.333 92 -126.666 170 -177.999c76.667 -53.333 172.334 -81.333 287.001 -84c148.667 2.66699 272 53 370 151c97.333 98.667 147.333 221 150 367v297h-518v-209zM519 -76.002h209v-250
l-209 -151v401z" />
    <glyph glyph-name="Hcircumflex" unicode="&#x124;" horiz-adv-x="1327" 
d="M952 0h221v1458h-221v-625h-577v625h-221v-1458h221v637h577v-637zM525 1529h-197l217 299h233l218 -299h-197l-137 176z" />
    <glyph glyph-name="hcircumflex" unicode="&#x125;" horiz-adv-x="1100" 
d="M135 0h209v618c0 72.667 19.667 128 59 166c38.667 38.667 88 58 148 58s109 -19.333 147 -58c38.667 -38 58 -93.333 58 -166v-618h209v690c-3.33301 118.667 -40.333 208.667 -111 270c-71.333 60.667 -150 91 -236 91c-111.333 0 -201.333 -41 -270 -123h-4v530h-209
v-1458zM413 1529h-197l217 299h233l218 -299h-197l-137 176z" />
    <glyph glyph-name="Itilde" unicode="&#x128;" horiz-adv-x="528" 
d="M154 0h221v1458h-221v-1458zM22 1550c0 34 10.999 57.9961 32.999 71.9961c20.667 10.667 38.334 16 53.001 16c42.667 -1.33301 89.667 -13.666 141 -36.999c24.667 -9.33301 50.667 -17.666 78 -24.999c26 -9.33301 51.333 -14 76 -14c69.333 1.33301 122 26 158 74
c35.333 44.667 57.666 99.334 66.999 164.001h-123c-6.66699 -36 -18.667 -60 -36 -72c-19.333 -13.333 -39.333 -19.333 -60 -18c-20.667 0 -41 4.66699 -61 14c-22 6.66699 -45.333 15.667 -70 27c-23.333 10.667 -47.333 19.334 -72 26.001c-24 6.66699 -49 10 -75 10
c-63.333 0 -114.666 -21 -153.999 -63c-40.667 -44 -66.667 -102 -78 -174h123z" />
    <glyph glyph-name="itilde" unicode="&#x129;" horiz-adv-x="492" 
d="M141 0h209v1038h-209v-1038zM4 1192c0 34 10.999 57.9961 32.999 71.9961c20.667 10.667 38.334 16 53.001 16c42.667 -1.33301 89.667 -13.666 141 -36.999c24.667 -9.33301 50.667 -17.666 78 -24.999c26 -9.33301 51.333 -14 76 -14c69.333 1.33301 122 26 158 74
c35.333 44.667 57.666 99.334 66.999 164.001h-123c-6.66699 -36 -18.667 -60 -36 -72c-19.333 -13.333 -39.333 -19.333 -60 -18c-20.667 0 -41 4.66699 -61 14c-22 6.66699 -45.333 15.667 -70 27c-23.333 10.667 -47.333 19.334 -72 26.001c-24 6.66699 -49 10 -75 10
c-63.333 0 -114.666 -21 -153.999 -63c-40.667 -44 -66.667 -102 -78 -174h123z" />
    <glyph glyph-name="Imacron" unicode="&#x12a;" horiz-adv-x="528" 
d="M154 0h221v1458h-221v-1458zM-30 1736h590v-135h-590v135z" />
    <glyph glyph-name="imacron" unicode="&#x12b;" horiz-adv-x="492" 
d="M141 0h209v1038h-209v-1038zM-49 1378h590v-135h-590v135z" />
    <glyph glyph-name="Ibreve" unicode="&#x12c;" horiz-adv-x="528" 
d="M154 0h221v1458h-221v-1458zM-66 1828c8.66699 -86 41.668 -154.002 99.001 -204.002c55.333 -54.667 132.333 -82 231 -82c100.667 0 179 27.333 235 82c56 50 87.667 118 95 204h-123c-12.667 -57.333 -38 -96.666 -76 -117.999
c-36.667 -23.333 -80.334 -34.333 -131.001 -33c-54.667 0 -99.667 11.667 -135 35c-34 22.667 -58 61.334 -72 116.001h-123z" />
    <glyph glyph-name="ibreve" unicode="&#x12d;" horiz-adv-x="492" 
d="M141 0h209v1038h-209v-1038zM-83 1470c8.66699 -86 41.668 -154.002 99.001 -204.002c55.333 -54.667 132.333 -82 231 -82c100.667 0 179 27.333 235 82c56 50 87.667 118 95 204h-123c-12.667 -57.333 -38 -96.666 -76 -117.999
c-36.667 -23.333 -80.334 -34.333 -131.001 -33c-54.667 0 -99.667 11.667 -135 35c-34 22.667 -58 61.334 -72 116.001h-123z" />
    <glyph glyph-name="Iogonek" unicode="&#x12e;" horiz-adv-x="528" 
d="M154 1458l221.002 0.000976562v-1458h-82c-84.667 -83.333 -128.334 -169.333 -131.001 -258c0 -30 10.333 -54 31 -72c18.667 -18.667 41.667 -28 69 -28c45.333 0 81.666 10 108.999 30l28 -86c-17.333 -10.667 -44 -21.334 -80 -32.001
c-35.333 -11.333 -74.666 -17 -117.999 -17c-57.333 2.66699 -104 19.667 -140 51c-39.333 33.333 -59 80 -59 140c0 31.333 5.33301 61.333 16 90c10 23.333 23.667 46.333 41 69c18 19.333 37.667 38.5 59 57.5s44.666 37.5 69.999 55.5h-34v1458z" />
    <glyph glyph-name="iogonek" unicode="&#x12f;" horiz-adv-x="492" 
d="M141 1038l209.001 0.000976562v-1038h-53c-84.667 -83.333 -128.334 -169.333 -131.001 -258c0 -30 10.333 -54 31 -72c18.667 -18.667 41.667 -28 69 -28c45.333 0 81.666 10 108.999 30l28 -86c-17.333 -10.667 -43.666 -21.334 -78.999 -32.001
c-36 -11.333 -75.667 -17 -119 -17c-57.333 2.66699 -103.666 19.667 -138.999 51c-40 33.333 -60 80 -60 140c0 31.333 5.66699 61.333 17 90c9.33301 23.333 22.666 46.333 39.999 69c18 19.333 37.667 38.5 59 57.5s45 37.5 71 55.5h-52v1038zM141.001 1458h209v-209
h-209v209z" />
    <glyph glyph-name="Idotaccent" unicode="&#x130;" horiz-adv-x="528" 
d="M154 0h221v1458h-221v-1458zM153 1558h221v221h-221v-221z" />
    <glyph glyph-name="dotlessi" unicode="&#x131;" horiz-adv-x="491" 
d="M141 0h209v1038h-209v-1038z" />
    <glyph glyph-name="IJ" unicode="&#x132;" horiz-adv-x="1513" 
d="M154 0h221v1458h-221v-1458zM708 307l-177.999 -128.999c83.333 -122.667 209.666 -186 378.999 -190c122.667 1.33301 230.334 43 323.001 125c93.333 80 141.333 193.333 144 340v1005h-221v-983c0 -49.333 -7.66699 -90.333 -23 -123c-14.667 -34 -35 -61.333 -61 -82
c-53.333 -42 -109.333 -62.333 -168 -61c-44 0 -82.333 10.333 -115 31c-32.667 17.333 -59.334 39.666 -80.001 66.999v0z" />
    <glyph glyph-name="ij" unicode="&#x133;" horiz-adv-x="1019" 
d="M141 0h209v1038h-209v-1038zM141 1249h209v209h-209v-209zM653 -113c-1.33301 -73.333 -40.333 -109.999 -117 -109.999h-59v-197h82c90 1.33301 163 28.666 219 81.999c54.667 52 82.667 121.667 84 209v1167h-209v-1151zM653 1249h209v209h-209v-209z" />
    <glyph glyph-name="Jcircumflex" unicode="&#x134;" horiz-adv-x="985" 
d="M180 307l-177.999 -128.999c83.333 -122.667 209.666 -186 378.999 -190c122.667 1.33301 230.334 43 323.001 125c93.333 80 141.333 193.333 144 340v1005h-221v-983c0 -49.333 -7.66699 -90.333 -23 -123c-14.667 -34 -35 -61.333 -61 -82
c-53.333 -42 -109.333 -62.333 -168 -61c-44 0 -82.333 10.333 -115 31c-32.667 17.333 -59.334 39.666 -80.001 66.999v0zM735.001 1705l137 -176h197l-218 299h-233l-217 -299h197l137 176v0z" />
    <glyph glyph-name="Kcedilla" unicode="&#x136;" horiz-adv-x="1290" 
d="M154 0h221v444l256 269v0l397 -713h262l-516 883l467 575h-262l-600 -751h-4v751h-221v-1458zM557 -76h209v-250l-209 -151v401z" />
    <glyph glyph-name="kcedilla" unicode="&#x137;" horiz-adv-x="1063" 
d="M135 0h209v299l164 186v0l276 -485h262l-407 633l358 405h-250l-399 -487h-4v907h-209v-1458zM446 -76h209v-250l-209 -151v401z" />
    <glyph glyph-name="Lacute" unicode="&#x139;" horiz-adv-x="1139" 
d="M154 0h931v209h-710v1249h-221v-1458zM371 1828h275l-291 -299h-172z" />
    <glyph glyph-name="lacute" unicode="&#x13a;" horiz-adv-x="528" 
d="M135 252c0 -91.333 26 -156.333 78 -195c49.333 -38 112 -57 188 -57h93v197h-72c-52 0 -78 23.667 -78 71v1190h-209v-1206zM334 1828h275l-291 -299h-172z" />
    <glyph glyph-name="Lcedilla" unicode="&#x13b;" horiz-adv-x="1139" 
d="M154 0h931v209h-710v1249h-221v-1458zM512 -76h209v-250l-209 -151v401z" />
    <glyph glyph-name="lcedilla" unicode="&#x13c;" horiz-adv-x="528" 
d="M135 252c0 -91.333 26 -156.333 78 -195c49.333 -38 112 -57 188 -57h93v197h-72c-52 0 -78 23.667 -78 71v1190h-209v-1206zM207 -76h209v-250l-209 -151v401z" />
    <glyph glyph-name="Lcaron" unicode="&#x13d;" horiz-adv-x="1139" 
d="M154 0h931v209h-710v1249h-221v-1458zM-69 1828h197l137 -176v0l137 176h197l-218 -299h-233z" />
    <glyph glyph-name="lcaron" unicode="&#x13e;" horiz-adv-x="528" 
d="M135 252c0 -91.333 26 -156.333 78 -195c49.333 -38 112 -57 188 -57h93v197h-72c-52 0 -78 23.667 -78 71v1190h-209v-1206zM-98 1828h197l137 -176v0l137 176h197l-218 -299h-233z" />
    <glyph glyph-name="Lslash" unicode="&#x141;" horiz-adv-x="1139" 
d="M154 500v-500h931v209h-710v446l317 230v184v0l-317 -229v0v618h-221v-774l-150 -113v-184v0l150 113v0z" />
    <glyph glyph-name="lslash" unicode="&#x142;" horiz-adv-x="528" 
d="M135 633v-381c0 -91.333 26 -156.333 78 -195c49.333 -38 112 -57 188 -57h93v197h-82c-44 0 -66.667 23.667 -68 71v525l135 106v152v0l-135 -107v0v514h-209v-674l-135 -106v-152v0l135 107v0z" />
    <glyph glyph-name="Nacute" unicode="&#x143;" horiz-adv-x="1401" 
d="M154 0h221v1036h4l659 -1036h209v1458h-221v-1036h-4l-660 1036h-208v-1458zM760 1828h275l-291 -299h-172z" />
    <glyph glyph-name="nacute" unicode="&#x144;" horiz-adv-x="1100" 
d="M135 0h209v618c0 72.667 19.667 128 59 166c38.667 38.667 88 58 148 58s109 -19.333 147 -58c38.667 -38 58 -93.333 58 -166v-618h209v690c-3.33301 118.667 -40.333 208.667 -111 270c-71.333 60.667 -150 91 -236 91c-111.333 0 -201.333 -41 -270 -123h-4v110h-209
v-1038zM588 1470h275l-291 -299h-172z" />
    <glyph glyph-name="Ncedilla" unicode="&#x145;" horiz-adv-x="1401" 
d="M154 0h221v1036h4l659 -1036h209v1458h-221v-1036h-4l-660 1036h-208v-1458zM598 -76h209v-250l-209 -151v401z" />
    <glyph glyph-name="ncedilla" unicode="&#x146;" horiz-adv-x="1100" 
d="M135 0h209v618c0 72.667 19.667 128 59 166c38.667 38.667 88 58 148 58s109 -19.333 147 -58c38.667 -38 58 -93.333 58 -166v-618h209v690c-3.33301 118.667 -40.333 208.667 -111 270c-71.333 60.667 -150 91 -236 91c-111.333 0 -201.333 -41 -270 -123h-4v110h-209
v-1038zM448 -76h209v-250l-209 -151v401z" />
    <glyph glyph-name="Ncaron" unicode="&#x147;" horiz-adv-x="1401" 
d="M154 0h221v1036h4l659 -1036h209v1458h-221v-1036h-4l-660 1036h-208v-1458zM367 1828h197l137 -176v0l137 176h197l-218 -299h-233z" />
    <glyph glyph-name="ncaron" unicode="&#x148;" horiz-adv-x="1100" 
d="M135 0h209v618c0 72.667 19.667 128 59 166c38.667 38.667 88 58 148 58s109 -19.333 147 -58c38.667 -38 58 -93.333 58 -166v-618h209v690c-3.33301 118.667 -40.333 208.667 -111 270c-71.333 60.667 -150 91 -236 91c-111.333 0 -201.333 -41 -270 -123h-4v110h-209
v-1038zM216 1470h197l137 -176v0l137 176h197l-218 -299h-233z" />
    <glyph glyph-name="napostrophe" unicode="&#x149;" horiz-adv-x="1343" 
d="M1 1098l209 151v209h-209v-360zM317 0h209v618c0 72.667 19.667 128 59 166c38.667 38.667 88 58 148 58s109 -19.333 147 -58c38.667 -38 58 -93.333 58 -166v-618h209v690c-3.33301 118.667 -40.333 208.667 -111 270c-71.333 60.667 -150 91 -236 91
c-111.333 0 -201.333 -41 -270 -123h-4v110h-209v-1038z" />
    <glyph glyph-name="Omacron" unicode="&#x14c;" horiz-adv-x="1249" 
d="M104 729c0 -166.667 4.99902 -279.334 14.999 -338.001c5.33301 -31.333 12 -57.333 20 -78c8.66699 -20 18.334 -41 29.001 -63c35.333 -67.333 92 -126.666 170 -177.999c76.667 -53.333 172.334 -81.333 287.001 -84c116 2.66699 212.667 30.667 290 84
c76.667 51.333 132 110.666 166 177.999c24.667 35.333 41.667 82.333 51 141c8.66699 58.667 13 171.334 13 338.001c0 169.333 -4.33301 282.666 -13 339.999c-9.33301 57.333 -26.333 103.666 -51 138.999c-34 67.333 -89.333 127.333 -166 180
c-77.333 53.333 -174 80.666 -290 81.999c-114.667 -1.33301 -210.334 -28.666 -287.001 -81.999c-78 -52.667 -134.667 -112.667 -170 -180c-22 -35.333 -38.333 -81.666 -49 -138.999c-10 -57.333 -15 -170.666 -15 -339.999v0zM325.999 729c0 143.333 5.33301 241 16 293
c9.33301 49.333 28.333 89.666 57 120.999c23.333 30 54 55 92 75c37.333 19.333 82 29.666 134 30.999c52.667 -1.33301 98.334 -11.666 137.001 -30.999c36.667 -20 66 -45 88 -75c28.667 -31.333 48.334 -71.666 59.001 -120.999c10 -52 15 -149.667 15 -293
s-5 -240.333 -15 -291c-10.667 -50.667 -30.334 -91.667 -59.001 -123c-22 -30 -51.333 -54.333 -88 -73c-38.667 -22 -84.334 -33 -137.001 -33c-52 0 -96.667 11 -134 33c-38 18.667 -68.667 43 -92 73c-28.667 31.333 -47.667 72.333 -57 123
c-10.667 50.667 -16 147.667 -16 291v0zM333.999 1736h590v-135h-590v135z" />
    <glyph glyph-name="omacron" unicode="&#x14d;" 
d="M84 520c0 -109.333 9.00195 -192.666 27.002 -249.999c18.667 -57.333 47.334 -107 86.001 -149c28.667 -32.667 68.667 -62 120 -88c50.667 -28.667 115.667 -43.667 195 -45c82 1.33301 148.333 16.333 199 45c27.333 12 49.666 26.333 66.999 43
c19.333 14.667 35.666 29.667 48.999 45c41.333 42 70.666 91.667 87.999 149c16.667 57.333 25 140.666 25 249.999s-8.33301 193.333 -25 252c-17.333 57.333 -46.666 105.666 -87.999 144.999c-27.333 34.667 -66 65.667 -116 93c-50.667 26 -117 39.667 -199 41
c-79.333 -1.33301 -144.333 -15 -195 -41c-51.333 -27.333 -91.333 -58.333 -120 -93c-38.667 -39.333 -67.334 -87.666 -86.001 -144.999c-18 -58.667 -27 -142.667 -27 -252v0zM731.002 518c0 -70.667 -3.33301 -122.667 -10 -156c-6.66699 -34 -20.334 -64 -41.001 -90
c-15.333 -20 -38 -37.667 -68 -53c-28.667 -14.667 -62 -22 -100 -22c-35.333 0 -68 7.33301 -98 22c-28.667 15.333 -52 33 -70 53c-18 26 -31 56 -39 90c-8 33.333 -12 86 -12 158c0 72.667 4 126 12 160c8 32.667 21 61.334 39 86.001c18 23.333 41.333 41.666 70 54.999
c30 14 62.667 21 98 21c38 0 71.333 -7 100 -21c30 -13.333 52.667 -31.666 68 -54.999c20.667 -24.667 34.334 -53.334 41.001 -86.001c6.66699 -34 10 -88 10 -162v0zM218.002 1378h590v-135h-590v135z" />
    <glyph glyph-name="Obreve" unicode="&#x14e;" horiz-adv-x="1249" 
d="M104 729c0 -166.667 4.99902 -279.334 14.999 -338.001c5.33301 -31.333 12 -57.333 20 -78c8.66699 -20 18.334 -41 29.001 -63c35.333 -67.333 92 -126.666 170 -177.999c76.667 -53.333 172.334 -81.333 287.001 -84c116 2.66699 212.667 30.667 290 84
c76.667 51.333 132 110.666 166 177.999c24.667 35.333 41.667 82.333 51 141c8.66699 58.667 13 171.334 13 338.001c0 169.333 -4.33301 282.666 -13 339.999c-9.33301 57.333 -26.333 103.666 -51 138.999c-34 67.333 -89.333 127.333 -166 180
c-77.333 53.333 -174 80.666 -290 81.999c-114.667 -1.33301 -210.334 -28.666 -287.001 -81.999c-78 -52.667 -134.667 -112.667 -170 -180c-22 -35.333 -38.333 -81.666 -49 -138.999c-10 -57.333 -15 -170.666 -15 -339.999v0zM325.999 729c0 143.333 5.33301 241 16 293
c9.33301 49.333 28.333 89.666 57 120.999c23.333 30 54 55 92 75c37.333 19.333 82 29.666 134 30.999c52.667 -1.33301 98.334 -11.666 137.001 -30.999c36.667 -20 66 -45 88 -75c28.667 -31.333 48.334 -71.666 59.001 -120.999c10 -52 15 -149.667 15 -293
s-5 -240.333 -15 -291c-10.667 -50.667 -30.334 -91.667 -59.001 -123c-22 -30 -51.333 -54.333 -88 -73c-38.667 -22 -84.334 -33 -137.001 -33c-52 0 -96.667 11 -134 33c-38 18.667 -68.667 43 -92 73c-28.667 31.333 -47.667 72.333 -57 123
c-10.667 50.667 -16 147.667 -16 291v0zM422.999 1828c14 -54.667 37.999 -93.332 71.999 -115.999c35.333 -23.333 80.333 -35 135 -35c50.667 -1.33301 94.334 9.66699 131.001 33c38 21.333 63.333 60.666 76 117.999h123c-7.33301 -86 -39 -154 -95 -204
c-56 -54.667 -134.333 -82 -235 -82c-98.667 0 -175.667 27.333 -231 82c-57.333 50 -90.333 118 -99 204h123z" />
    <glyph glyph-name="obreve" unicode="&#x14f;" 
d="M84 520c0 -109.333 9.00195 -192.666 27.002 -249.999c18.667 -57.333 47.334 -107 86.001 -149c28.667 -32.667 68.667 -62 120 -88c50.667 -28.667 115.667 -43.667 195 -45c82 1.33301 148.333 16.333 199 45c27.333 12 49.666 26.333 66.999 43
c19.333 14.667 35.666 29.667 48.999 45c41.333 42 70.666 91.667 87.999 149c16.667 57.333 25 140.666 25 249.999s-8.33301 193.333 -25 252c-17.333 57.333 -46.666 105.666 -87.999 144.999c-27.333 34.667 -66 65.667 -116 93c-50.667 26 -117 39.667 -199 41
c-79.333 -1.33301 -144.333 -15 -195 -41c-51.333 -27.333 -91.333 -58.333 -120 -93c-38.667 -39.333 -67.334 -87.666 -86.001 -144.999c-18 -58.667 -27 -142.667 -27 -252v0zM731.002 518c0 -70.667 -3.33301 -122.667 -10 -156c-6.66699 -34 -20.334 -64 -41.001 -90
c-15.333 -20 -38 -37.667 -68 -53c-28.667 -14.667 -62 -22 -100 -22c-35.333 0 -68 7.33301 -98 22c-28.667 15.333 -52 33 -70 53c-18 26 -31 56 -39 90c-8 33.333 -12 86 -12 158c0 72.667 4 126 12 160c8 32.667 21 61.334 39 86.001c18 23.333 41.333 41.666 70 54.999
c30 14 62.667 21 98 21c38 0 71.333 -7 100 -21c30 -13.333 52.667 -31.666 68 -54.999c20.667 -24.667 34.334 -53.334 41.001 -86.001c6.66699 -34 10 -88 10 -162v0zM306.002 1470c14 -54.667 37.999 -93.332 71.999 -115.999c35.333 -23.333 80.333 -35 135 -35
c50.667 -1.33301 94.334 9.66699 131.001 33c38 21.333 63.333 60.666 76 117.999h123c-7.33301 -86 -39 -154 -95 -204c-56 -54.667 -134.333 -82 -235 -82c-98.667 0 -175.667 27.333 -231 82c-57.333 50 -90.333 118 -99 204h123z" />
    <glyph glyph-name="Ohungarumlaut" unicode="&#x150;" horiz-adv-x="1249" 
d="M104 729c0 -166.667 4.99902 -279.334 14.999 -338.001c5.33301 -31.333 12 -57.333 20 -78c8.66699 -20 18.334 -41 29.001 -63c35.333 -67.333 92 -126.666 170 -177.999c76.667 -53.333 172.334 -81.333 287.001 -84c116 2.66699 212.667 30.667 290 84
c76.667 51.333 132 110.666 166 177.999c24.667 35.333 41.667 82.333 51 141c8.66699 58.667 13 171.334 13 338.001c0 169.333 -4.33301 282.666 -13 339.999c-9.33301 57.333 -26.333 103.666 -51 138.999c-34 67.333 -89.333 127.333 -166 180
c-77.333 53.333 -174 80.666 -290 81.999c-114.667 -1.33301 -210.334 -28.666 -287.001 -81.999c-78 -52.667 -134.667 -112.667 -170 -180c-22 -35.333 -38.333 -81.666 -49 -138.999c-10 -57.333 -15 -170.666 -15 -339.999v0zM325.999 729c0 143.333 5.33301 241 16 293
c9.33301 49.333 28.333 89.666 57 120.999c23.333 30 54 55 92 75c37.333 19.333 82 29.666 134 30.999c52.667 -1.33301 98.334 -11.666 137.001 -30.999c36.667 -20 66 -45 88 -75c28.667 -31.333 48.334 -71.666 59.001 -120.999c10 -52 15 -149.667 15 -293
s-5 -240.333 -15 -291c-10.667 -50.667 -30.334 -91.667 -59.001 -123c-22 -30 -51.333 -54.333 -88 -73c-38.667 -22 -84.334 -33 -137.001 -33c-52 0 -96.667 11 -134 33c-38 18.667 -68.667 43 -92 73c-28.667 31.333 -47.667 72.333 -57 123
c-10.667 50.667 -16 147.667 -16 291v0zM463.999 1529h-172l188 299h275zM835.999 1529h-172l189 299h274z" />
    <glyph glyph-name="ohungarumlaut" unicode="&#x151;" 
d="M84 520c0 -109.333 9.00195 -192.666 27.002 -249.999c18.667 -57.333 47.334 -107 86.001 -149c28.667 -32.667 68.667 -62 120 -88c50.667 -28.667 115.667 -43.667 195 -45c82 1.33301 148.333 16.333 199 45c27.333 12 49.666 26.333 66.999 43
c19.333 14.667 35.666 29.667 48.999 45c41.333 42 70.666 91.667 87.999 149c16.667 57.333 25 140.666 25 249.999s-8.33301 193.333 -25 252c-17.333 57.333 -46.666 105.666 -87.999 144.999c-27.333 34.667 -66 65.667 -116 93c-50.667 26 -117 39.667 -199 41
c-79.333 -1.33301 -144.333 -15 -195 -41c-51.333 -27.333 -91.333 -58.333 -120 -93c-38.667 -39.333 -67.334 -87.666 -86.001 -144.999c-18 -58.667 -27 -142.667 -27 -252v0zM731.002 518c0 -70.667 -3.33301 -122.667 -10 -156c-6.66699 -34 -20.334 -64 -41.001 -90
c-15.333 -20 -38 -37.667 -68 -53c-28.667 -14.667 -62 -22 -100 -22c-35.333 0 -68 7.33301 -98 22c-28.667 15.333 -52 33 -70 53c-18 26 -31 56 -39 90c-8 33.333 -12 86 -12 158c0 72.667 4 126 12 160c8 32.667 21 61.334 39 86.001c18 23.333 41.333 41.666 70 54.999
c30 14 62.667 21 98 21c38 0 71.333 -7 100 -21c30 -13.333 52.667 -31.666 68 -54.999c20.667 -24.667 34.334 -53.334 41.001 -86.001c6.66699 -34 10 -88 10 -162v0zM351.002 1171h-172l188 299h275zM723.002 1171h-172l189 299h274z" />
    <glyph glyph-name="OE" unicode="&#x152;" horiz-adv-x="1896" 
d="M326 729c0 143.333 5.33301 241 16 293c9.33301 49.333 28.333 89.666 57 120.999c23.333 30 54 55 92 75c37.333 19.333 82 29.666 134 30.999c52.667 -1.33301 98.334 -11.666 137.001 -30.999c36.667 -20 66 -45 88 -75
c28.667 -31.333 48.334 -71.666 59.001 -120.999c10 -52 15 -149.667 15 -293s-5 -240.333 -15 -291c-10.667 -50.667 -30.334 -91.667 -59.001 -123c-22 -30 -51.333 -54.333 -88 -73c-38.667 -22 -84.334 -33 -137.001 -33c-52 0 -96.667 11 -134 33
c-38 18.667 -68.667 43 -92 73c-28.667 31.333 -47.667 72.333 -57 123c-10.667 50.667 -16 147.667 -16 291v0zM924 115l-0.00195312 -115.003h919v209h-698v428h590v196h-590v416h694v209h-915v-113v0c-38.667 45.333 -84 77.666 -136 96.999
c-51.333 18.667 -105.666 28 -162.999 28c-114.667 -1.33301 -210.334 -28.666 -287.001 -81.999c-78 -52.667 -134.667 -112.667 -170 -180c-22 -35.333 -38.333 -81.666 -49 -138.999c-10 -57.333 -15 -170.666 -15 -339.999c0 -166.667 5 -279.334 15 -338.001
c5.33301 -31.333 12 -57.333 20 -78c8.66699 -20 18.334 -41 29.001 -63c35.333 -67.333 92 -126.666 170 -177.999c76.667 -53.333 172.334 -81.333 287.001 -84c52.667 0 107 11.667 163 35c56 22.667 101.333 53.334 136 92.001v0z" />
    <glyph glyph-name="oe" unicode="&#x153;" horiz-adv-x="1671" 
d="M1587 612c-1.33301 136.667 -43.666 243.999 -126.999 321.999c-82 76.667 -182.333 115.667 -301 117c-129.333 -1.33301 -236.333 -55.333 -321 -162v0c-86 106.667 -194.667 160.667 -326 162c-79.333 -1.33301 -144.333 -15 -195 -41
c-51.333 -27.333 -91.333 -58.333 -120 -93c-38.667 -39.333 -67.334 -87.666 -86.001 -144.999c-18 -58.667 -27 -142.667 -27 -252s9 -192.666 27 -249.999c18.667 -57.333 47.334 -107 86.001 -149c28.667 -32.667 68.667 -62 120 -88
c50.667 -28.667 115.667 -43.667 195 -45c140.667 2.66699 249.334 58 326.001 166v0c66.667 -106.667 184.667 -162 354 -166c143.333 -1.33301 268.333 54.667 375 168l-152 129v0c-66.667 -67.333 -142.334 -101 -227.001 -101c-72.667 0 -131.334 22 -176.001 66
c-48 43.333 -72 106.666 -72 189.999h647v172zM731 517.999c0 -78 -3.33301 -134.001 -10 -168.001s-20.334 -64 -41.001 -90c-15.333 -20.667 -38 -38.334 -68 -53.001c-28.667 -15.333 -62 -23 -100 -23c-35.333 0 -68 7.66699 -98 23
c-28.667 14.667 -52 32.334 -70 53.001c-18 26 -31 56 -39 90s-12 90.667 -12 170s4 136 12 170s21 63.333 39 88c18 23.333 41.333 41.666 70 54.999c30 14 62.667 21 98 21c38 0 71.333 -7 100 -21c30 -13.333 52.667 -31.666 68 -54.999
c20.667 -24.667 34.334 -54 41.001 -88c6.66699 -35.333 10 -92.666 10 -171.999v0zM940 611.998c4 80.667 25.666 141.667 64.999 183c40 39.333 91.333 59 154 59s114 -19.667 154 -59c40.667 -41.333 62.334 -102.333 65.001 -183h-438z" />
    <glyph glyph-name="Racute" unicode="&#x154;" horiz-adv-x="1249" 
d="M375 1261l346.001 -0.000976562c70.667 0 124.667 -15 162 -45c47.333 -34 71.666 -89 72.999 -165c0 -63.333 -20.333 -116.666 -61 -159.999c-41.333 -46.667 -103.333 -70.667 -186 -72h-334v442zM154.001 -0.000976562l221 -0.000976562v623h282l301 -623h263
l-338 647c185.333 71.333 279.333 206 282 404c-4 134.667 -52.333 238.334 -145 311.001c-76.667 64 -175.667 96 -297 96h-569v-1458zM637.001 1828h275l-291 -299h-172z" />
    <glyph glyph-name="racute" unicode="&#x155;" horiz-adv-x="797" 
d="M135 0h209v625c1.33301 76 23.333 131 66 165c38 34.667 83.667 52 137 52c47.333 0 93 -17.333 137 -52v0l152 181c-62 52 -134.667 78.667 -218 80c-111.333 0 -201.333 -41 -270 -123h-4v110h-209v-1038zM524 1470h275l-291 -299h-172z" />
    <glyph glyph-name="Rcedilla" unicode="&#x156;" horiz-adv-x="1249" 
d="M375 1261l346.001 -0.000976562c70.667 0 124.667 -15 162 -45c47.333 -34 71.666 -89 72.999 -165c0 -63.333 -20.333 -116.666 -61 -159.999c-41.333 -46.667 -103.333 -70.667 -186 -72h-334v442zM154.001 -0.000976562l221 -0.000976562v623h282l301 -623h263
l-338 647c185.333 71.333 279.333 206 282 404c-4 134.667 -52.333 238.334 -145 311.001c-76.667 64 -175.667 96 -297 96h-569v-1458zM546.001 -76.002h209v-250l-209 -151v401z" />
    <glyph glyph-name="rcedilla" unicode="&#x157;" horiz-adv-x="797" 
d="M135 0h209v625c1.33301 76 23.333 131 66 165c38 34.667 83.667 52 137 52c47.333 0 93 -17.333 137 -52v0l152 181c-62 52 -134.667 78.667 -218 80c-111.333 0 -201.333 -41 -270 -123h-4v110h-209v-1038zM140 -76h209v-250l-209 -151v401z" />
    <glyph glyph-name="Rcaron" unicode="&#x158;" horiz-adv-x="1249" 
d="M375 1261l346.001 -0.000976562c70.667 0 124.667 -15 162 -45c47.333 -34 71.666 -89 72.999 -165c0 -63.333 -20.333 -116.666 -61 -159.999c-41.333 -46.667 -103.333 -70.667 -186 -72h-334v442zM154.001 -0.000976562l221 -0.000976562v623h282l301 -623h263
l-338 647c185.333 71.333 279.333 206 282 404c-4 134.667 -52.333 238.334 -145 311.001c-76.667 64 -175.667 96 -297 96h-569v-1458zM257.001 1828h197l137 -176v0l137 176h197l-218 -299h-233z" />
    <glyph glyph-name="rcaron" unicode="&#x159;" horiz-adv-x="797" 
d="M135 0h209v625c1.33301 76 23.333 131 66 165c38 34.667 83.667 52 137 52c47.333 0 93 -17.333 137 -52v0l152 181c-62 52 -134.667 78.667 -218 80c-111.333 0 -201.333 -41 -270 -123h-4v110h-209v-1038zM152 1470h197l137 -176v0l137 176h197l-218 -299h-233z" />
    <glyph glyph-name="Sacute" unicode="&#x15a;" horiz-adv-x="1176" 
d="M172 354l-144.997 -166c155.333 -133.333 341 -200 557 -200c334 4 504.667 145.333 512 424c0 103.333 -32.333 194 -97 272c-65.333 79.333 -166.333 128.333 -303 147c-69.333 8.66699 -124 16.334 -164 23.001c-72 13.333 -124.333 37.333 -157 72
c-32.667 34 -49 72 -49 114c1.33301 70 25.666 122.667 72.999 158c45.333 34 102 51 170 51c131.333 -2.66699 251.666 -40 360.999 -112v0l123 182c-134 96.667 -291.667 147 -473 151c-150.667 -1.33301 -267 -40.666 -349 -117.999c-84.667 -78 -127 -180.667 -127 -308
c0 -106 33.667 -196 101 -270c65.333 -72 160.666 -118.333 285.999 -139l193 -27c128 -22 191.333 -87.333 190 -196c-2.66699 -132.667 -98.667 -200.334 -288 -203.001c-160 1.33301 -298 49.666 -414 144.999v0zM633.003 1828h275l-291 -299h-172z" />
    <glyph glyph-name="sacute" unicode="&#x15b;" horiz-adv-x="983" 
d="M166 317l-145.999 -142.999c135.333 -124 287.666 -186 456.999 -186c124.667 1.33301 227 30 307 86c80.667 54.667 121.667 132.334 123 233.001c0 86 -22.333 157 -67 213c-48 57.333 -126 90 -234 98l-172 13c-50.667 5.33301 -86 17.666 -106 36.999
c-22 17.333 -32.333 37.666 -31 60.999c0 36.667 13.667 66.667 41 90c26 23.333 71.667 35 137 35c57.333 0 108 -8.33301 152 -25c44.667 -18.667 87 -42.334 127 -71.001v0l129 151c-50.667 44 -108 79 -172 105c-33.333 12 -69 21.333 -107 28c-38 6 -81 9 -129 9
c-110.667 0 -202 -26.667 -274 -80c-74 -53.333 -111.667 -133.333 -113 -240c1.33301 -88.667 30 -157.667 86 -207c54.667 -50.667 125.667 -80 213 -88l184 -16c38.667 -1.33301 69.667 -9.66602 93 -24.999c22.667 -14.667 34 -40.667 34 -78c0 -42 -19 -74.667 -57 -98
s-87 -35 -147 -35c-134 0 -243.333 44.333 -328 133v0zM535.001 1470h275l-291 -299h-172z" />
    <glyph glyph-name="Scircumflex" unicode="&#x15c;" horiz-adv-x="1176" 
d="M172 354l-144.997 -166c155.333 -133.333 341 -200 557 -200c334 4 504.667 145.333 512 424c0 103.333 -32.333 194 -97 272c-65.333 79.333 -166.333 128.333 -303 147c-69.333 8.66699 -124 16.334 -164 23.001c-72 13.333 -124.333 37.333 -157 72
c-32.667 34 -49 72 -49 114c1.33301 70 25.666 122.667 72.999 158c45.333 34 102 51 170 51c131.333 -2.66699 251.666 -40 360.999 -112v0l123 182c-134 96.667 -291.667 147 -473 151c-150.667 -1.33301 -267 -40.666 -349 -117.999c-84.667 -78 -127 -180.667 -127 -308
c0 -106 33.667 -196 101 -270c65.333 -72 160.666 -118.333 285.999 -139l193 -27c128 -22 191.333 -87.333 190 -196c-2.66699 -132.667 -98.667 -200.334 -288 -203.001c-160 1.33301 -298 49.666 -414 144.999v0zM437.003 1529h-197l217 299h233l218 -299h-197l-137 176z
" />
    <glyph glyph-name="scircumflex" unicode="&#x15d;" horiz-adv-x="983" 
d="M166 317l-145.999 -142.999c135.333 -124 287.666 -186 456.999 -186c124.667 1.33301 227 30 307 86c80.667 54.667 121.667 132.334 123 233.001c0 86 -22.333 157 -67 213c-48 57.333 -126 90 -234 98l-172 13c-50.667 5.33301 -86 17.666 -106 36.999
c-22 17.333 -32.333 37.666 -31 60.999c0 36.667 13.667 66.667 41 90c26 23.333 71.667 35 137 35c57.333 0 108 -8.33301 152 -25c44.667 -18.667 87 -42.334 127 -71.001v0l129 151c-50.667 44 -108 79 -172 105c-33.333 12 -69 21.333 -107 28c-38 6 -81 9 -129 9
c-110.667 0 -202 -26.667 -274 -80c-74 -53.333 -111.667 -133.333 -113 -240c1.33301 -88.667 30 -157.667 86 -207c54.667 -50.667 125.667 -80 213 -88l184 -16c38.667 -1.33301 69.667 -9.66602 93 -24.999c22.667 -14.667 34 -40.667 34 -78c0 -42 -19 -74.667 -57 -98
s-87 -35 -147 -35c-134 0 -243.333 44.333 -328 133v0zM359.001 1171h-197l217 299h233l218 -299h-197l-137 176z" />
    <glyph glyph-name="Scedilla" unicode="&#x15e;" horiz-adv-x="1176" 
d="M172 354c114.667 -94 252.667 -142.33 414 -144.997c189.333 1.33301 285.333 69 288 203c2 107.333 -61.333 172.666 -190 195.999l-192 27c-126 20.667 -221.667 67 -287 139c-67.333 72.667 -101 162.667 -101 270c0 127.333 42.333 230 127 308
c80.667 76 197 115.333 349 118c181.333 -4 339 -54.333 473 -151l-123 -182c-110.667 73.333 -231 110.666 -361 111.999c-69.333 0 -126 -17 -170 -51c-46 -34 -70.333 -86.667 -73 -158c0 -42 16.333 -80 49 -114c31.333 -32.667 83.666 -56.667 156.999 -72l70 -10
c27.333 -4 58.666 -8.33301 93.999 -13c136.667 -17.333 237.667 -66.333 303 -147c64.667 -79.333 97 -170 97 -272c-6 -261.333 -156.333 -401.333 -451 -420l-82 -115h4c12.667 5.33301 31.334 8 56.001 8c58.667 0 103 -15 133 -45c31.333 -31.333 47 -68 47 -110
c-1.33301 -64.667 -26 -112.667 -74 -144c-48 -32.667 -107.333 -49 -178 -49c-65.333 1.33301 -134.333 17.666 -207 48.999l37 86c48 -18.667 95.667 -28.667 143 -30c76.667 0 116.334 28.667 119.001 86c0 26 -9 45 -27 57c-20 12 -44.333 18 -73 18
c-24.667 1.33301 -50.667 -6 -78 -22l-45 39l121 170c-198 8 -369.333 74 -514 198l145 166v0z" />
    <glyph glyph-name="scedilla" unicode="&#x15f;" horiz-adv-x="983" 
d="M166 317c84.667 -88.667 194 -132.999 328 -132.999c58.667 0 107.667 11.667 147 35c38 22 57 54.667 57 98c0 37.333 -11.333 63.333 -34 78c-23.333 14 -54.333 22.333 -93 25l-184 16c-87.333 8.66699 -158.333 38 -213 88
c-54.667 49.333 -83.334 118.333 -86.001 207c2.66699 106.667 40.334 186.667 113.001 240c70.667 53.333 162 80 274 80c23.333 0 45.833 -0.666992 67.5 -2s42.167 -3.66602 61.5 -6.99902c19.333 -2.66699 37.833 -6.33398 55.5 -11.001s34.834 -10.334 51.501 -17.001
c62.667 -27.333 120 -62.333 172 -105l-129 -151c-40 30 -82.333 53.667 -127 71c-44 16.667 -94.667 25 -152 25c-64 0 -109.667 -11.667 -137 -35s-41 -53.333 -41 -90c-2.66699 -23.333 7.66602 -43.666 30.999 -60.999c20 -19.333 55.333 -31.666 106 -36.999l172 -13
c108 -8 186 -40.667 234 -98c44.667 -56 67 -127 67 -213c-2.66699 -100.667 -43.667 -178.334 -123 -233.001c-66.667 -46.667 -149.667 -74 -249 -82l-82 -115h4c12 5.33301 30.333 8 55 8c58.667 0 103 -15 133 -45c31.333 -31.333 47 -68 47 -110
c-1.33301 -64.667 -26 -112.667 -74 -144c-47.333 -32.667 -106.666 -49 -177.999 -49c-65.333 1.33301 -134.333 17.666 -207 48.999l37 86c48 -18.667 96 -28.667 144 -30c76 0 115.333 28.667 118 86c0 26 -8.66699 45 -26 57c-20.667 12 -45.334 18 -74.001 18
c-24.667 1.33301 -50.667 -6 -78 -22l-45 39l121 170c-76.667 5.33301 -148.667 23 -216 53s-132 73.667 -194 131l146 143v0z" />
    <glyph glyph-name="Scaron" unicode="&#x160;" horiz-adv-x="1175" 
d="M172 354l-144.997 -166c155.333 -133.333 341 -200 557 -200c334 4 504.667 145.333 512 424c0 103.333 -32.333 194 -97 272c-65.333 79.333 -166.333 128.333 -303 147c-69.333 8.66699 -124 16.334 -164 23.001c-72 13.333 -124.333 37.333 -157 72
c-32.667 34 -49 72 -49 114c1.33301 70 25.666 122.667 72.999 158c45.333 34 102 51 170 51c131.333 -2.66699 251.666 -40 360.999 -112v0l123 182c-134 96.667 -291.667 147 -473 151c-150.667 -1.33301 -267 -40.666 -349 -117.999c-84.667 -78 -127 -180.667 -127 -308
c0 -106 33.667 -196 101 -270c65.333 -72 160.666 -118.333 285.999 -139l193 -27c128 -22 191.333 -87.333 190 -196c-2.66699 -132.667 -98.667 -200.334 -288 -203.001c-160 1.33301 -298 49.666 -414 144.999v0zM478.003 1529h233l218 299h-197l-137 -176v0l-137 176
h-197z" />
    <glyph glyph-name="scaron.001" unicode="&#x161;" horiz-adv-x="983" 
d="M166 317l-145.999 -142.999c135.333 -124 287.666 -186 456.999 -186c124.667 1.33301 227 30 307 86c80.667 54.667 121.667 132.334 123 233.001c0 86 -22.333 157 -67 213c-48 57.333 -126 90 -234 98l-172 13c-50.667 5.33301 -86 17.666 -106 36.999
c-22 17.333 -32.333 37.666 -31 60.999c0 36.667 13.667 66.667 41 90c26 23.333 71.667 35 137 35c57.333 0 108 -8.33301 152 -25c44.667 -18.667 87 -42.334 127 -71.001v0l129 151c-50.667 44 -108 79 -172 105c-33.333 12 -69 21.333 -107 28c-38 6 -81 9 -129 9
c-110.667 0 -202 -26.667 -274 -80c-74 -53.333 -111.667 -133.333 -113 -240c1.33301 -88.667 30 -157.667 86 -207c54.667 -50.667 125.667 -80 213 -88l184 -16c38.667 -1.33301 69.667 -9.66602 93 -24.999c22.667 -14.667 34 -40.667 34 -78c0 -42 -19 -74.667 -57 -98
s-87 -35 -147 -35c-134 0 -243.333 44.333 -328 133v0zM378.001 1171h233l218 299h-197l-137 -176v0l-137 176h-197z" />
    <glyph glyph-name="Tcedilla" unicode="&#x162;" 
d="M401 1262l-399.001 0.000976562v196h1020v-196h-399v-1262h-31l-90 -123h4c12 5.33301 30.333 8 55 8c58.667 0 103 -15 133 -45c31.333 -31.333 47 -68 47 -110c-1.33301 -64.667 -25.666 -112.667 -72.999 -144c-48 -32.667 -107.667 -49 -179 -49
c-65.333 1.33301 -134 17.666 -206 48.999l36 86c48 -18.667 96 -28.667 144 -30c76.667 0 116.334 28.667 119.001 86c0 26 -9 45 -27 57c-20.667 12 -45.334 18 -74.001 18c-24.667 1.33301 -50.667 -6 -78 -22l-45 39l129 180h-86v1262z" />
    <glyph glyph-name="tcedilla" unicode="&#x163;" horiz-adv-x="569" 
d="M399 0c-73.333 0 -133.334 22.668 -180.001 68.001c-48 43.333 -72 106 -72 188v623h-104v159h104v316h209v-316h152v-159h-152v-605c-2.66699 -54 22 -79.667 74 -77h78v-197l-90 -123h4c12 5.33301 30.333 8 55 8c58.667 0 103 -15 133 -45
c31.333 -31.333 47 -68 47 -110c-1.33301 -64.667 -25.666 -112.667 -72.999 -144c-48 -32.667 -107.333 -49 -178 -49c-66 1.33301 -135 17.666 -207 48.999l37 86c47.333 -18.667 95 -28.667 143 -30c76.667 0 116.334 28.667 119.001 86c0 26 -9 45 -27 57
c-20.667 12 -45.334 18 -74.001 18c-24.667 1.33301 -50.667 -6 -78 -22l-45 39l129 180h-4z" />
    <glyph glyph-name="Tcaron" unicode="&#x164;" 
d="M401 0h222v1261h399v197h-1020v-197h399v-1261zM179 1828h197l137 -176v0l137 176h197l-218 -299h-233z" />
    <glyph glyph-name="tcaron" unicode="&#x165;" horiz-adv-x="879" 
d="M147 1038l-103.999 -0.000976562v-159h104v-623c0 -82 24 -144.667 72 -188c46.667 -45.333 106.667 -68 180 -68h109v197h-78c-50.667 -1.33301 -75.334 24.334 -74.001 77.001v605h152v159h-152v316h-209v-316zM669.001 1098l209 151v209h-209v-360z" />
    <glyph glyph-name="Utilde" unicode="&#x168;" horiz-adv-x="1290" 
d="M127 494c1.33301 -153.333 51.999 -275 151.999 -365c98 -92.667 220 -139.667 366 -141c148.667 1.33301 271.667 48.333 369 141c96.667 90 146.334 211.667 149.001 365v964h-221v-940c-1.33301 -99.333 -29.333 -175 -84 -227c-56 -54.667 -127 -82 -213 -82
s-156.333 27.333 -211 82c-56 52 -84.667 127.667 -86 227v940h-221v-964zM400.999 1550c0 34 10.999 57.9961 32.999 71.9961c20.667 10.667 38.334 16 53.001 16c42.667 -1.33301 89.667 -13.666 141 -36.999c24.667 -9.33301 50.667 -17.666 78 -24.999
c26 -9.33301 51.333 -14 76 -14c69.333 1.33301 122 26 158 74c35.333 44.667 57.666 99.334 66.999 164.001h-123c-6.66699 -36 -18.667 -60 -36 -72c-19.333 -13.333 -39.333 -19.333 -60 -18c-20.667 0 -41 4.66699 -61 14c-22 6.66699 -45.333 15.667 -70 27
c-23.333 10.667 -47.333 19.334 -72 26.001c-24 6.66699 -49 10 -75 10c-63.333 0 -114.666 -21 -153.999 -63c-40.667 -44 -66.667 -102 -78 -174h123z" />
    <glyph glyph-name="utilde" unicode="&#x169;" horiz-adv-x="1100" 
d="M135 348c1.33301 -117.333 39.666 -206.001 114.999 -266.001c69.333 -61.333 147 -92.666 233 -93.999c110.667 0 200.334 41 269.001 123h4v-111h209v1038h-209v-618c0 -70 -19.333 -124.667 -58 -164c-38 -39.333 -87 -59 -147 -59s-109.333 19.667 -148 59
c-39.333 39.333 -59 94 -59 164v618h-209v-690zM307 1192c0 34 10.999 57.9961 32.999 71.9961c20.667 10.667 38.334 16 53.001 16c42.667 -1.33301 89.667 -13.666 141 -36.999c24.667 -9.33301 50.667 -17.666 78 -24.999c26 -9.33301 51.333 -14 76 -14
c69.333 1.33301 122 26 158 74c35.333 44.667 57.666 99.334 66.999 164.001h-123c-6.66699 -36 -18.667 -60 -36 -72c-19.333 -13.333 -39.333 -19.333 -60 -18c-20.667 0 -41 4.66699 -61 14c-22 6.66699 -45.333 15.667 -70 27c-23.333 10.667 -47.333 19.334 -72 26.001
c-24 6.66699 -49 10 -75 10c-63.333 0 -114.666 -21 -153.999 -63c-40.667 -44 -66.667 -102 -78 -174h123z" />
    <glyph glyph-name="Umacron" unicode="&#x16a;" horiz-adv-x="1290" 
d="M127 494c1.33301 -153.333 51.999 -275 151.999 -365c98 -92.667 220 -139.667 366 -141c148.667 1.33301 271.667 48.333 369 141c96.667 90 146.334 211.667 149.001 365v964h-221v-940c-1.33301 -99.333 -29.333 -175 -84 -227c-56 -54.667 -127 -82 -213 -82
s-156.333 27.333 -211 82c-56 52 -84.667 127.667 -86 227v940h-221v-964zM350.999 1736h590v-135h-590v135z" />
    <glyph glyph-name="umacron" unicode="&#x16b;" horiz-adv-x="1100" 
d="M135 348c1.33301 -117.333 39.666 -206.001 114.999 -266.001c69.333 -61.333 147 -92.666 233 -93.999c110.667 0 200.334 41 269.001 123h4v-111h209v1038h-209v-618c0 -70 -19.333 -124.667 -58 -164c-38 -39.333 -87 -59 -147 -59s-109.333 19.667 -148 59
c-39.333 39.333 -59 94 -59 164v618h-209v-690zM254 1378h590v-135h-590v135z" />
    <glyph glyph-name="Ubreve" unicode="&#x16c;" horiz-adv-x="1290" 
d="M127 494c1.33301 -153.333 51.999 -275 151.999 -365c98 -92.667 220 -139.667 366 -141c148.667 1.33301 271.667 48.333 369 141c96.667 90 146.334 211.667 149.001 365v964h-221v-940c-1.33301 -99.333 -29.333 -175 -84 -227c-56 -54.667 -127 -82 -213 -82
s-156.333 27.333 -211 82c-56 52 -84.667 127.667 -86 227v940h-221v-964zM438.999 1828c14 -54.667 37.999 -93.332 71.999 -115.999c35.333 -23.333 80.333 -35 135 -35c50.667 -1.33301 94.334 9.66699 131.001 33c38 21.333 63.333 60.666 76 117.999h123
c-7.33301 -86 -39 -154 -95 -204c-56 -54.667 -134.333 -82 -235 -82c-98.667 0 -175.667 27.333 -231 82c-57.333 50 -90.333 118 -99 204h123z" />
    <glyph glyph-name="ubreve" unicode="&#x16d;" horiz-adv-x="1100" 
d="M135 348c1.33301 -117.333 39.666 -206.001 114.999 -266.001c69.333 -61.333 147 -92.666 233 -93.999c110.667 0 200.334 41 269.001 123h4v-111h209v1038h-209v-618c0 -70 -19.333 -124.667 -58 -164c-38 -39.333 -87 -59 -147 -59s-109.333 19.667 -148 59
c-39.333 39.333 -59 94 -59 164v618h-209v-690zM343 1470c14 -54.667 37.999 -93.332 71.999 -115.999c35.333 -23.333 80.333 -35 135 -35c50.667 -1.33301 94.334 9.66699 131.001 33c38 21.333 63.333 60.666 76 117.999h123c-7.33301 -86 -39 -154 -95 -204
c-56 -54.667 -134.333 -82 -235 -82c-98.667 0 -175.667 27.333 -231 82c-57.333 50 -90.333 118 -99 204h123z" />
    <glyph glyph-name="Uring" unicode="&#x16e;" horiz-adv-x="1290" 
d="M127 494c1.33301 -153.333 51.999 -275 151.999 -365c98 -92.667 220 -139.667 366 -141c148.667 1.33301 271.667 48.333 369 141c96.667 90 146.334 211.667 149.001 365v964h-221v-940c-1.33301 -99.333 -29.333 -175 -84 -227c-56 -54.667 -127 -82 -213 -82
s-156.333 27.333 -211 82c-56 52 -84.667 127.667 -86 227v940h-221v-964zM434.999 1710c0 61.333 21 111.666 63 150.999c40 38 89.333 58 148 60c61.333 -2 111.666 -22 150.999 -60c38.667 -39.333 58.667 -89.666 60 -150.999c-1.33301 -58.667 -21.333 -108 -60 -148
c-39.333 -42 -89.666 -63 -150.999 -63c-58.667 0 -108 21 -148 63c-42 40 -63 89.333 -63 148zM516.999 1710c0 -36 13 -66.333 39 -91c24 -25.333 54 -38 90 -38c38 0 68.667 12.667 92 38c23.333 24.667 35.666 55 36.999 91c-1.33301 38 -13.666 68.667 -36.999 92
s-54 35.666 -92 36.999c-36 -1.33301 -66 -13.666 -90 -36.999c-26 -23.333 -39 -54 -39 -92z" />
    <glyph glyph-name="uring" unicode="&#x16f;" horiz-adv-x="1100" 
d="M135 348c1.33301 -117.333 39.666 -206.001 114.999 -266.001c69.333 -61.333 147 -92.666 233 -93.999c110.667 0 200.334 41 269.001 123h4v-111h209v1038h-209v-618c0 -70 -19.333 -124.667 -58 -164c-38 -39.333 -87 -59 -147 -59s-109.333 19.667 -148 59
c-39.333 39.333 -59 94 -59 164v618h-209v-690zM338 1352c0 61.333 21 111.666 63 150.999c40 38 89.333 58 148 60c61.333 -2 111.666 -22 150.999 -60c38.667 -39.333 58.667 -89.666 60 -150.999c-1.33301 -58.667 -21.333 -108 -60 -148
c-39.333 -42 -89.666 -63 -150.999 -63c-58.667 0 -108 21 -148 63c-42 40 -63 89.333 -63 148zM420 1352c0 -36 13 -66.333 39 -91c24 -25.333 54 -38 90 -38c38 0 68.667 12.667 92 38c23.333 24.667 35.666 55 36.999 91c-1.33301 38 -13.666 68.667 -36.999 92
s-54 35.666 -92 36.999c-36 -1.33301 -66 -13.666 -90 -36.999c-26 -23.333 -39 -54 -39 -92z" />
    <glyph glyph-name="Uhungarumlaut" unicode="&#x170;" horiz-adv-x="1290" 
d="M127 494c1.33301 -153.333 51.999 -275 151.999 -365c98 -92.667 220 -139.667 366 -141c148.667 1.33301 271.667 48.333 369 141c96.667 90 146.334 211.667 149.001 365v964h-221v-940c-1.33301 -99.333 -29.333 -175 -84 -227c-56 -54.667 -127 -82 -213 -82
s-156.333 27.333 -211 82c-56 52 -84.667 127.667 -86 227v940h-221v-964zM546.999 1529h-172l188 299h275zM918.999 1529h-172l189 299h274z" />
    <glyph glyph-name="uhungarumlaut" unicode="&#x171;" horiz-adv-x="1100" 
d="M135 348c1.33301 -117.333 39.666 -206.001 114.999 -266.001c69.333 -61.333 147 -92.666 233 -93.999c110.667 0 200.334 41 269.001 123h4v-111h209v1038h-209v-618c0 -70 -19.333 -124.667 -58 -164c-38 -39.333 -87 -59 -147 -59s-109.333 19.667 -148 59
c-39.333 39.333 -59 94 -59 164v618h-209v-690zM428 1171h-172l188 299h275zM800 1171h-172l189 299h274z" />
    <glyph glyph-name="Uogonek" unicode="&#x172;" horiz-adv-x="1290" 
d="M866 -414c-17.333 -10.667 -43.9971 -21.334 -79.9971 -32.001c-35.333 -11.333 -74.666 -17 -117.999 -17c-57.333 2.66699 -104 19.667 -140 51c-39.333 33.333 -59 80 -59 140c0 31.333 5.33301 61.333 16 90c10 23.333 23.667 46.333 41 69
c15.333 18 32.166 35.5 50.499 52.5s38.5 33.167 60.5 48.5c-142 4 -261.333 51 -358 141c-98.667 88.667 -149.334 210.334 -152.001 365.001v964h221v-940c1.33301 -100.667 30 -176.334 86 -227.001c54.667 -54.667 125 -82 211 -82c87.333 0 158.333 27.333 213 82
c53.333 50.667 81.333 126.334 84 227.001v940h221v-964c-1.33301 -152 -51 -273.667 -149 -365c-72.667 -68 -158 -111 -256 -129c-84.667 -84.667 -127.667 -170.667 -129 -258c0 -30 10 -54 30 -72c19.333 -18.667 42.666 -28 69.999 -28c45.333 0 81.666 10 108.999 30z
" />
    <glyph glyph-name="uogonek" unicode="&#x173;" horiz-adv-x="1100" 
d="M967 -414c-18 -10.667 -44.6641 -21.334 -79.9971 -32.001c-35.333 -11.333 -75 -17 -119 -17c-57.333 2.66699 -103.666 19.667 -138.999 51c-40 33.333 -60 80 -60 140c0 31.333 5.66699 61.333 17 90c9.33301 23.333 23 46.333 41 69
c17.333 19.333 36.666 38.5 57.999 57.5s45 37.5 71 55.5v111h-4c-68.667 -82 -158.334 -123 -269.001 -123c-87.333 2.66699 -165 34 -233 94c-74 58.667 -112.333 147.334 -115 266.001v690h209v-618c0 -70 19.667 -124.667 59 -164c40 -39.333 89.333 -59 148 -59
s107.667 19.667 147 59c38.667 38 58 92.667 58 164v618h209v-1038h-105c-84.667 -83.333 -128.334 -169.333 -131.001 -258c0 -30 10.333 -54 31 -72c18.667 -18.667 41.667 -28 69 -28c45.333 0 81.666 10 108.999 30z" />
    <glyph glyph-name="Wcircumflex" unicode="&#x174;" horiz-adv-x="1704" 
d="M387 0h184l279 1051h4l278 -1051h185l364 1458h-233l-230 -1036h-4l-282 1036h-160l-283 -1036h-4l-229 1036h-233zM716 1529h-197l217 299h233l218 -299h-197l-137 176z" />
    <glyph glyph-name="wcircumflex" unicode="&#x175;" horiz-adv-x="1479" 
d="M958 0h185l331 1038h-221l-198 -727h-4l-236 727h-151l-236 -727h-4l-199 727h-221l332 -1038h184l217 727h4zM601 1171h-197l217 299h233l218 -299h-197l-137 176z" />
    <glyph glyph-name="Ycircumflex" unicode="&#x176;" 
d="M408 0h208v600l439 858h-234l-309 -647v0l-309 647h-234l439 -858v-600zM376 1529h-197l217 299h233l218 -299h-197l-137 176z" />
    <glyph glyph-name="ycircumflex" unicode="&#x177;" horiz-adv-x="909" 
d="M358 41l-57.0029 -174c-9.33301 -30 -25.666 -52.667 -48.999 -68c-23.333 -14.667 -48.666 -22 -75.999 -22h-61v-197h69c64.667 0 122.667 14.333 174 43c50.667 30 90.334 84 119.001 162l447 1253h-222l-245 -727h-4l-246 727h-221zM317.997 1171h-197l217 299h233
l218 -299h-197l-137 176z" />
    <glyph glyph-name="Ydieresis" unicode="&#x178;" 
d="M408 0h208v600l439 858h-234l-309 -647v0l-309 647h-234l439 -858v-600zM589 1558h222v221h-222v-221zM229 1558h221v221h-221v-221z" />
    <glyph glyph-name="Zacute" unicode="&#x179;" horiz-adv-x="1063" 
d="M66 0h931v209h-663l663 1083v166h-905v-197h635l-661 -1077v-184zM590 1828h275l-291 -299h-172z" />
    <glyph glyph-name="zacute" unicode="&#x17a;" horiz-adv-x="909" 
d="M68 0h774v197h-520l520 675v166h-746v-184h492l-520 -688v-166zM494 1470h275l-291 -299h-172z" />
    <glyph glyph-name="Zdotaccent" unicode="&#x17b;" horiz-adv-x="1063" 
d="M66 0h931v209h-663l663 1083v166h-905v-197h635l-661 -1077v-184zM441 1779h221v-221h-221v221z" />
    <glyph glyph-name="zdotaccent" unicode="&#x17c;" horiz-adv-x="909" 
d="M68 0h774v197h-520l520 675v166h-746v-184h492l-520 -688v-166zM345 1421h221v-221h-221v221z" />
    <glyph glyph-name="Zcaron" unicode="&#x17d;" horiz-adv-x="1063" 
d="M66 0h931v209h-663l663 1083v166h-905v-197h635l-661 -1077v-184zM197 1907h197l137 -176v0l137 176h197l-218 -299h-233z" />
    <glyph glyph-name="zcaron" unicode="&#x17e;" horiz-adv-x="909" 
d="M68 0h774v197h-520l520 675v166h-746v-184h492l-520 -688v-166zM121 1487h197l137 -176v0l137 176h197l-218 -299h-233z" />
    <glyph glyph-name="florin" unicode="&#x192;" horiz-adv-x="983" 
d="M229 -86c-9.33301 -52 -41.334 -77.999 -96.001 -77.999c-38 1.33301 -69.333 4.66602 -94 9.99902l-35 -188c41.333 -12 82.333 -18 123 -18c99.333 0 173 23.667 221 71c48 46.667 78 115 90 205l146 850h188l25 160h-185l43 252c12.667 64 50.334 96 113.001 96
c28.667 0 58 -3.33301 88 -10l31 194c-31.333 8 -62.666 12 -93.999 12c-75.333 0 -145 -15.667 -209 -47c-64.667 -32.667 -106.334 -94.667 -125.001 -186l-56 -311h-180l-24 -160h176z" />
    <glyph glyph-name="Ohorn" unicode="&#x1a0;" horiz-adv-x="1489" 
d="M1358 1526c16 -14 35.333 -35.001 58 -63.001s41.667 -63 57 -105c18.667 -52 18.5 -102.167 -0.5 -150.5s-55.167 -82.166 -108.5 -101.499c-45.333 -16.667 -88 -21.167 -128 -13.5s-80 22.5 -120 44.5l8 -33.5c2.66699 -11 5.66699 -22.5 9 -34.5
c8 -57.333 12 -170.666 12 -339.999c0 -166.667 -4 -279.334 -12 -338.001c-11.333 -60 -28.666 -107 -51.999 -141c-35.333 -68.667 -90.666 -128 -165.999 -178c-78.667 -54.667 -175.334 -82.667 -290.001 -84c-114.667 1.33301 -210.334 29.333 -287.001 84
c-79.333 52 -136 111.333 -170 178l-29 63c-4 11.333 -7.66699 23.5 -11 36.5s-6.33301 26.833 -9 41.5c-10 56 -15 168.667 -15 338c0 86 1.16699 157 3.5 213s6.16602 98.333 11.499 127c10.667 58.667 27 105 49 139c34 66 90.667 126.333 170 181
c75.333 51.333 171 78.333 287 81c117.333 -2.66699 214 -29.667 290 -81c53.333 -40 96.333 -81 129 -123c46.667 -18 90.834 -28.667 132.501 -32s80.834 1.66699 117.501 15c24.667 11.333 43.167 29.166 55.5 53.499s13.166 49.5 2.49902 75.5
c-14 42.667 -36 73.334 -66 92.001zM326 728.999c0 -72 1.33496 -131.998 4.00195 -179.998s6.66699 -85 12 -111c10.667 -52 29.667 -93 57 -123c22 -31.333 53 -55.666 93 -72.999c35.333 -22 79.666 -33 132.999 -33s99 11 137 33
c35.333 17.333 64.666 41.666 87.999 72.999c30 31.333 49.667 72.333 59 123c10 48 15 145 15 291c0 72.667 -1 133.167 -3 181.5s-6 85.5 -12 111.5c-9.33301 49.333 -29 89.666 -59 120.999c-22 30 -51.333 55.333 -88 76c-40 18.667 -85.667 28.667 -137 30
c-52 -2.66699 -96.333 -12.667 -133 -30c-40 -20.667 -71 -46 -93 -76c-27.333 -30 -46.333 -70.333 -57 -121c-10.667 -54.667 -16 -152.334 -16 -293.001z" />
    <glyph glyph-name="ohorn" unicode="&#x1a1;" horiz-adv-x="1196" 
d="M1065 1161c18 -13.333 37.835 -34 59.502 -62s40.167 -63.333 55.5 -106c18.667 -52 18.834 -101.833 0.500977 -149.5s-54.833 -82.5 -109.5 -104.5c-27.333 -9.33301 -53 -14.333 -77 -15s-47.333 1.66602 -70 6.99902c5.33301 -27.333 9.33301 -58.333 12 -93
s4 -74 4 -118c0 -109.333 -8.33301 -192.666 -25 -249.999c-18.667 -57.333 -48 -107 -88 -149l-22 -22.5c-8 -8.33301 -17 -15.833 -27 -22.5c-18.667 -16.667 -41 -31 -67 -43c-50.667 -27.333 -117 -42.333 -199 -45c-79.333 1.33301 -144.333 16.333 -195 45
c-52.667 27.333 -92.667 56.666 -120 87.999c-40 43.333 -68.667 93 -86 149c-18 54.667 -27 138 -27 250c0 110.667 9 194.667 27 252c18.667 58.667 47.334 107.334 86.001 146.001c28.667 34 68.667 64.667 120 92c49.333 24.667 114.333 38.334 195 41.001
c83.333 -2.66699 149.666 -16.334 198.999 -41.001c50 -27.333 88.667 -58 116 -92c15.333 -15.333 29 -31.333 41 -48c49.333 -6.66699 93.666 -1.66699 132.999 15c27.333 10.667 46.166 28 56.499 52s11.5 49.667 3.5 77c-16.667 42 -39.334 72.667 -68.001 92z
M731.002 518c0 36.667 -1.00195 68.3311 -3.00195 94.998s-4.33301 49 -7 67c-5.33301 31.333 -19 60 -41 86c-15.333 22 -38 40.333 -68 55c-27.333 14 -60.666 21 -99.999 21c-36.667 0 -69.334 -7 -98.001 -21c-27.333 -13.333 -50.666 -31.666 -69.999 -54.999
c-18 -23.333 -31 -52 -39 -86c-8 -35.333 -12 -88.666 -12 -159.999c0 -72 4 -124.667 12 -158c8 -34 21 -64 39 -90c20.667 -21.333 44 -39 70 -53c32.667 -14.667 65.334 -22 98.001 -22c36.667 0 70 7.33301 100 22c30 14 52.667 31.667 68 53
c22 28.667 35.667 58.667 41 90c2.66699 16.667 5 38 7 64s3 56.667 3 92z" />
    <glyph glyph-name="Uhorn" unicode="&#x1af;" horiz-adv-x="1522" 
d="M1389 1503c17.333 -13.333 36.998 -34 58.998 -62s40.333 -63.333 55 -106c22 -52 22.833 -101.833 2.5 -149.5s-57.166 -82.5 -110.499 -104.5c-42.667 -14.667 -82.667 -19 -120 -13s-74.666 18.667 -111.999 38v-612c-1.33301 -152 -51 -273.667 -149 -365
c-97.333 -92.667 -220.333 -139.667 -369 -141c-146 2.66699 -268 49.667 -366 141c-98.667 88.667 -149.334 210.334 -152.001 365.001v964h221v-940c1.33301 -100.667 30 -176.334 86 -227.001c54.667 -54.667 125 -82 211 -82c87.333 0 158.333 27.333 213 82
c53.333 50.667 81.333 126.334 84 227.001v940h221v-241c60 -12.667 114 -9.33398 162 9.99902c27.333 10.667 46.833 28 58.5 52s11.834 49.667 0.500977 77c-13.333 42 -35 72.667 -65 92z" />
    <glyph glyph-name="uhorn" unicode="&#x1b0;" horiz-adv-x="1348" 
d="M1217 1087c16 -13.333 35.334 -34.334 58.001 -63.001s41.334 -63.334 56.001 -104.001c19.333 -52 19.833 -102 1.5 -150s-54.833 -82.667 -109.5 -104c-48 -18 -92.833 -22.167 -134.5 -12.5s-82.834 26.834 -123.501 51.501v-705h-209v111h-4
c-68.667 -82 -158.334 -123 -269.001 -123c-87.333 2.66699 -165 34 -233 94c-74 58.667 -112.333 147.334 -115 266.001v690h209v-618c0 -70 19.667 -124.667 59 -164c40 -39.333 89.333 -59 148 -59s107.667 19.667 147 59c38.667 38 58 92.667 58 164v618h209v-231
c69.333 -19.333 132 -18 188 4c24.667 8 43.167 25.333 55.5 52s12.833 51.667 1.5 75c-13.333 42 -35 72.667 -65 92z" />
    <glyph glyph-name="clickdental" unicode="&#x1c0;" horiz-adv-x="455" 
d="M147 -12h160v1482h-160v-1482z" />
    <glyph glyph-name="clicklateral" unicode="&#x1c1;" horiz-adv-x="910" 
d="M147 -12h160v1482h-160v-1482zM602 -12h160v1482h-160v-1482z" />
    <glyph glyph-name="clickretroflex" unicode="&#x1c3;" horiz-adv-x="528" 
d="M211 360h104l80 1098h-262zM160 0h209v209h-209v-209z" />
    <glyph glyph-name="DZcaron" unicode="&#x1c4;" horiz-adv-x="2312" 
d="M154 0l495 -0.000976562c109.333 0 201.666 24 276.999 72c76 44.667 135.333 101.334 178 170.001c16 26 29.667 51 41 75c10.667 24.667 18.667 52.667 24 84c11.333 62 17 171.333 17 328c0 147.333 -3.66699 251 -11 311c-9.33301 60 -31.666 117.333 -66.999 172
c-98.667 162.667 -246.667 244.667 -444 246h-510v-1458zM375 1249l264.001 0.000976562c112 2.66699 198.667 -38.333 260 -123c30 -34 49 -78.333 57 -133c6 -54.667 9 -145.334 9 -272.001c0 -130 -3 -218.667 -9 -266c-6.66699 -48 -22.334 -87.667 -47.001 -119
c-56 -84.667 -146 -127 -270 -127h-264v1040zM1315 0h931v209h-663l663 1083v166h-905v-197h635l-661 -1077v-184zM1663 1529h233l218 299h-197l-137 -176v0l-137 176h-197z" />
    <glyph glyph-name="Dzcaron" unicode="&#x1c5;" horiz-adv-x="2200" 
d="M154 0l495 -0.000976562c109.333 0 201.666 24 276.999 72c76 44.667 135.333 101.334 178 170.001c16 26 29.667 51 41 75c10.667 24.667 18.667 52.667 24 84c11.333 62 17 171.333 17 328c0 147.333 -3.66699 251 -11 311c-9.33301 60 -31.666 117.333 -66.999 172
c-98.667 162.667 -246.667 244.667 -444 246h-510v-1458zM375 1249l264.001 0.000976562c112 2.66699 198.667 -38.333 260 -123c30 -34 49 -78.333 57 -133c6 -54.667 9 -145.334 9 -272.001c0 -130 -3 -218.667 -9 -266c-6.66699 -48 -22.334 -87.667 -47.001 -119
c-56 -84.667 -146 -127 -270 -127h-264v1040zM1358 0h774v197h-520l520 675v166h-746v-184h492l-520 -688v-166zM1628 1171h233l218 299h-197l-137 -176v0l-137 176h-197z" />
    <glyph glyph-name="dzcaron" unicode="&#x1c6;" horiz-adv-x="1972" 
d="M756 109l-0.00195312 -109h209v1458h-209v-530v0c-38.667 36.667 -79 66.667 -121 90c-45.333 22 -94.666 33 -147.999 33c-126.667 -3.33301 -219.334 -48.666 -278.001 -135.999c-28.667 -32.667 -47.667 -75.667 -57 -129c-11.333 -52.667 -17 -141.334 -17 -266.001
c0 -122.667 5.66699 -210.667 17 -264c9.33301 -56 28.333 -100.333 57 -133c31.333 -40 70.333 -72 117 -96c44.667 -24.667 98.334 -37.667 161.001 -39c110.667 2.66699 200.334 43 269.001 121v0zM550.998 842c49.333 0 88.333 -9.66602 117 -28.999
s48.334 -44.666 59.001 -75.999c13.333 -31.333 22.333 -65.333 27 -102c1.33301 -36.667 2 -75 2 -115c0 -36.667 -0.666992 -74 -2 -112c-4.66699 -38.667 -13.667 -73.667 -27 -105c-10.667 -31.333 -30.334 -56.666 -59.001 -75.999c-28.667 -20 -67.667 -30 -117 -30
s-87 9.33301 -113 28c-28.667 19.333 -49.667 44 -63 74c-12.667 31.333 -21 66.666 -25 105.999c-4 37.333 -6 75.666 -6 114.999c0 41.333 2 81.666 6 120.999c4 36.667 12.333 70.667 25 102c13.333 31.333 34.333 56 63 74c26 16.667 63.667 25 113 25v0z
M1131 0.000976562h774v197h-520l520 675v166h-746v-184h492l-520 -688v-166zM1401 1171h233l218 299h-197l-137 -176v0l-137 176h-197z" />
    <glyph glyph-name="LJ" unicode="&#x1c7;" horiz-adv-x="2124" 
d="M154 0h931v209h-710v1249h-221v-1458zM1319 307l-177.999 -128.999c83.333 -122.667 209.666 -186 378.999 -190c122.667 1.33301 230.334 43 323.001 125c93.333 80 141.333 193.333 144 340v1005h-221v-983c0 -49.333 -7.66699 -90.333 -23 -123
c-14.667 -34 -35 -61.333 -61 -82c-53.333 -42 -109.333 -62.333 -168 -61c-44 0 -82.333 10.333 -115 31c-32.667 17.333 -59.334 39.666 -80.001 66.999v0z" />
    <glyph glyph-name="Lj" unicode="&#x1c8;" horiz-adv-x="1667" 
d="M154 0h931v209h-710v1249h-221v-1458zM1301 -113c-1.33301 -73.333 -40.333 -109.999 -117 -109.999h-59v-197h82c90 1.33301 163 28.666 219 81.999c54.667 52 82.667 121.667 84 209v1167h-209v-1151zM1301 1249h209v209h-209v-209z" />
    <glyph glyph-name="lj" unicode="&#x1c9;" horiz-adv-x="1056" 
d="M135 252c0 -91.333 26 -156.333 78 -195c49.333 -38 112 -57 188 -57h93v197h-72c-52 0 -78 23.667 -78 71v1190h-209v-1206zM690 -113c-1.33301 -73.333 -40.333 -109.999 -117 -109.999h-59v-197h82c90 1.33301 163 28.666 219 81.999c54.667 52 82.667 121.667 84 209
v1167h-209v-1151zM690 1249h209v209h-209v-209z" />
    <glyph glyph-name="NJ" unicode="&#x1ca;" horiz-adv-x="2386" 
d="M154 0h221v1036h4l659 -1036h209v1458h-221v-1036h-4l-660 1036h-208v-1458zM1581 307l-177.999 -128.999c83.333 -122.667 209.666 -186 378.999 -190c122.667 1.33301 230.334 43 323.001 125c93.333 80 141.333 193.333 144 340v1005h-221v-983
c0 -49.333 -7.66699 -90.333 -23 -123c-14.667 -34 -35 -61.333 -61 -82c-53.333 -42 -109.333 -62.333 -168 -61c-44 0 -82.333 10.333 -115 31c-32.667 17.333 -59.334 39.666 -80.001 66.999v0z" />
    <glyph glyph-name="Nj" unicode="&#x1cb;" horiz-adv-x="1929" 
d="M154 0h221v1036h4l659 -1036h209v1458h-221v-1036h-4l-660 1036h-208v-1458zM1563 -113c-1.33301 -73.333 -40.333 -109.999 -117 -109.999h-59v-197h82c90 1.33301 163 28.666 219 81.999c54.667 52 82.667 121.667 84 209v1167h-209v-1151zM1563 1249h209v209h-209
v-209z" />
    <glyph glyph-name="nj" unicode="&#x1cc;" horiz-adv-x="1628" 
d="M135 0h209v618c0 72.667 19.667 128 59 166c38.667 38.667 88 58 148 58s109 -19.333 147 -58c38.667 -38 58 -93.333 58 -166v-618h209v690c-3.33301 118.667 -40.333 208.667 -111 270c-71.333 60.667 -150 91 -236 91c-111.333 0 -201.333 -41 -270 -123h-4v110h-209
v-1038zM1262 -113c-1.33301 -73.333 -40.333 -109.999 -117 -109.999h-59v-197h82c90 1.33301 163 28.666 219 81.999c54.667 52 82.667 121.667 84 209v1167h-209v-1151zM1262 1249h209v209h-209v-209z" />
    <glyph glyph-name="Acaron" unicode="&#x1cd;" horiz-adv-x="1249" 
d="M412 522l211 637h4l211 -637h-426zM1014 0h233l-530 1458h-185l-530 -1458h234l112 326h553zM508 1529h233l218 299h-197l-137 -176v0l-137 176h-197z" />
    <glyph glyph-name="acaron" unicode="&#x1ce;" 
d="M680 0l209 -0.00292969v709c-1.33301 126.667 -41 216 -119 268c-78 50.667 -182.333 75.334 -313 74.001c-154.667 2.66699 -271.667 -48 -351 -152l164 -125v0c18 30 42.667 51.333 74 64c30 10.667 71 16 123 16c143.333 2.66699 214.333 -41.666 213 -132.999v-109
h-289c-110.667 -1.33301 -194.667 -31.333 -252 -90c-57.333 -57.333 -86 -129.666 -86 -216.999c0 -91.333 33 -166.333 99 -225c62.667 -60 152 -90.667 268 -92c70.667 0 126 8.66699 166 26c40.667 16.667 70.667 42.667 90 78h4v-92zM680 364.997
c0 -78 -16.333 -128.001 -49 -150.001c-36 -22 -97.667 -32.333 -185 -31c-69.333 0 -119 13.667 -149 41c-31.333 24.667 -47 54.667 -47 90c-1.33301 80.667 58.667 122.334 180 125.001h250v-75zM375 1171h233l218 299h-197l-137 -176v0l-137 176h-197z" />
    <glyph glyph-name="Icaron" unicode="&#x1cf;" horiz-adv-x="528" 
d="M154 0h221v1458h-221v-1458zM147 1529h233l218 299h-197l-137 -176v0l-137 176h-197z" />
    <glyph glyph-name="icaron" unicode="&#x1d0;" horiz-adv-x="492" 
d="M141 0h209v1038h-209v-1038zM129 1171h233l218 299h-197l-137 -176v0l-137 176h-197z" />
    <glyph glyph-name="Ocaron" unicode="&#x1d1;" horiz-adv-x="1249" 
d="M104 729c0 -166.667 4.99902 -279.334 14.999 -338.001c5.33301 -31.333 12 -57.333 20 -78c8.66699 -20 18.334 -41 29.001 -63c35.333 -67.333 92 -126.666 170 -177.999c76.667 -53.333 172.334 -81.333 287.001 -84c116 2.66699 212.667 30.667 290 84
c76.667 51.333 132 110.666 166 177.999c24.667 35.333 41.667 82.333 51 141c8.66699 58.667 13 171.334 13 338.001c0 169.333 -4.33301 282.666 -13 339.999c-9.33301 57.333 -26.333 103.666 -51 138.999c-34 67.333 -89.333 127.333 -166 180
c-77.333 53.333 -174 80.666 -290 81.999c-114.667 -1.33301 -210.334 -28.666 -287.001 -81.999c-78 -52.667 -134.667 -112.667 -170 -180c-22 -35.333 -38.333 -81.666 -49 -138.999c-10 -57.333 -15 -170.666 -15 -339.999v0zM325.999 729c0 143.333 5.33301 241 16 293
c9.33301 49.333 28.333 89.666 57 120.999c23.333 30 54 55 92 75c37.333 19.333 82 29.666 134 30.999c52.667 -1.33301 98.334 -11.666 137.001 -30.999c36.667 -20 66 -45 88 -75c28.667 -31.333 48.334 -71.666 59.001 -120.999c10 -52 15 -149.667 15 -293
s-5 -240.333 -15 -291c-10.667 -50.667 -30.334 -91.667 -59.001 -123c-22 -30 -51.333 -54.333 -88 -73c-38.667 -22 -84.334 -33 -137.001 -33c-52 0 -96.667 11 -134 33c-38 18.667 -68.667 43 -92 73c-28.667 31.333 -47.667 72.333 -57 123
c-10.667 50.667 -16 147.667 -16 291v0zM507.999 1529h233l218 299h-197l-137 -176v0l-137 176h-197z" />
    <glyph glyph-name="ocaron" unicode="&#x1d2;" 
d="M84 520c0 -109.333 9.00195 -192.666 27.002 -249.999c18.667 -57.333 47.334 -107 86.001 -149c28.667 -32.667 68.667 -62 120 -88c50.667 -28.667 115.667 -43.667 195 -45c82 1.33301 148.333 16.333 199 45c27.333 12 49.666 26.333 66.999 43
c19.333 14.667 35.666 29.667 48.999 45c41.333 42 70.666 91.667 87.999 149c16.667 57.333 25 140.666 25 249.999s-8.33301 193.333 -25 252c-17.333 57.333 -46.666 105.666 -87.999 144.999c-27.333 34.667 -66 65.667 -116 93c-50.667 26 -117 39.667 -199 41
c-79.333 -1.33301 -144.333 -15 -195 -41c-51.333 -27.333 -91.333 -58.333 -120 -93c-38.667 -39.333 -67.334 -87.666 -86.001 -144.999c-18 -58.667 -27 -142.667 -27 -252v0zM731.002 518c0 -70.667 -3.33301 -122.667 -10 -156c-6.66699 -34 -20.334 -64 -41.001 -90
c-15.333 -20 -38 -37.667 -68 -53c-28.667 -14.667 -62 -22 -100 -22c-35.333 0 -68 7.33301 -98 22c-28.667 15.333 -52 33 -70 53c-18 26 -31 56 -39 90c-8 33.333 -12 86 -12 158c0 72.667 4 126 12 160c8 32.667 21 61.334 39 86.001c18 23.333 41.333 41.666 70 54.999
c30 14 62.667 21 98 21c38 0 71.333 -7 100 -21c30 -13.333 52.667 -31.666 68 -54.999c20.667 -24.667 34.334 -53.334 41.001 -86.001c6.66699 -34 10 -88 10 -162v0zM395.002 1171h233l218 299h-197l-137 -176v0l-137 176h-197z" />
    <glyph glyph-name="Ucaron" unicode="&#x1d3;" horiz-adv-x="1290" 
d="M127 494c1.33301 -153.333 51.999 -275 151.999 -365c98 -92.667 220 -139.667 366 -141c148.667 1.33301 271.667 48.333 369 141c96.667 90 146.334 211.667 149.001 365v964h-221v-940c-1.33301 -99.333 -29.333 -175 -84 -227c-56 -54.667 -127 -82 -213 -82
s-156.333 27.333 -211 82c-56 52 -84.667 127.667 -86 227v940h-221v-964zM527.999 1529h233l218 299h-197l-137 -176v0l-137 176h-197z" />
    <glyph glyph-name="ucaron" unicode="&#x1d4;" horiz-adv-x="1100" 
d="M135 348c1.33301 -117.333 39.666 -206.001 114.999 -266.001c69.333 -61.333 147 -92.666 233 -93.999c110.667 0 200.334 41 269.001 123h4v-111h209v1038h-209v-618c0 -70 -19.333 -124.667 -58 -164c-38 -39.333 -87 -59 -147 -59s-109.333 19.667 -148 59
c-39.333 39.333 -59 94 -59 164v618h-209v-690zM432 1171h233l218 299h-197l-137 -176v0l-137 176h-197z" />
    <glyph glyph-name="Udieresismacron" unicode="&#x1d5;" horiz-adv-x="1290" 
d="M127 494c1.33301 -153.333 51.999 -275 151.999 -365c98 -92.667 220 -139.667 366 -141c148.667 1.33301 271.667 48.333 369 141c96.667 90 146.334 211.667 149.001 365v964h-221v-940c-1.33301 -99.333 -29.333 -175 -84 -227c-56 -54.667 -127 -82 -213 -82
s-156.333 27.333 -211 82c-56 52 -84.667 127.667 -86 227v940h-221v-964zM713.999 1558h222v221h-222v-221zM353.999 1558h221v221h-221v-221zM349.999 1929h590v135h-590v-135z" />
    <glyph glyph-name="udieresismacron" unicode="&#x1d6;" horiz-adv-x="1100" 
d="M135 348c1.33301 -117.333 39.666 -206.001 114.999 -266.001c69.333 -61.333 147 -92.666 233 -93.999c110.667 0 200.334 41 269.001 123h4v-111h209v1038h-209v-618c0 -70 -19.333 -124.667 -58 -164c-38 -39.333 -87 -59 -147 -59s-109.333 19.667 -148 59
c-39.333 39.333 -59 94 -59 164v618h-209v-690zM618 1200h222v221h-222v-221zM258 1200h221v221h-221v-221zM254 1571h590v135h-590v-135z" />
    <glyph glyph-name="Udieresisacute" unicode="&#x1d7;" horiz-adv-x="1290" 
d="M127 494c1.33301 -153.333 51.999 -275 151.999 -365c98 -92.667 220 -139.667 366 -141c148.667 1.33301 271.667 48.333 369 141c96.667 90 146.334 211.667 149.001 365v964h-221v-940c-1.33301 -99.333 -29.333 -175 -84 -227c-56 -54.667 -127 -82 -213 -82
s-156.333 27.333 -211 82c-56 52 -84.667 127.667 -86 227v940h-221v-964zM713.999 1558h222v221h-222v-221zM353.999 1558h221v221h-221v-221zM497.999 1857h172l291 299h-275z" />
    <glyph glyph-name="udieresisacute" unicode="&#x1d8;" horiz-adv-x="1100" 
d="M135 348c1.33301 -117.333 39.666 -206.001 114.999 -266.001c69.333 -61.333 147 -92.666 233 -93.999c110.667 0 200.334 41 269.001 123h4v-111h209v1038h-209v-618c0 -70 -19.333 -124.667 -58 -164c-38 -39.333 -87 -59 -147 -59s-109.333 19.667 -148 59
c-39.333 39.333 -59 94 -59 164v618h-209v-690zM618 1200h222v221h-222v-221zM258 1200h221v221h-221v-221zM389 1499h172l291 299h-275z" />
    <glyph glyph-name="Udieresiscaron" unicode="&#x1d9;" horiz-adv-x="1290" 
d="M127 494c1.33301 -153.333 51.999 -275 151.999 -365c98 -92.667 220 -139.667 366 -141c148.667 1.33301 271.667 48.333 369 141c96.667 90 146.334 211.667 149.001 365v964h-221v-940c-1.33301 -99.333 -29.333 -175 -84 -227c-56 -54.667 -127 -82 -213 -82
s-156.333 27.333 -211 82c-56 52 -84.667 127.667 -86 227v940h-221v-964zM713.999 1558h222v221h-222v-221zM353.999 1558h221v221h-221v-221zM527.999 1857h233l218 299h-197l-137 -176v0l-137 176h-197z" />
    <glyph glyph-name="udieresiscaron" unicode="&#x1da;" horiz-adv-x="1100" 
d="M135 348c1.33301 -117.333 39.666 -206.001 114.999 -266.001c69.333 -61.333 147 -92.666 233 -93.999c110.667 0 200.334 41 269.001 123h4v-111h209v1038h-209v-618c0 -70 -19.333 -124.667 -58 -164c-38 -39.333 -87 -59 -147 -59s-109.333 19.667 -148 59
c-39.333 39.333 -59 94 -59 164v618h-209v-690zM618 1200h222v221h-222v-221zM258 1200h221v221h-221v-221zM432 1499h233l218 299h-197l-137 -176v0l-137 176h-197z" />
    <glyph glyph-name="Udieresisgrave" unicode="&#x1db;" horiz-adv-x="1290" 
d="M127 494c1.33301 -153.333 51.999 -275 151.999 -365c98 -92.667 220 -139.667 366 -141c148.667 1.33301 271.667 48.333 369 141c96.667 90 146.334 211.667 149.001 365v964h-221v-940c-1.33301 -99.333 -29.333 -175 -84 -227c-56 -54.667 -127 -82 -213 -82
s-156.333 27.333 -211 82c-56 52 -84.667 127.667 -86 227v940h-221v-964zM713.999 1558h222v221h-222v-221zM353.999 1558h221v221h-221v-221zM636.999 1857h172l-188 299h-274z" />
    <glyph glyph-name="udieresisgrave" unicode="&#x1dc;" horiz-adv-x="1100" 
d="M135 348c1.33301 -117.333 39.666 -206.001 114.999 -266.001c69.333 -61.333 147 -92.666 233 -93.999c110.667 0 200.334 41 269.001 123h4v-111h209v1038h-209v-618c0 -70 -19.333 -124.667 -58 -164c-38 -39.333 -87 -59 -147 -59s-109.333 19.667 -148 59
c-39.333 39.333 -59 94 -59 164v618h-209v-690zM618 1200h222v221h-222v-221zM258 1200h221v221h-221v-221zM526 1499h172l-188 299h-274z" />
    <glyph glyph-name="Adieresismacron" unicode="&#x1de;" horiz-adv-x="1249" 
d="M412 522l211 637h4l211 -637h-426zM1014 0h233l-530 1458h-185l-530 -1458h234l112 326h553zM694 1558h222v221h-222v-221zM334 1558h221v221h-221v-221zM330 1929h590v135h-590v-135z" />
    <glyph glyph-name="adieresismacron" unicode="&#x1df;" 
d="M680 0l209 -0.00292969v709c-1.33301 126.667 -41 216 -119 268c-78 50.667 -182.333 75.334 -313 74.001c-154.667 2.66699 -271.667 -48 -351 -152l164 -125v0c18 30 42.667 51.333 74 64c30 10.667 71 16 123 16c143.333 2.66699 214.333 -41.666 213 -132.999v-109
h-289c-110.667 -1.33301 -194.667 -31.333 -252 -90c-57.333 -57.333 -86 -129.666 -86 -216.999c0 -91.333 33 -166.333 99 -225c62.667 -60 152 -90.667 268 -92c70.667 0 126 8.66699 166 26c40.667 16.667 70.667 42.667 90 78h4v-92zM680 364.997
c0 -78 -16.333 -128.001 -49 -150.001c-36 -22 -97.667 -32.333 -185 -31c-69.333 0 -119 13.667 -149 41c-31.333 24.667 -47 54.667 -47 90c-1.33301 80.667 58.667 122.334 180 125.001h250v-75zM583 1200h222v221h-222v-221zM223 1200h221v221h-221v-221zM219 1571h590
v135h-590v-135z" />
    <glyph glyph-name="Adotmacron" unicode="&#x1e0;" horiz-adv-x="1249" 
d="M412 522l211 637h4l211 -637h-426zM1014 0h233l-530 1458h-185l-530 -1458h234l112 326h553zM514 1558h221v221h-221v-221zM330 1929h590v135h-590v-135z" />
    <glyph glyph-name="adotmacron" unicode="&#x1e1;" 
d="M680 0l209 -0.00292969v709c-1.33301 126.667 -41 216 -119 268c-78 50.667 -182.333 75.334 -313 74.001c-154.667 2.66699 -271.667 -48 -351 -152l164 -125v0c18 30 42.667 51.333 74 64c30 10.667 71 16 123 16c143.333 2.66699 214.333 -41.666 213 -132.999v-109
h-289c-110.667 -1.33301 -194.667 -31.333 -252 -90c-57.333 -57.333 -86 -129.666 -86 -216.999c0 -91.333 33 -166.333 99 -225c62.667 -60 152 -90.667 268 -92c70.667 0 126 8.66699 166 26c40.667 16.667 70.667 42.667 90 78h4v-92zM680 364.997
c0 -78 -16.333 -128.001 -49 -150.001c-36 -22 -97.667 -32.333 -185 -31c-69.333 0 -119 13.667 -149 41c-31.333 24.667 -47 54.667 -47 90c-1.33301 80.667 58.667 122.334 180 125.001h250v-75zM405 1200h221v221h-221v-221zM221 1571h590v135h-590v-135z" />
    <glyph glyph-name="AEmacron" unicode="&#x1e2;" horiz-adv-x="1858" 
d="M872 0h932v209h-710v428h606v196h-606v416h710v209h-1034l-793 -1458h234l176 326h485v-326zM491 522l377 739h4v-739h-381zM819 1601h590v135h-590v-135z" />
    <glyph glyph-name="aemacron" unicode="&#x1e3;" horiz-adv-x="1593" 
d="M256 774c18 30 42.6689 51.3291 74.002 63.9961c30 10.667 71 16 123 16c143.333 2.66699 214.333 -41.666 213 -132.999v-109h-316c-100.667 -1.33301 -177 -32.666 -229 -93.999c-54.667 -60 -82 -131 -82 -213c1.33301 -102 38 -180.333 110 -235
c71.333 -53.333 162.333 -80.666 273 -81.999c61.333 0 122 12.333 182 37c58.667 22.667 108 63.334 148 122.001v0c48.667 -60 103 -101.333 163 -124c58.667 -23.333 125 -35 199 -35c143.333 -1.33301 268.333 54.667 375 168l-152 129v0
c-66.667 -67.333 -142.334 -101 -227.001 -101c-72.667 0 -131.334 22 -176.001 66c-48 43.333 -72 106.666 -72 189.999h647v172c-1.33301 136.667 -43.666 244 -126.999 322c-82 76.667 -182.333 115.667 -301 117c-57.333 0 -113.333 -11.667 -168 -35
c-56 -23.333 -100.333 -55.666 -133 -96.999v0c-62.667 89.333 -175.334 133.333 -338.001 132c-154 2.66699 -270.667 -48 -350 -152zM666.002 439.996l-0.000976562 -75.001c0 -78 -16.667 -128 -50 -150c-35.333 -22 -96.666 -32.333 -183.999 -31
c-69.333 0 -119 13.667 -149 41c-31.333 24.667 -47 54.667 -47 90c-2 80.667 58 122.334 180 125.001h250zM862.001 611.995c4 80.667 25.999 141.667 65.999 183c39.333 39.333 90.333 59 153 59s114 -19.667 154 -59c40.667 -41.333 62.334 -102.333 65.001 -183h-438z
M479 1243h590v135h-590v-135z" />
    <glyph glyph-name="Gcaron" unicode="&#x1e6;" horiz-adv-x="1249" 
d="M627 594l297 -0.00195312v-76c-1.33301 -91.333 -30 -165 -86 -221c-56 -58.667 -127 -88 -213 -88c-52 0 -96.667 11 -134 33c-38 18.667 -68.667 43 -92 73c-28.667 31.333 -47.667 72.333 -57 123c-10.667 50.667 -16 147.667 -16 291s5.33301 241 16 293
c9.33301 49.333 28.333 89.666 57 120.999c23.333 30 54 55 92 75c37.333 19.333 82 29.666 134 30.999c70.667 -1.33301 130.667 -21.666 180 -60.999c47.333 -41.333 80 -91.333 98 -150h234c-23.333 122 -79.333 224.333 -168 307
c-88.667 82 -203.334 123.667 -344.001 125c-114.667 -1.33301 -210.334 -28.666 -287.001 -81.999c-78 -52.667 -134.667 -112.667 -170 -180c-22 -35.333 -38.333 -81.666 -49 -138.999c-10 -57.333 -15 -170.666 -15 -339.999c0 -166.667 5 -279.334 15 -338.001
c5.33301 -31.333 12 -57.333 20 -78c8.66699 -20 18.334 -41 29.001 -63c35.333 -67.333 92 -126.666 170 -177.999c76.667 -53.333 172.334 -81.333 287.001 -84c148.667 2.66699 272 53 370 151c97.333 98.667 147.333 221 150 367v297h-518v-209zM508 1529h233l218 299
h-197l-137 -176v0l-137 176h-197z" />
    <glyph glyph-name="gcaron" unicode="&#x1e7;" horiz-adv-x="1063" 
d="M719 109l-0.000976562 -107c-1.33301 -70.667 -23.333 -126 -66 -166c-43.333 -39.333 -100.666 -59 -171.999 -59c-38 1.33301 -74.667 11.666 -110 30.999c-34.667 17.333 -65.334 38.333 -92.001 63v0l-162 -129c99.333 -113.333 219.333 -171.333 360 -174
c122.667 0 228 37.667 316 113c87.333 73.333 132.333 188 135 344v1013h-209v-110v0c-75.333 82 -164.666 123 -267.999 123c-67.333 -1.33301 -123.333 -14.333 -168 -39c-46.667 -26 -82.334 -55.333 -107.001 -88c-27.333 -33.333 -47 -74.333 -59 -123
c-12.667 -49.333 -19 -143.666 -19 -282.999c0 -136.667 6.33301 -229.334 19 -278.001c12 -49.333 31.667 -91 59 -125c24.667 -30 60.334 -58 107.001 -84c44.667 -27.333 100.667 -41.666 168 -42.999c110 2.66699 199.333 43 268 121v0zM306.999 518
c0 80.667 2.66699 136.667 8 168c4.66699 31.333 15.667 56.666 33 75.999c14 18.667 35.333 37 64 55c27.333 15.333 61.333 23.666 102 24.999c40.667 -1.33301 74.667 -9.66602 102 -24.999c27.333 -18 48 -36.333 62 -55c17.333 -19.333 29 -44.666 35 -75.999
c4 -31.333 6 -87.333 6 -168c0 -79.333 -2 -134 -6 -164c-6 -31.333 -17.667 -57.333 -35 -78c-14 -18.667 -34.667 -35.667 -62 -51c-27.333 -18.667 -61.333 -28 -102 -28s-74.667 9.33301 -102 28c-28.667 15.333 -50 32.333 -64 51
c-17.333 20.667 -28.333 46.667 -33 78c-5.33301 30 -8 84.667 -8 164v0zM394.999 1171h233l218 299h-197l-137 -176v0l-137 176h-197z" />
    <glyph glyph-name="Kcaron" unicode="&#x1e8;" horiz-adv-x="1290" 
d="M154 0h221v444l256 269v0l397 -713h262l-516 883l467 575h-262l-600 -751h-4v751h-221v-1458zM543 1529h233l218 299h-197l-137 -176v0l-137 176h-197z" />
    <glyph glyph-name="kcaron" unicode="&#x1e9;" horiz-adv-x="1063" 
d="M135 0h209v299l164 186v0l276 -485h262l-407 633l358 405h-250l-399 -487h-4v907h-209v-1458zM459 1529h233l218 299h-197l-137 -176v0l-137 176h-197z" />
    <glyph glyph-name="Oogonek" unicode="&#x1ea;" horiz-adv-x="1249" 
d="M844 -414c-19.333 -10.667 -45.998 -21.502 -79.998 -32.502s-73.667 -16.5 -119 -16.5c-56 0 -103.167 17.5 -141.5 52.5s-57.5 81.167 -57.5 138.5c0 58.667 16.167 108.167 48.5 148.5s72.166 77.5 119.499 111.5c-108.667 4 -200.667 32 -276 84
c-79.333 52 -136 111.333 -170 178l-29 63c-4 11.333 -7.66699 23.5 -11 36.5s-6.33301 26.833 -9 41.5c-10 56 -15 168.667 -15 338c0 86 1.16699 157 3.5 213s6.16602 98.333 11.499 127c10.667 58.667 27 105 49 139c34 66 90.667 126.333 170 181
c75.333 51.333 171 78.333 287 81c117.333 -2.66699 214 -29.667 290 -81c76.667 -53.333 132 -113.666 166 -180.999c23.333 -32.667 40.666 -79 51.999 -139c8 -57.333 12 -170.666 12 -339.999c0 -166.667 -4 -279.334 -12 -338.001
c-11.333 -60 -28.666 -107 -51.999 -141c-35.333 -68.667 -90.666 -128 -165.999 -178c-52.667 -36 -112.667 -60 -180 -72c-40.667 -42 -72.334 -84.167 -95.001 -126.5s-34 -86.166 -34 -131.499c0 -27.333 10 -50.833 30 -70.5s43.667 -29.5 71 -29.5
c44.667 0 80.667 10 108 30zM326.002 728.998c0 -72 1.33496 -131.998 4.00195 -179.998s6.66699 -85 12 -111c10.667 -52 29.667 -93 57 -123c22 -31.333 53 -55.666 93 -72.999c35.333 -22 79.666 -33 132.999 -33s99 11 137 33
c35.333 17.333 64.666 41.666 87.999 72.999c30 31.333 49.667 72.333 59 123c10 48 15 145 15 291c0 72.667 -1 133.167 -3 181.5s-6 85.5 -12 111.5c-9.33301 49.333 -29 89.666 -59 120.999c-22 30 -51.333 55.333 -88 76c-40 18.667 -85.667 28.667 -137 30
c-52 -2.66699 -96.333 -12.667 -133 -30c-40 -20.667 -71 -46 -93 -76c-27.333 -30 -46.333 -70.333 -57 -121c-10.667 -54.667 -16 -152.334 -16 -293.001z" />
    </font>
</defs>
</svg>
